<svg id="Layer_1" data-name="Layer 1" xmlns="http://www.w3.org/2000/svg" viewBox="0 0 2086.35 913.53"><defs><style>.cls-1{fill:#9722ff;}.cls-2{fill:#dc29dd;}.cls-3{fill:#27a2fd;}.cls-4{fill:#34f;}.cls-5{fill:#fff;}</style></defs><path class="cls-1" d="M249.16,128.54a15.28,15.28,0,0,0,15.26,15.27h26v58h-26a15.27,15.27,0,0,0,0,30.53h26v44.5a13.52,13.52,0,0,1-13.52,13.53h-44.5v-26a15.27,15.27,0,0,0-30.54,0v26h-58v-26a15.27,15.27,0,1,0-30.53,0v26H68.77a13.54,13.54,0,0,1-13.53-13.53V68.78A13.53,13.53,0,0,1,68.77,55.25H276.86a13.52,13.52,0,0,1,13.52,13.53v44.48h-26A15.27,15.27,0,0,0,249.16,128.54Z"/><path class="cls-2" d="M514.84,128.54a15.27,15.27,0,0,0,15.26,15.27h26v58h-26a15.27,15.27,0,0,0,0,30.53h26v44.5a13.53,13.53,0,0,1-13.52,13.53H334.45a13.52,13.52,0,0,1-13.52-13.53v-44.5h25.94a15.27,15.27,0,1,0,0-30.53H320.93v-58h25.94a15.28,15.28,0,1,0,0-30.55H320.93V68.78a13.51,13.51,0,0,1,13.52-13.53H542.54a13.52,13.52,0,0,1,13.52,13.53v44.48h-26A15.27,15.27,0,0,0,514.84,128.54Z"/><path class="cls-3" d="M821.73,68.78V276.86a13.52,13.52,0,0,1-13.52,13.53h-44.5v-26a15.27,15.27,0,1,0-30.53,0v26h-58v-26a15.27,15.27,0,1,0-30.53,0v26h-44.5a13.54,13.54,0,0,1-13.53-13.53v-44.5h26a15.27,15.27,0,1,0,0-30.53h-26v-58h26a15.28,15.28,0,0,0,0-30.55h-26V68.78a13.53,13.53,0,0,1,13.53-13.53H808.21A13.52,13.52,0,0,1,821.73,68.78Z"/><path class="cls-2" d="M290.38,334.44V542.53a13.52,13.52,0,0,1-13.52,13.53h-44.5v-26a15.27,15.27,0,0,0-30.54,0v26h-58v-26a15.27,15.27,0,1,0-30.53,0v26H68.77a13.53,13.53,0,0,1-13.53-13.53V334.44a13.54,13.54,0,0,1,13.53-13.52h44.5v26a15.27,15.27,0,0,0,30.53,0v-26h58v26a15.27,15.27,0,0,0,30.54,0v-26h44.5A13.52,13.52,0,0,1,290.38,334.44Z"/><path class="cls-3" d="M514.84,394.21a15.25,15.25,0,0,0,15.26,15.26h26v58h-26a15.27,15.27,0,0,0,0,30.53h26v44.5a13.52,13.52,0,0,1-13.52,13.53H498v-26a15.27,15.27,0,1,0-30.53,0v26h-58v-26a15.27,15.27,0,1,0-30.54,0v26H334.45a13.51,13.51,0,0,1-13.52-13.53V334.44a13.52,13.52,0,0,1,13.52-13.52H542.54a13.53,13.53,0,0,1,13.52,13.52v44.5h-26A15.26,15.26,0,0,0,514.84,394.21Z"/><path class="cls-4" d="M821.73,334.44V542.53a13.52,13.52,0,0,1-13.52,13.53H600.12a13.53,13.53,0,0,1-13.53-13.53V498h26a15.27,15.27,0,1,0,0-30.53h-26v-58h26a15.27,15.27,0,1,0,0-30.53h-26v-44.5a13.54,13.54,0,0,1,13.53-13.52h44.5v26a15.27,15.27,0,0,0,30.53,0v-26h58v26a15.27,15.27,0,0,0,30.53,0v-26h44.5A13.52,13.52,0,0,1,821.73,334.44Z"/><path class="cls-1" d="M249.16,659.89a15.28,15.28,0,0,0,15.26,15.27h26v58h-26a15.27,15.27,0,0,0,0,30.54h26v44.5a13.52,13.52,0,0,1-13.52,13.53H68.77a13.54,13.54,0,0,1-13.53-13.53V600.13A13.53,13.53,0,0,1,68.77,586.6h44.5v25.95a15.27,15.27,0,1,0,30.53,0V586.6h58v25.95a15.27,15.27,0,1,0,30.54,0V586.6h44.5a13.52,13.52,0,0,1,13.52,13.53v44.48h-26A15.28,15.28,0,0,0,249.16,659.89Z"/><path class="cls-4" d="M556.06,600.13V808.21a13.53,13.53,0,0,1-13.52,13.53H334.45a13.52,13.52,0,0,1-13.52-13.53v-44.5h25.94a15.27,15.27,0,1,0,0-30.54H320.93v-58h25.94a15.28,15.28,0,1,0,0-30.55H320.93V600.13a13.51,13.51,0,0,1,13.52-13.53h44.49v25.95a15.27,15.27,0,1,0,30.54,0V586.6h58v25.95a15.27,15.27,0,1,0,30.53,0V586.6h44.5A13.52,13.52,0,0,1,556.06,600.13Z"/><rect class="cls-1" x="635.3" y="635.29" width="235.14" height="235.14" rx="13.53" transform="translate(-311.85 752.86) rotate(-45)"/><path class="cls-5" d="M1156.8,66.22v39.56h-53.7V268.9h-49.37V105.78H1000V66.22Z"/><path class="cls-5" d="M1325.12,124.4q16.74,18.33,16.74,50.38V268.9h-49.08V181.42q0-16.17-8.37-25.12t-22.52-9q-14.15,0-22.52,9T1231,181.42V268.9h-49.37V55.25H1231v74.2a52.69,52.69,0,0,1,20.49-17,65.6,65.6,0,0,1,29.16-6.35Q1308.37,106.07,1325.12,124.4Z"/><path class="cls-5" d="M1527.22,200.19H1415.48q1.15,15,9.67,22.95a29.58,29.58,0,0,0,20.94,7.94q18.47,0,25.69-15.59h52.55a72.22,72.22,0,0,1-14.58,28.58A73.06,73.06,0,0,1,1483.33,264q-15.88,7.22-35.51,7.22-23.68,0-42.15-10.11a71.71,71.71,0,0,1-28.87-28.87q-10.4-18.76-10.4-43.88t10.25-43.89a71,71,0,0,1,28.73-28.87q18.46-10.09,42.44-10.1,23.39,0,41.57,9.81a70.47,70.47,0,0,1,28.44,28q10.25,18.18,10.25,42.44A127.84,127.84,0,0,1,1527.22,200.19Zm-49.66-27.43q0-12.7-8.67-20.21T1447.24,145q-12.42,0-20.93,7.22t-10.54,20.5Z"/><path class="cls-5" d="M1155.36,578.47l-26-34.93a114.65,114.65,0,0,1-22.52,2.31,105.83,105.83,0,0,1-52.4-13.28,99.2,99.2,0,0,1-37.82-37.1q-14-23.82-14-53.56t14-53.41a99.63,99.63,0,0,1,37.82-37,110,110,0,0,1,104.8,0,97.65,97.65,0,0,1,37.54,37q13.71,23.67,13.71,53.41,0,26-10.54,47.49a98,98,0,0,1-29.3,35.66l44.46,53.41Zm-87.63-93.69q14.58,16,39.12,16,24.26,0,38.83-16.17t14.58-42.73q0-26.85-14.58-42.87t-38.83-16q-24.54,0-39.12,15.88t-14.58,43Q1053.15,468.76,1067.73,484.78Z"/><path class="cls-5" d="M1397.59,382.72V543.83h-49.37v-22a54.2,54.2,0,0,1-20.36,17.18,62.13,62.13,0,0,1-28.44,6.5q-18.48,0-32.62-8.23a55.49,55.49,0,0,1-21.94-23.82q-7.8-15.58-7.8-36.67V382.72h49.08V470.2q0,16.19,8.37,25.12t22.52,8.95q14.45,0,22.81-8.95t8.38-25.12V382.72Z"/><path class="cls-5" d="M1436.7,358.33a24.81,24.81,0,0,1-8.22-18.91,25.12,25.12,0,0,1,8.22-19.2q8.23-7.65,21.23-7.65,12.69,0,20.93,7.65a25.13,25.13,0,0,1,8.23,19.2,24.82,24.82,0,0,1-8.23,18.91q-8.23,7.65-20.93,7.65Q1444.93,366,1436.7,358.33Zm45.77,24.39V543.83H1433.1V382.72Z"/><path class="cls-5" d="M1567.64,330.18V543.83h-49.37V330.18Z"/><path class="cls-5" d="M1693.23,502v41.87h-25.12q-26.85,0-41.87-13.14t-15-42.87v-64.1H1591.6v-41h19.63V343.46h49.37v39.26h32.34v41H1660.6v64.67q0,7.23,3.47,10.4t11.54,3.17Z"/><path class="cls-5" d="M1157.38,713.52q-8.09,14.58-24.83,23.53T1091,746h-30.6v72.75H1011V616.08h80q24.26,0,41,8.37t25.12,23.1q8.37,14.72,8.37,33.78A65.36,65.36,0,0,1,1157.38,713.52Zm-49.08-13.43q6.93-6.63,6.93-18.76t-6.93-18.77q-6.93-6.64-21.08-6.64h-26.85v50.81h26.85Q1101.37,706.73,1108.3,700.09Z"/><path class="cls-5" d="M1262.18,663.57a55.82,55.82,0,0,1,28.87-7.65v52.26h-13.57q-18.48,0-27.72,7.94T1240.53,744v74.77h-49.38V657.65h49.38V684.5A65.12,65.12,0,0,1,1262.18,663.57Z"/><path class="cls-5" d="M1345.47,811a74,74,0,0,1-29.74-28.87q-10.82-18.76-10.82-43.89,0-24.83,11-43.74a74.48,74.48,0,0,1,30-29q19.06-10.11,42.73-10.11t42.73,10.11a74.5,74.5,0,0,1,30,29q11,18.91,11,43.74t-11.12,43.74a75.16,75.16,0,0,1-30.31,29q-19.2,10.11-42.87,10.1T1345.47,811Zm66.69-43q10-10.4,10-29.74t-9.67-29.74a32.81,32.81,0,0,0-47.78-.14q-9.53,10.24-9.53,29.88,0,19.35,9.39,29.74a30.34,30.34,0,0,0,23.53,10.39A32.16,32.16,0,0,0,1412.16,767.94Z"/><path class="cls-5" d="M1548,839.54q0,29.73-15,42.87t-41.87,13.14h-19.34V853.69h11.84c5.38,0,9.24-1.06,11.55-3.18s3.46-5.58,3.46-10.39V657.65H1548Zm-46-206.29a24.79,24.79,0,0,1-8.23-18.91,25.16,25.16,0,0,1,8.23-19.2q8.23-7.64,21.22-7.65,12.7,0,20.93,7.65a25.13,25.13,0,0,1,8.23,19.2,24.76,24.76,0,0,1-8.23,18.91q-8.22,7.66-20.93,7.66Q1510.18,640.91,1502,633.25Z"/><path class="cls-5" d="M1734.51,750H1622.78q1.14,15,9.67,23t20.93,7.94q18.46,0,25.69-15.59h52.55a72.55,72.55,0,0,1-41,48.5q-15.87,7.23-35.51,7.22-23.67,0-42.15-10.1a71.89,71.89,0,0,1-28.87-28.87q-10.39-18.76-10.4-43.89t10.25-43.88a71,71,0,0,1,28.73-28.87q18.48-10.11,42.44-10.11,23.39,0,41.58,9.82a70.48,70.48,0,0,1,28.43,28q10.25,18.2,10.25,42.44A125.41,125.41,0,0,1,1734.51,750Zm-49.66-27.43q0-12.71-8.66-20.21t-21.66-7.5q-12.4,0-20.93,7.21t-10.54,20.5Z"/><path class="cls-5" d="M1761.79,694.32a71.2,71.2,0,0,1,28.58-28.87q18.33-10.11,42-10.11,30.31,0,50.67,15.88T1909.76,716h-52.55q-6.64-18.47-25.7-18.48-13.56,0-21.65,10.54t-8.08,30.17q0,19.63,8.08,30.17t21.65,10.54q19.07,0,25.7-18.48h52.55q-6.36,28.3-26.85,44.46t-50.53,16.17q-23.67,0-42-10.1a71.2,71.2,0,0,1-28.58-28.87q-10.24-18.76-10.25-43.89T1761.79,694.32Z"/><path class="cls-5" d="M2025.82,776.89v41.86H2000.7q-26.85,0-41.86-13.13t-15-42.88V698.65h-19.63v-41h19.63V618.39h49.37v39.26h32.34v41h-32.34v64.67q0,7.21,3.47,10.39t11.55,3.18Z"/></svg>