<?xml version="1.0" encoding="UTF-8" standalone="no"?><!DOCTYPE svg PUBLIC "-//W3C//DTD SVG 1.1//EN" "http://www.w3.org/Graphics/SVG/1.1/DTD/svg11.dtd"><svg width="100%" height="100%" viewBox="0 0 10667 6000" version="1.1" xmlns="http://www.w3.org/2000/svg" xmlns:xlink="http://www.w3.org/1999/xlink" xml:space="preserve" xmlns:serif="http://www.serif.com/" style="fill-rule:evenodd;clip-rule:evenodd;stroke-linejoin:round;stroke-miterlimit:2;"><g transform="matrix(4.16667,0,0,4.16667,0,0)"><rect x="0" y="0" width="2560" height="1440" style="fill:#f9f3ff;"/><g transform="matrix(1.08296,0,0,1.08296,-319.884,517.06)"><g opacity="0.15"><g transform="matrix(1,0,0,1,386.217,167.722)"><path d="M0,-141.079l0,141.079c0,5.061 -4.1,9.171 -9.17,9.171l-30.17,-0l0,-17.601c0,-5.719 -4.63,-10.349 -10.35,-10.349c-5.71,-0 -10.35,4.63 -10.35,10.349l0,17.601l-39.34,-0l0,-17.601c0,-5.719 -4.63,-10.349 -10.35,-10.349c-5.72,-0 -10.35,4.63 -10.35,10.349l0,17.601l-30.17,-0c-5.06,-0 -9.17,-4.11 -9.17,-9.171l-0,-30.17l17.6,0c5.72,0 10.35,-4.639 10.35,-10.349c0,-5.72 -4.63,-10.35 -10.35,-10.35l-17.6,0l-0,-39.341l17.6,0c5.72,0 10.35,-4.64 10.35,-10.349c0,-5.72 -4.63,-10.361 -10.35,-10.361l-17.6,0l-0,-30.159c-0,-5.07 4.11,-9.171 9.17,-9.171l141.08,0c5.07,0 9.17,4.101 9.17,9.171" style="fill:#27a2fd;fill-rule:nonzero;"/></g><g transform="matrix(1,0,0,1,386.212,347.842)"><path d="M0,-141.08l0,141.08c0,5.07 -4.1,9.17 -9.17,9.17l-141.08,-0c-5.06,-0 -9.17,-4.1 -9.17,-9.17l-0,-30.17l17.6,0c5.72,0 10.35,-4.63 10.35,-10.349c0,-5.72 -4.63,-10.351 -10.35,-10.351l-17.6,0l-0,-39.34l17.6,0c5.72,0 10.35,-4.63 10.35,-10.349c0,-5.72 -4.63,-10.351 -10.35,-10.351l-17.6,0l-0,-30.17c-0,-5.06 4.11,-9.17 9.17,-9.17l30.17,0l0,17.601c0,5.719 4.63,10.349 10.35,10.349c5.72,-0 10.35,-4.63 10.35,-10.349l0,-17.601l39.34,0l0,17.601c0,5.719 4.64,10.349 10.35,10.349c5.72,-0 10.35,-4.63 10.35,-10.349l0,-17.601l30.17,0c5.07,0 9.17,4.11 9.17,9.17" style="fill:#34f;fill-rule:nonzero;"/></g><g transform="matrix(1,0,0,1,358.272,487.457)"><path d="M0,-60.04c0,5.71 4.64,10.35 10.35,10.35l17.6,0l-0,39.34l-17.6,0c-5.71,0 -10.35,4.63 -10.35,10.35c-0,5.71 4.64,10.35 10.35,10.35l17.6,0l-0,30.17c-0,5.06 -4.1,9.17 -9.17,9.17l-30.17,0l0,-17.6c0,-5.72 -4.63,-10.35 -10.35,-10.35c-5.71,0 -10.35,4.63 -10.35,10.35l0,17.6l-39.34,0l0,-17.6c0,-5.72 -4.63,-10.35 -10.35,-10.35c-5.72,0 -10.35,4.63 -10.35,10.35l0,17.6l-30.17,0c-5.06,0 -9.17,-4.11 -9.17,-9.17l0,-141.08c0,-5.07 4.11,-9.17 9.17,-9.17l141.08,0c5.07,0 9.17,4.1 9.17,9.17l-0,30.16l-17.6,0c-5.71,0 -10.35,4.64 -10.35,10.36" style="fill:#9722ff;fill-rule:nonzero;"/></g><g transform="matrix(1,0,0,1,538.402,487.457)"><path d="M0,-60.04c0,5.71 4.63,10.35 10.35,10.35l17.6,0l-0,39.34l-17.6,0c-5.72,0 -10.35,4.63 -10.35,10.35c-0,5.71 4.63,10.35 10.35,10.35l17.6,0l-0,30.17c-0,5.06 -4.11,9.17 -9.17,9.17l-141.08,0c-5.07,0 -9.17,-4.11 -9.17,-9.17l0,-30.17l17.59,0c5.72,0 10.36,-4.64 10.36,-10.35c0,-5.72 -4.64,-10.35 -10.36,-10.35l-17.59,0l0,-39.34l17.59,0c5.72,0 10.36,-4.64 10.36,-10.35c0,-5.72 -4.64,-10.36 -10.36,-10.36l-17.59,0l0,-30.16c0,-5.07 4.1,-9.17 9.17,-9.17l141.08,0c5.06,0 9.17,4.1 9.17,9.17l-0,30.16l-17.6,0c-5.72,0 -10.35,4.64 -10.35,10.36" style="fill:#dc29dd;fill-rule:nonzero;"/></g><g transform="matrix(1,0,0,1,746.472,527.977)"><path d="M0,-141.079l0,141.079c0,5.061 -4.1,9.171 -9.17,9.171l-30.17,-0l0,-17.601c0,-5.719 -4.63,-10.349 -10.35,-10.349c-5.71,-0 -10.35,4.63 -10.35,10.349l0,17.601l-39.34,-0l0,-17.601c0,-5.719 -4.63,-10.349 -10.35,-10.349c-5.72,-0 -10.35,4.63 -10.35,10.349l0,17.601l-30.17,-0c-5.06,-0 -9.17,-4.11 -9.17,-9.171l-0,-30.17l17.6,0c5.72,0 10.35,-4.639 10.35,-10.349c0,-5.72 -4.63,-10.35 -10.35,-10.35l-17.6,0l-0,-39.341l17.6,0c5.72,0 10.35,-4.64 10.35,-10.349c0,-5.72 -4.63,-10.361 -10.35,-10.361l-17.6,0l-0,-30.159c-0,-5.07 4.11,-9.171 9.17,-9.171l141.08,0c5.07,0 9.17,4.101 9.17,9.171" style="fill:#27a2fd;fill-rule:nonzero;"/></g><g transform="matrix(1,0,0,1,386.217,708.097)"><path d="M0,-141.08l0,141.08c0,5.07 -4.1,9.17 -9.17,9.17l-30.17,-0l0,-17.6c0,-5.71 -4.63,-10.349 -10.35,-10.349c-5.71,-0 -10.35,4.639 -10.35,10.349l0,17.6l-39.34,-0l0,-17.6c0,-5.71 -4.63,-10.349 -10.35,-10.349c-5.72,-0 -10.35,4.639 -10.35,10.349l0,17.6l-30.17,-0c-5.06,-0 -9.17,-4.1 -9.17,-9.17l-0,-141.08c-0,-5.06 4.11,-9.17 9.17,-9.17l30.17,0l0,17.601c0,5.719 4.63,10.349 10.35,10.349c5.72,-0 10.35,-4.63 10.35,-10.349l0,-17.601l39.34,0l0,17.601c0,5.719 4.64,10.349 10.35,10.349c5.72,-0 10.35,-4.63 10.35,-10.349l0,-17.601l30.17,0c5.07,0 9.17,4.11 9.17,9.17" style="fill:#dc29dd;fill-rule:nonzero;"/></g><g transform="matrix(1,0,0,1,538.402,667.576)"><path d="M0,-60.039c0,5.72 4.63,10.35 10.35,10.35l17.6,0l-0,39.339l-17.6,0c-5.72,0 -10.35,4.631 -10.35,10.351c-0,5.72 4.63,10.35 10.35,10.35l17.6,0l-0,30.17c-0,5.07 -4.11,9.169 -9.17,9.169l-30.17,0l0,-17.599c0,-5.71 -4.64,-10.35 -10.35,-10.35c-5.72,0 -10.35,4.64 -10.35,10.35l0,17.599l-39.34,0l0,-17.599c0,-5.71 -4.64,-10.35 -10.35,-10.35c-5.72,0 -10.36,4.64 -10.36,10.35l0,17.599l-30.16,0c-5.07,0 -9.17,-4.099 -9.17,-9.169l0,-141.081c0,-5.059 4.1,-9.169 9.17,-9.169l141.08,0c5.06,0 9.17,4.11 9.17,9.169l-0,30.17l-17.6,0c-5.72,0 -10.35,4.631 -10.35,10.351" style="fill:#27a2fd;fill-rule:nonzero;"/></g><g transform="matrix(1,0,0,1,358.267,847.707)"><path d="M0,-60.04c0,5.71 4.64,10.35 10.35,10.35l17.6,0l-0,39.33l-17.6,0c-5.71,0 -10.35,4.64 -10.35,10.36c-0,5.71 4.64,10.35 10.35,10.35l17.6,0l-0,30.17c-0,5.06 -4.1,9.17 -9.17,9.17l-141.08,0c-5.06,0 -9.17,-4.11 -9.17,-9.17l0,-141.08c0,-5.07 4.11,-9.17 9.17,-9.17l30.17,0l0,17.59c0,5.72 4.63,10.36 10.35,10.36c5.72,0 10.35,-4.64 10.35,-10.36l0,-17.59l39.34,0l0,17.59c0,5.72 4.64,10.36 10.35,10.36c5.72,0 10.35,-4.64 10.35,-10.36l0,-17.59l30.17,0c5.07,0 9.17,4.1 9.17,9.17l-0,30.16l-17.6,0c-5.71,0 -10.35,4.64 -10.35,10.36" style="fill:#9722ff;fill-rule:nonzero;"/></g><g transform="matrix(1,0,0,1,566.347,888.227)"><path d="M0,-141.079l0,141.079c0,5.061 -4.11,9.171 -9.17,9.171l-141.08,-0c-5.07,-0 -9.17,-4.11 -9.17,-9.171l-0,-30.17l17.59,0c5.72,0 10.36,-4.639 10.36,-10.349c-0,-5.72 -4.64,-10.361 -10.36,-10.361l-17.59,0l-0,-39.33l17.59,0c5.72,0 10.36,-4.64 10.36,-10.349c-0,-5.72 -4.64,-10.361 -10.36,-10.361l-17.59,0l-0,-30.159c-0,-5.07 4.1,-9.171 9.17,-9.171l30.16,0l0,17.591c0,5.72 4.64,10.359 10.36,10.359c5.71,-0 10.35,-4.639 10.35,-10.359l0,-17.591l39.34,0l0,17.591c0,5.72 4.63,10.359 10.35,10.359c5.71,-0 10.35,-4.639 10.35,-10.359l0,-17.591l30.17,0c5.06,0 9.17,4.101 9.17,9.171" style="fill:#34f;fill-rule:nonzero;"/></g><g transform="matrix(1,0,0,1,746.467,708.097)"><path d="M0,-141.08l0,141.08c0,5.07 -4.1,9.17 -9.17,9.17l-141.08,-0c-5.06,-0 -9.17,-4.1 -9.17,-9.17l-0,-30.17l17.6,0c5.72,0 10.35,-4.63 10.35,-10.349c0,-5.72 -4.63,-10.351 -10.35,-10.351l-17.6,0l-0,-39.34l17.6,0c5.72,0 10.35,-4.63 10.35,-10.349c0,-5.72 -4.63,-10.351 -10.35,-10.351l-17.6,0l-0,-30.17c-0,-5.06 4.11,-9.17 9.17,-9.17l30.17,0l0,17.601c0,5.719 4.63,10.349 10.35,10.349c5.72,-0 10.35,-4.63 10.35,-10.349l0,-17.601l39.34,0l0,17.601c0,5.719 4.64,10.349 10.35,10.349c5.72,-0 10.35,-4.63 10.35,-10.349l0,-17.601l30.17,0c5.07,0 9.17,4.11 9.17,9.17" style="fill:#34f;fill-rule:nonzero;"/></g><g transform="matrix(1,0,0,1,718.522,847.707)"><path d="M0,-60.04c0,5.71 4.64,10.35 10.35,10.35l17.6,0l-0,39.34l-17.6,0c-5.71,0 -10.35,4.63 -10.35,10.35c-0,5.71 4.64,10.35 10.35,10.35l17.6,0l-0,30.17c-0,5.06 -4.1,9.17 -9.17,9.17l-30.17,0l0,-17.6c0,-5.72 -4.63,-10.35 -10.35,-10.35c-5.71,0 -10.35,4.63 -10.35,10.35l0,17.6l-39.34,0l0,-17.6c0,-5.72 -4.63,-10.35 -10.35,-10.35c-5.72,0 -10.35,4.63 -10.35,10.35l0,17.6l-30.17,0c-5.06,0 -9.17,-4.11 -9.17,-9.17l0,-141.08c0,-5.07 4.11,-9.17 9.17,-9.17l141.08,0c5.07,0 9.17,4.1 9.17,9.17l-0,30.16l-17.6,0c-5.71,0 -10.35,4.64 -10.35,10.36" style="fill:#9722ff;fill-rule:nonzero;"/></g><g transform="matrix(1,0,0,1,898.652,847.707)"><path d="M0,-60.04c0,5.71 4.63,10.35 10.35,10.35l17.6,0l-0,39.34l-17.6,0c-5.72,0 -10.35,4.63 -10.35,10.35c-0,5.71 4.63,10.35 10.35,10.35l17.6,0l-0,30.17c-0,5.06 -4.11,9.17 -9.17,9.17l-141.08,0c-5.07,0 -9.17,-4.11 -9.17,-9.17l0,-30.17l17.59,0c5.72,0 10.36,-4.64 10.36,-10.35c0,-5.72 -4.64,-10.35 -10.36,-10.35l-17.59,0l0,-39.34l17.59,0c5.72,0 10.36,-4.64 10.36,-10.35c0,-5.72 -4.64,-10.36 -10.36,-10.36l-17.59,0l0,-30.16c0,-5.07 4.1,-9.17 9.17,-9.17l141.08,0c5.06,0 9.17,4.1 9.17,9.17l-0,30.16l-17.6,0c-5.72,0 -10.35,4.64 -10.35,10.36" style="fill:#dc29dd;fill-rule:nonzero;"/></g><g transform="matrix(1,0,0,1,1106.72,888.227)"><path d="M0,-141.079l0,141.079c0,5.061 -4.1,9.171 -9.17,9.171l-30.17,-0l0,-17.601c0,-5.719 -4.63,-10.349 -10.35,-10.349c-5.71,-0 -10.35,4.63 -10.35,10.349l0,17.601l-39.34,-0l0,-17.601c0,-5.719 -4.63,-10.349 -10.35,-10.349c-5.72,-0 -10.35,4.63 -10.35,10.349l0,17.601l-30.17,-0c-5.06,-0 -9.17,-4.11 -9.17,-9.171l-0,-30.17l17.6,0c5.72,0 10.35,-4.639 10.35,-10.349c0,-5.72 -4.63,-10.35 -10.35,-10.35l-17.6,0l-0,-39.341l17.6,0c5.72,0 10.35,-4.64 10.35,-10.349c0,-5.72 -4.63,-10.361 -10.35,-10.361l-17.6,0l-0,-30.159c-0,-5.07 4.11,-9.171 9.17,-9.171l141.08,0c5.07,0 9.17,4.101 9.17,9.171" style="fill:#27a2fd;fill-rule:nonzero;"/></g><g transform="matrix(1,0,0,1,2699.26,667.812)"><path d="M0,-60.04c0,5.71 4.64,10.35 10.35,10.35l17.6,0l-0,39.34l-17.6,0c-5.71,0 -10.35,4.63 -10.35,10.35c-0,5.71 4.64,10.35 10.35,10.35l17.6,0l-0,30.17c-0,5.06 -4.1,9.17 -9.17,9.17l-30.17,0l0,-17.6c0,-5.72 -4.63,-10.35 -10.35,-10.35c-5.71,0 -10.35,4.63 -10.35,10.35l0,17.6l-39.34,0l0,-17.6c0,-5.72 -4.63,-10.35 -10.35,-10.35c-5.72,0 -10.35,4.63 -10.35,10.35l0,17.6l-30.17,0c-5.06,0 -9.17,-4.11 -9.17,-9.17l0,-141.08c0,-5.07 4.11,-9.17 9.17,-9.17l141.08,0c5.07,0 9.17,4.1 9.17,9.17l-0,30.16l-17.6,0c-5.71,0 -10.35,4.64 -10.35,10.36" style="fill:#9722ff;fill-rule:nonzero;"/></g><g transform="matrix(1,0,0,1,2727.21,888.452)"><path d="M0,-141.08l0,141.08c0,5.07 -4.1,9.17 -9.17,9.17l-30.17,-0l0,-17.6c0,-5.71 -4.63,-10.349 -10.35,-10.349c-5.71,-0 -10.35,4.639 -10.35,10.349l0,17.6l-39.34,-0l0,-17.6c0,-5.71 -4.63,-10.349 -10.35,-10.349c-5.72,-0 -10.35,4.639 -10.35,10.349l0,17.6l-30.17,-0c-5.06,-0 -9.17,-4.1 -9.17,-9.17l-0,-141.08c-0,-5.06 4.11,-9.17 9.17,-9.17l30.17,0l0,17.601c0,5.719 4.63,10.349 10.35,10.349c5.72,-0 10.35,-4.63 10.35,-10.349l0,-17.601l39.34,0l0,17.601c0,5.719 4.64,10.349 10.35,10.349c5.72,-0 10.35,-4.63 10.35,-10.349l0,-17.601l30.17,0c5.07,0 9.17,4.11 9.17,9.17" style="fill:#dc29dd;fill-rule:nonzero;"/></g><g transform="matrix(1,0,0,1,1799.26,487.693)"><path d="M0,-60.04c0,5.71 4.64,10.35 10.35,10.35l17.6,0l-0,39.34l-17.6,0c-5.71,0 -10.35,4.63 -10.35,10.35c-0,5.71 4.64,10.35 10.35,10.35l17.6,0l-0,30.17c-0,5.06 -4.1,9.17 -9.17,9.17l-30.17,0l0,-17.6c0,-5.72 -4.63,-10.35 -10.35,-10.35c-5.71,0 -10.35,4.63 -10.35,10.35l0,17.6l-39.34,0l0,-17.6c0,-5.72 -4.63,-10.35 -10.35,-10.35c-5.72,0 -10.35,4.63 -10.35,10.35l0,17.6l-30.17,0c-5.06,0 -9.17,-4.11 -9.17,-9.17l0,-141.08c0,-5.07 4.11,-9.17 9.17,-9.17l141.08,0c5.07,0 9.17,4.1 9.17,9.17l-0,30.16l-17.6,0c-5.71,0 -10.35,4.64 -10.35,10.36" style="fill:#9722ff;fill-rule:nonzero;"/></g><g transform="matrix(1,0,0,1,1827.21,708.332)"><path d="M0,-141.08l0,141.08c0,5.07 -4.1,9.17 -9.17,9.17l-30.17,-0l0,-17.6c0,-5.71 -4.63,-10.349 -10.35,-10.349c-5.71,-0 -10.35,4.639 -10.35,10.349l0,17.6l-39.34,-0l0,-17.6c0,-5.71 -4.63,-10.349 -10.35,-10.349c-5.72,-0 -10.35,4.639 -10.35,10.349l0,17.6l-30.17,-0c-5.06,-0 -9.17,-4.1 -9.17,-9.17l-0,-141.08c-0,-5.06 4.11,-9.17 9.17,-9.17l30.17,0l0,17.601c0,5.719 4.63,10.349 10.35,10.349c5.72,-0 10.35,-4.63 10.35,-10.349l0,-17.601l39.34,0l0,17.601c0,5.719 4.64,10.349 10.35,10.349c5.72,-0 10.35,-4.63 10.35,-10.349l0,-17.601l30.17,0c5.07,0 9.17,4.11 9.17,9.17" style="fill:#dc29dd;fill-rule:nonzero;"/></g><g transform="matrix(1,0,0,1,1799.26,847.943)"><path d="M0,-60.04c0,5.71 4.64,10.35 10.35,10.35l17.6,0l-0,39.33l-17.6,0c-5.71,0 -10.35,4.64 -10.35,10.36c-0,5.71 4.64,10.35 10.35,10.35l17.6,0l-0,30.17c-0,5.06 -4.1,9.17 -9.17,9.17l-141.08,0c-5.06,0 -9.17,-4.11 -9.17,-9.17l0,-141.08c0,-5.07 4.11,-9.17 9.17,-9.17l30.17,0l0,17.59c0,5.72 4.63,10.36 10.35,10.36c5.72,0 10.35,-4.64 10.35,-10.36l0,-17.59l39.34,0l0,17.59c0,5.72 4.64,10.36 10.35,10.36c5.72,0 10.35,-4.64 10.35,-10.36l0,-17.59l30.17,0c5.07,0 9.17,4.1 9.17,9.17l-0,30.16l-17.6,0c-5.71,0 -10.35,4.64 -10.35,10.36" style="fill:#9722ff;fill-rule:nonzero;"/></g><g transform="matrix(1,0,0,1,1979.41,487.683)"><path d="M0,-60.04c0,5.71 4.63,10.35 10.35,10.35l17.6,0l-0,39.34l-17.6,0c-5.72,0 -10.35,4.63 -10.35,10.35c-0,5.71 4.63,10.35 10.35,10.35l17.6,0l-0,30.17c-0,5.06 -4.11,9.17 -9.17,9.17l-141.08,0c-5.07,0 -9.17,-4.11 -9.17,-9.17l0,-30.17l17.59,0c5.72,0 10.36,-4.64 10.36,-10.35c0,-5.72 -4.64,-10.35 -10.36,-10.35l-17.59,0l0,-39.34l17.59,0c5.72,0 10.36,-4.64 10.36,-10.35c0,-5.72 -4.64,-10.36 -10.36,-10.36l-17.59,0l0,-30.16c0,-5.07 4.1,-9.17 9.17,-9.17l141.08,0c5.06,0 9.17,4.1 9.17,9.17l-0,30.16l-17.6,0c-5.72,0 -10.35,4.64 -10.35,10.36" style="fill:#dc29dd;fill-rule:nonzero;"/></g><g transform="matrix(1,0,0,1,2187.48,528.202)"><path d="M0,-141.079l0,141.079c0,5.061 -4.1,9.171 -9.17,9.171l-30.17,-0l0,-17.601c0,-5.719 -4.63,-10.349 -10.35,-10.349c-5.71,-0 -10.35,4.63 -10.35,10.349l0,17.601l-39.34,-0l0,-17.601c0,-5.719 -4.63,-10.349 -10.35,-10.349c-5.72,-0 -10.35,4.63 -10.35,10.349l0,17.601l-30.17,-0c-5.06,-0 -9.17,-4.11 -9.17,-9.171l-0,-30.17l17.6,0c5.72,0 10.35,-4.639 10.35,-10.349c0,-5.72 -4.63,-10.35 -10.35,-10.35l-17.6,0l-0,-39.341l17.6,0c5.72,0 10.35,-4.64 10.35,-10.349c0,-5.72 -4.63,-10.361 -10.35,-10.361l-17.6,0l-0,-30.159c-0,-5.07 4.11,-9.171 9.17,-9.171l141.08,0c5.07,0 9.17,4.101 9.17,9.171" style="fill:#27a2fd;fill-rule:nonzero;"/></g><g transform="matrix(1,0,0,1,1979.41,667.802)"><path d="M0,-60.039c0,5.72 4.63,10.35 10.35,10.35l17.6,0l-0,39.339l-17.6,0c-5.72,0 -10.35,4.631 -10.35,10.351c-0,5.72 4.63,10.35 10.35,10.35l17.6,0l-0,30.17c-0,5.07 -4.11,9.169 -9.17,9.169l-30.17,0l0,-17.599c0,-5.71 -4.64,-10.35 -10.35,-10.35c-5.72,0 -10.35,4.64 -10.35,10.35l0,17.599l-39.34,0l0,-17.599c0,-5.71 -4.64,-10.35 -10.35,-10.35c-5.72,0 -10.36,4.64 -10.36,10.35l0,17.599l-30.16,0c-5.07,0 -9.17,-4.099 -9.17,-9.169l0,-141.081c0,-5.059 4.1,-9.169 9.17,-9.169l141.08,0c5.06,0 9.17,4.11 9.17,9.169l-0,30.17l-17.6,0c-5.72,0 -10.35,4.631 -10.35,10.351" style="fill:#27a2fd;fill-rule:nonzero;"/></g><g transform="matrix(1,0,0,1,2007.35,888.452)"><path d="M0,-141.079l0,141.079c0,5.061 -4.11,9.171 -9.17,9.171l-141.08,-0c-5.07,-0 -9.17,-4.11 -9.17,-9.171l-0,-30.17l17.59,0c5.72,0 10.36,-4.639 10.36,-10.349c-0,-5.72 -4.64,-10.361 -10.36,-10.361l-17.59,0l-0,-39.33l17.59,0c5.72,0 10.36,-4.64 10.36,-10.349c-0,-5.72 -4.64,-10.361 -10.36,-10.361l-17.59,0l-0,-30.159c-0,-5.07 4.1,-9.171 9.17,-9.171l30.16,0l0,17.591c0,5.72 4.64,10.359 10.36,10.359c5.71,-0 10.35,-4.639 10.35,-10.359l0,-17.591l39.34,0l0,17.591c0,5.72 4.63,10.359 10.35,10.359c5.71,-0 10.35,-4.639 10.35,-10.359l0,-17.591l30.17,0c5.06,0 9.17,4.101 9.17,9.171" style="fill:#34f;fill-rule:nonzero;"/></g><g transform="matrix(1,0,0,1,2187.47,708.323)"><path d="M0,-141.08l0,141.08c0,5.07 -4.1,9.17 -9.17,9.17l-141.08,-0c-5.06,-0 -9.17,-4.1 -9.17,-9.17l-0,-30.17l17.6,0c5.72,0 10.35,-4.63 10.35,-10.349c0,-5.72 -4.63,-10.351 -10.35,-10.351l-17.6,0l-0,-39.34l17.6,0c5.72,0 10.35,-4.63 10.35,-10.349c0,-5.72 -4.63,-10.351 -10.35,-10.351l-17.6,0l-0,-30.17c-0,-5.06 4.11,-9.17 9.17,-9.17l30.17,0l0,17.601c0,5.719 4.63,10.349 10.35,10.349c5.72,-0 10.35,-4.63 10.35,-10.349l0,-17.601l39.34,0l0,17.601c0,5.719 4.64,10.349 10.35,10.349c5.72,-0 10.35,-4.63 10.35,-10.349l0,-17.601l30.17,0c5.07,0 9.17,4.11 9.17,9.17" style="fill:#34f;fill-rule:nonzero;"/></g><g transform="matrix(1,0,0,1,2339.44,307.563)"><path d="M0,-60.04c0,5.71 4.64,10.35 10.35,10.35l17.6,0l-0,39.34l-17.6,0c-5.71,0 -10.35,4.63 -10.35,10.35c-0,5.71 4.64,10.35 10.35,10.35l17.6,0l-0,30.17c-0,5.06 -4.1,9.17 -9.17,9.17l-30.17,0l0,-17.6c0,-5.72 -4.63,-10.35 -10.35,-10.35c-5.71,0 -10.35,4.63 -10.35,10.35l0,17.6l-39.34,0l0,-17.6c0,-5.72 -4.63,-10.35 -10.35,-10.35c-5.72,0 -10.35,4.63 -10.35,10.35l0,17.6l-30.17,0c-5.06,0 -9.17,-4.11 -9.17,-9.17l0,-141.08c0,-5.07 4.11,-9.17 9.17,-9.17l141.08,0c5.07,0 9.17,4.1 9.17,9.17l-0,30.16l-17.6,0c-5.71,0 -10.35,4.64 -10.35,10.36" style="fill:#9722ff;fill-rule:nonzero;"/></g><g transform="matrix(1,0,0,1,2519.57,307.563)"><path d="M0,-60.04c0,5.71 4.63,10.35 10.35,10.35l17.6,0l-0,39.34l-17.6,0c-5.72,0 -10.35,4.63 -10.35,10.35c-0,5.71 4.63,10.35 10.35,10.35l17.6,0l-0,30.17c-0,5.06 -4.11,9.17 -9.17,9.17l-141.08,0c-5.07,0 -9.17,-4.11 -9.17,-9.17l0,-30.17l17.59,0c5.72,0 10.36,-4.64 10.36,-10.35c0,-5.72 -4.64,-10.35 -10.36,-10.35l-17.59,0l0,-39.34l17.59,0c5.72,0 10.36,-4.64 10.36,-10.35c0,-5.72 -4.64,-10.36 -10.36,-10.36l-17.59,0l0,-30.16c0,-5.07 4.1,-9.17 9.17,-9.17l141.08,0c5.06,0 9.17,4.1 9.17,9.17l-0,30.16l-17.6,0c-5.72,0 -10.35,4.64 -10.35,10.36" style="fill:#dc29dd;fill-rule:nonzero;"/></g><g transform="matrix(1,0,0,1,2727.64,348.082)"><path d="M0,-141.079l0,141.079c0,5.061 -4.1,9.171 -9.17,9.171l-30.17,-0l0,-17.601c0,-5.719 -4.63,-10.349 -10.35,-10.349c-5.71,-0 -10.35,4.63 -10.35,10.349l0,17.601l-39.34,-0l0,-17.601c0,-5.719 -4.63,-10.349 -10.35,-10.349c-5.72,-0 -10.35,4.63 -10.35,10.349l0,17.601l-30.17,-0c-5.06,-0 -9.17,-4.11 -9.17,-9.171l-0,-30.17l17.6,0c5.72,0 10.35,-4.639 10.35,-10.349c0,-5.72 -4.63,-10.35 -10.35,-10.35l-17.6,0l-0,-39.341l17.6,0c5.72,0 10.35,-4.64 10.35,-10.349c0,-5.72 -4.63,-10.361 -10.35,-10.361l-17.6,0l-0,-30.159c-0,-5.07 4.11,-9.171 9.17,-9.171l141.08,0c5.07,0 9.17,4.101 9.17,9.171" style="fill:#27a2fd;fill-rule:nonzero;"/></g><g transform="matrix(1,0,0,1,2367.39,528.202)"><path d="M0,-141.08l0,141.08c0,5.07 -4.1,9.17 -9.17,9.17l-30.17,-0l0,-17.6c0,-5.71 -4.63,-10.349 -10.35,-10.349c-5.71,-0 -10.35,4.639 -10.35,10.349l0,17.6l-39.34,-0l0,-17.6c0,-5.71 -4.63,-10.349 -10.35,-10.349c-5.72,-0 -10.35,4.639 -10.35,10.349l0,17.6l-30.17,-0c-5.06,-0 -9.17,-4.1 -9.17,-9.17l-0,-141.08c-0,-5.06 4.11,-9.17 9.17,-9.17l30.17,0l0,17.601c0,5.719 4.63,10.349 10.35,10.349c5.72,-0 10.35,-4.63 10.35,-10.349l0,-17.601l39.34,0l0,17.601c0,5.719 4.64,10.349 10.35,10.349c5.72,-0 10.35,-4.63 10.35,-10.349l0,-17.601l30.17,0c5.07,0 9.17,4.11 9.17,9.17" style="fill:#dc29dd;fill-rule:nonzero;"/></g><g transform="matrix(1,0,0,1,2519.57,487.682)"><path d="M0,-60.039c0,5.72 4.63,10.35 10.35,10.35l17.6,0l-0,39.339l-17.6,0c-5.72,0 -10.35,4.631 -10.35,10.351c-0,5.72 4.63,10.35 10.35,10.35l17.6,0l-0,30.17c-0,5.07 -4.11,9.169 -9.17,9.169l-30.17,0l0,-17.599c0,-5.71 -4.64,-10.35 -10.35,-10.35c-5.72,0 -10.35,4.64 -10.35,10.35l0,17.599l-39.34,0l0,-17.599c0,-5.71 -4.64,-10.35 -10.35,-10.35c-5.72,0 -10.36,4.64 -10.36,10.35l0,17.599l-30.16,0c-5.07,0 -9.17,-4.099 -9.17,-9.169l0,-141.081c0,-5.059 4.1,-9.169 9.17,-9.169l141.08,0c5.06,0 9.17,4.11 9.17,9.169l-0,30.17l-17.6,0c-5.72,0 -10.35,4.631 -10.35,10.351" style="fill:#27a2fd;fill-rule:nonzero;"/></g><g transform="matrix(1,0,0,1,2339.44,667.813)"><path d="M0,-60.04c0,5.71 4.64,10.35 10.35,10.35l17.6,0l-0,39.33l-17.6,0c-5.71,0 -10.35,4.64 -10.35,10.36c-0,5.71 4.64,10.35 10.35,10.35l17.6,0l-0,30.17c-0,5.06 -4.1,9.17 -9.17,9.17l-141.08,0c-5.06,0 -9.17,-4.11 -9.17,-9.17l0,-141.08c0,-5.07 4.11,-9.17 9.17,-9.17l30.17,0l0,17.59c0,5.72 4.63,10.36 10.35,10.36c5.72,0 10.35,-4.64 10.35,-10.36l0,-17.59l39.34,0l0,17.59c0,5.72 4.64,10.36 10.35,10.36c5.72,0 10.35,-4.64 10.35,-10.36l0,-17.59l30.17,0c5.07,0 9.17,4.1 9.17,9.17l-0,30.16l-17.6,0c-5.71,0 -10.35,4.64 -10.35,10.36" style="fill:#9722ff;fill-rule:nonzero;"/></g><g transform="matrix(1,0,0,1,2547.52,708.332)"><path d="M0,-141.079l0,141.079c0,5.061 -4.11,9.171 -9.17,9.171l-141.08,-0c-5.07,-0 -9.17,-4.11 -9.17,-9.171l-0,-30.17l17.59,0c5.72,0 10.36,-4.639 10.36,-10.349c-0,-5.72 -4.64,-10.361 -10.36,-10.361l-17.59,0l-0,-39.33l17.59,0c5.72,0 10.36,-4.64 10.36,-10.349c-0,-5.72 -4.64,-10.361 -10.36,-10.361l-17.59,0l-0,-30.159c-0,-5.07 4.1,-9.171 9.17,-9.171l30.16,0l0,17.591c0,5.72 4.64,10.359 10.36,10.359c5.71,-0 10.35,-4.639 10.35,-10.359l0,-17.591l39.34,0l0,17.591c0,5.72 4.63,10.359 10.35,10.359c5.71,-0 10.35,-4.639 10.35,-10.359l0,-17.591l30.17,0c5.06,0 9.17,4.101 9.17,9.171" style="fill:#34f;fill-rule:nonzero;"/></g><g transform="matrix(1,0,0,1,2727.64,528.202)"><path d="M0,-141.08l0,141.08c0,5.07 -4.1,9.17 -9.17,9.17l-141.08,-0c-5.06,-0 -9.17,-4.1 -9.17,-9.17l-0,-30.17l17.6,0c5.72,0 10.35,-4.63 10.35,-10.349c0,-5.72 -4.63,-10.351 -10.35,-10.351l-17.6,0l-0,-39.34l17.6,0c5.72,0 10.35,-4.63 10.35,-10.349c0,-5.72 -4.63,-10.351 -10.35,-10.351l-17.6,0l-0,-30.17c-0,-5.06 4.11,-9.17 9.17,-9.17l30.17,0l0,17.601c0,5.719 4.63,10.349 10.35,10.349c5.72,-0 10.35,-4.63 10.35,-10.349l0,-17.601l39.34,0l0,17.601c0,5.719 4.64,10.349 10.35,10.349c5.72,-0 10.35,-4.63 10.35,-10.349l0,-17.601l30.17,0c5.07,0 9.17,4.11 9.17,9.17" style="fill:#34f;fill-rule:nonzero;"/></g><g transform="matrix(1,0,0,1,746.462,-372.417)"><path d="M0,-141.08l0,141.08c0,5.07 -4.1,9.17 -9.17,9.17l-30.17,-0l0,-17.6c0,-5.71 -4.63,-10.349 -10.35,-10.349c-5.71,-0 -10.35,4.639 -10.35,10.349l0,17.6l-39.34,-0l0,-17.6c0,-5.71 -4.63,-10.349 -10.35,-10.349c-5.72,-0 -10.35,4.639 -10.35,10.349l0,17.6l-30.17,-0c-5.06,-0 -9.17,-4.1 -9.17,-9.17l-0,-141.08c-0,-5.06 4.11,-9.17 9.17,-9.17l30.17,0l0,17.601c0,5.719 4.63,10.349 10.35,10.349c5.72,-0 10.35,-4.63 10.35,-10.349l0,-17.601l39.34,0l0,17.601c0,5.719 4.64,10.349 10.35,10.349c5.72,-0 10.35,-4.63 10.35,-10.349l0,-17.601l30.17,0c5.07,0 9.17,4.11 9.17,9.17" style="fill:#dc29dd;fill-rule:nonzero;"/></g><g transform="matrix(1,0,0,1,898.647,-412.938)"><path d="M0,-60.039c0,5.72 4.63,10.35 10.35,10.35l17.6,0l-0,39.339l-17.6,0c-5.72,0 -10.35,4.631 -10.35,10.351c-0,5.72 4.63,10.35 10.35,10.35l17.6,0l-0,30.17c-0,5.07 -4.11,9.169 -9.17,9.169l-30.17,0l0,-17.599c0,-5.71 -4.64,-10.35 -10.35,-10.35c-5.72,0 -10.35,4.64 -10.35,10.35l0,17.599l-39.34,0l0,-17.599c0,-5.71 -4.64,-10.35 -10.35,-10.35c-5.72,0 -10.36,4.64 -10.36,10.35l0,17.599l-30.16,0c-5.07,0 -9.17,-4.099 -9.17,-9.169l0,-141.081c0,-5.059 4.1,-9.169 9.17,-9.169l141.08,0c5.06,0 9.17,4.11 9.17,9.169l-0,30.17l-17.6,0c-5.72,0 -10.35,4.631 -10.35,10.351" style="fill:#27a2fd;fill-rule:nonzero;"/></g><g transform="matrix(1,0,0,1,718.512,-232.807)"><path d="M0,-60.04c0,5.71 4.64,10.35 10.35,10.35l17.6,0l-0,39.33l-17.6,0c-5.71,0 -10.35,4.64 -10.35,10.36c-0,5.71 4.64,10.35 10.35,10.35l17.6,0l-0,30.17c-0,5.06 -4.1,9.17 -9.17,9.17l-141.08,0c-5.06,0 -9.17,-4.11 -9.17,-9.17l0,-141.08c0,-5.07 4.11,-9.17 9.17,-9.17l30.17,0l0,17.59c0,5.72 4.63,10.36 10.35,10.36c5.72,0 10.35,-4.64 10.35,-10.36l0,-17.59l39.34,0l0,17.59c0,5.72 4.64,10.36 10.35,10.36c5.72,0 10.35,-4.64 10.35,-10.36l0,-17.59l30.17,0c5.07,0 9.17,4.1 9.17,9.17l-0,30.16l-17.6,0c-5.71,0 -10.35,4.64 -10.35,10.36" style="fill:#9722ff;fill-rule:nonzero;"/></g><g transform="matrix(1,0,0,1,1106.71,-372.417)"><path d="M0,-141.08l0,141.08c0,5.07 -4.1,9.17 -9.17,9.17l-141.08,-0c-5.06,-0 -9.17,-4.1 -9.17,-9.17l-0,-30.17l17.6,0c5.72,0 10.35,-4.63 10.35,-10.349c0,-5.72 -4.63,-10.351 -10.35,-10.351l-17.6,0l-0,-39.34l17.6,0c5.72,0 10.35,-4.63 10.35,-10.349c0,-5.72 -4.63,-10.351 -10.35,-10.351l-17.6,0l-0,-30.17c-0,-5.06 4.11,-9.17 9.17,-9.17l30.17,0l0,17.601c0,5.719 4.63,10.349 10.35,10.349c5.72,-0 10.35,-4.63 10.35,-10.349l0,-17.601l39.34,0l0,17.601c0,5.719 4.64,10.349 10.35,10.349c5.72,-0 10.35,-4.63 10.35,-10.349l0,-17.601l30.17,0c5.07,0 9.17,4.11 9.17,9.17" style="fill:#34f;fill-rule:nonzero;"/></g><g transform="matrix(1,0,0,1,926.592,-192.287)"><path d="M0,-141.079l0,141.079c0,5.061 -4.11,9.171 -9.17,9.171l-141.08,-0c-5.07,-0 -9.17,-4.11 -9.17,-9.171l-0,-30.17l17.59,0c5.72,0 10.36,-4.639 10.36,-10.349c-0,-5.72 -4.64,-10.361 -10.36,-10.361l-17.59,0l-0,-39.33l17.59,0c5.72,0 10.36,-4.64 10.36,-10.349c-0,-5.72 -4.64,-10.361 -10.36,-10.361l-17.59,0l-0,-30.159c-0,-5.07 4.1,-9.171 9.17,-9.171l30.16,0l0,17.591c0,5.72 4.64,10.359 10.36,10.359c5.71,-0 10.35,-4.639 10.35,-10.359l0,-17.591l39.34,0l0,17.591c0,5.72 4.63,10.359 10.35,10.359c5.71,-0 10.35,-4.639 10.35,-10.359l0,-17.591l30.17,0c5.06,0 9.17,4.101 9.17,9.171" style="fill:#34f;fill-rule:nonzero;"/></g><g transform="matrix(1,0,0,1,1078.77,-232.807)"><path d="M0,-60.04c0,5.71 4.64,10.35 10.35,10.35l17.6,0l-0,39.34l-17.6,0c-5.71,0 -10.35,4.63 -10.35,10.35c-0,5.71 4.64,10.35 10.35,10.35l17.6,0l-0,30.17c-0,5.06 -4.1,9.17 -9.17,9.17l-30.17,0l0,-17.6c0,-5.72 -4.63,-10.35 -10.35,-10.35c-5.71,0 -10.35,4.63 -10.35,10.35l0,17.6l-39.34,0l0,-17.6c0,-5.72 -4.63,-10.35 -10.35,-10.35c-5.72,0 -10.35,4.63 -10.35,10.35l0,17.6l-30.17,0c-5.06,0 -9.17,-4.11 -9.17,-9.17l0,-141.08c0,-5.07 4.11,-9.17 9.17,-9.17l141.08,0c5.07,0 9.17,4.1 9.17,9.17l-0,30.16l-17.6,0c-5.71,0 -10.35,4.64 -10.35,10.36" style="fill:#9722ff;fill-rule:nonzero;"/></g><g transform="matrix(1,0,0,1,1258.9,-232.807)"><path d="M0,-60.04c0,5.71 4.63,10.35 10.35,10.35l17.6,0l-0,39.34l-17.6,0c-5.72,0 -10.35,4.63 -10.35,10.35c-0,5.71 4.63,10.35 10.35,10.35l17.6,0l-0,30.17c-0,5.06 -4.11,9.17 -9.17,9.17l-141.08,0c-5.07,0 -9.17,-4.11 -9.17,-9.17l0,-30.17l17.59,0c5.72,0 10.36,-4.64 10.36,-10.35c0,-5.72 -4.64,-10.35 -10.36,-10.35l-17.59,0l0,-39.34l17.59,0c5.72,0 10.36,-4.64 10.36,-10.35c0,-5.72 -4.64,-10.36 -10.36,-10.36l-17.59,0l0,-30.16c0,-5.07 4.1,-9.17 9.17,-9.17l141.08,0c5.06,0 9.17,4.1 9.17,9.17l-0,30.16l-17.6,0c-5.72,0 -10.35,4.64 -10.35,10.36" style="fill:#dc29dd;fill-rule:nonzero;"/></g><g transform="matrix(1,0,0,1,1466.97,-192.287)"><path d="M0,-141.079l0,141.079c0,5.061 -4.1,9.171 -9.17,9.171l-30.17,-0l0,-17.601c0,-5.719 -4.63,-10.349 -10.35,-10.349c-5.71,-0 -10.35,4.63 -10.35,10.349l0,17.601l-39.34,-0l0,-17.601c0,-5.719 -4.63,-10.349 -10.35,-10.349c-5.72,-0 -10.35,4.63 -10.35,10.349l0,17.601l-30.17,-0c-5.06,-0 -9.17,-4.11 -9.17,-9.171l-0,-30.17l17.6,0c5.72,0 10.35,-4.639 10.35,-10.349c0,-5.72 -4.63,-10.35 -10.35,-10.35l-17.6,0l-0,-39.341l17.6,0c5.72,0 10.35,-4.64 10.35,-10.349c0,-5.72 -4.63,-10.361 -10.35,-10.361l-17.6,0l-0,-30.159c-0,-5.07 4.11,-9.171 9.17,-9.171l141.08,0c5.07,0 9.17,4.101 9.17,9.171" style="fill:#27a2fd;fill-rule:nonzero;"/></g><g transform="matrix(1,0,0,1,1106.71,-12.1673)"><path d="M0,-141.08l0,141.08c0,5.07 -4.1,9.17 -9.17,9.17l-30.17,-0l0,-17.6c0,-5.71 -4.63,-10.349 -10.35,-10.349c-5.71,-0 -10.35,4.639 -10.35,10.349l0,17.6l-39.34,-0l0,-17.6c0,-5.71 -4.63,-10.349 -10.35,-10.349c-5.72,-0 -10.35,4.639 -10.35,10.349l0,17.6l-30.17,-0c-5.06,-0 -9.17,-4.1 -9.17,-9.17l-0,-141.08c-0,-5.06 4.11,-9.17 9.17,-9.17l30.17,0l0,17.601c0,5.719 4.63,10.349 10.35,10.349c5.72,-0 10.35,-4.63 10.35,-10.349l0,-17.601l39.34,0l0,17.601c0,5.719 4.64,10.349 10.35,10.349c5.72,-0 10.35,-4.63 10.35,-10.349l0,-17.601l30.17,0c5.07,0 9.17,4.11 9.17,9.17" style="fill:#dc29dd;fill-rule:nonzero;"/></g><g transform="matrix(1,0,0,1,1258.9,-52.6878)"><path d="M0,-60.039c0,5.72 4.63,10.35 10.35,10.35l17.6,0l-0,39.339l-17.6,0c-5.72,0 -10.35,4.631 -10.35,10.351c-0,5.72 4.63,10.35 10.35,10.35l17.6,0l-0,30.17c-0,5.07 -4.11,9.169 -9.17,9.169l-30.17,0l0,-17.599c0,-5.71 -4.64,-10.35 -10.35,-10.35c-5.72,0 -10.35,4.64 -10.35,10.35l0,17.599l-39.34,0l0,-17.599c0,-5.71 -4.64,-10.35 -10.35,-10.35c-5.72,0 -10.36,4.64 -10.36,10.35l0,17.599l-30.16,0c-5.07,0 -9.17,-4.099 -9.17,-9.169l0,-141.081c0,-5.059 4.1,-9.169 9.17,-9.169l141.08,0c5.06,0 9.17,4.11 9.17,9.169l-0,30.17l-17.6,0c-5.72,0 -10.35,4.631 -10.35,10.351" style="fill:#27a2fd;fill-rule:nonzero;"/></g><g transform="matrix(1,0,0,1,1078.76,127.443)"><path d="M0,-60.04c0,5.71 4.64,10.35 10.35,10.35l17.6,0l-0,39.33l-17.6,0c-5.71,0 -10.35,4.64 -10.35,10.36c-0,5.71 4.64,10.35 10.35,10.35l17.6,0l-0,30.17c-0,5.06 -4.1,9.17 -9.17,9.17l-141.08,0c-5.06,0 -9.17,-4.11 -9.17,-9.17l0,-141.08c0,-5.07 4.11,-9.17 9.17,-9.17l30.17,0l0,17.59c0,5.72 4.63,10.36 10.35,10.36c5.72,0 10.35,-4.64 10.35,-10.36l0,-17.59l39.34,0l0,17.59c0,5.72 4.64,10.36 10.35,10.36c5.72,0 10.35,-4.64 10.35,-10.36l0,-17.59l30.17,0c5.07,0 9.17,4.1 9.17,9.17l-0,30.16l-17.6,0c-5.71,0 -10.35,4.64 -10.35,10.36" style="fill:#9722ff;fill-rule:nonzero;"/></g><g transform="matrix(1,0,0,1,1466.96,-12.1673)"><path d="M0,-141.08l0,141.08c0,5.07 -4.1,9.17 -9.17,9.17l-141.08,-0c-5.06,-0 -9.17,-4.1 -9.17,-9.17l-0,-30.17l17.6,0c5.72,0 10.35,-4.63 10.35,-10.349c0,-5.72 -4.63,-10.351 -10.35,-10.351l-17.6,0l-0,-39.34l17.6,0c5.72,0 10.35,-4.63 10.35,-10.349c0,-5.72 -4.63,-10.351 -10.35,-10.351l-17.6,0l-0,-30.17c-0,-5.06 4.11,-9.17 9.17,-9.17l30.17,0l0,17.601c0,5.719 4.63,10.349 10.35,10.349c5.72,-0 10.35,-4.63 10.35,-10.349l0,-17.601l39.34,0l0,17.601c0,5.719 4.64,10.349 10.35,10.349c5.72,-0 10.35,-4.63 10.35,-10.349l0,-17.601l30.17,0c5.07,0 9.17,4.11 9.17,9.17" style="fill:#34f;fill-rule:nonzero;"/></g><g transform="matrix(1,0,0,1,1286.84,167.963)"><path d="M0,-141.079l0,141.079c0,5.061 -4.11,9.171 -9.17,9.171l-141.08,-0c-5.07,-0 -9.17,-4.11 -9.17,-9.171l-0,-30.17l17.59,0c5.72,0 10.36,-4.639 10.36,-10.349c-0,-5.72 -4.64,-10.361 -10.36,-10.361l-17.59,0l-0,-39.33l17.59,0c5.72,0 10.36,-4.64 10.36,-10.349c-0,-5.72 -4.64,-10.361 -10.36,-10.361l-17.59,0l-0,-30.159c-0,-5.07 4.1,-9.171 9.17,-9.171l30.16,0l0,17.591c0,5.72 4.64,10.359 10.36,10.359c5.71,-0 10.35,-4.639 10.35,-10.359l0,-17.591l39.34,0l0,17.591c0,5.72 4.63,10.359 10.35,10.359c5.71,-0 10.35,-4.639 10.35,-10.359l0,-17.591l30.17,0c5.06,0 9.17,4.101 9.17,9.171" style="fill:#34f;fill-rule:nonzero;"/></g><g transform="matrix(1,0,0,1,1439.02,127.443)"><path d="M0,-60.04c0,5.71 4.64,10.35 10.35,10.35l17.6,0l-0,39.34l-17.6,0c-5.71,0 -10.35,4.63 -10.35,10.35c-0,5.71 4.64,10.35 10.35,10.35l17.6,0l-0,30.17c-0,5.06 -4.1,9.17 -9.17,9.17l-30.17,0l0,-17.6c0,-5.72 -4.63,-10.35 -10.35,-10.35c-5.71,0 -10.35,4.63 -10.35,10.35l0,17.6l-39.34,0l0,-17.6c0,-5.72 -4.63,-10.35 -10.35,-10.35c-5.72,0 -10.35,4.63 -10.35,10.35l0,17.6l-30.17,0c-5.06,0 -9.17,-4.11 -9.17,-9.17l0,-141.08c0,-5.07 4.11,-9.17 9.17,-9.17l141.08,0c5.07,0 9.17,4.1 9.17,9.17l-0,30.16l-17.6,0c-5.71,0 -10.35,4.64 -10.35,10.36" style="fill:#9722ff;fill-rule:nonzero;"/></g><g transform="matrix(1,0,0,1,1619.15,127.443)"><path d="M0,-60.04c0,5.71 4.63,10.35 10.35,10.35l17.6,0l-0,39.34l-17.6,0c-5.72,0 -10.35,4.63 -10.35,10.35c-0,5.71 4.63,10.35 10.35,10.35l17.6,0l-0,30.17c-0,5.06 -4.11,9.17 -9.17,9.17l-141.08,0c-5.07,0 -9.17,-4.11 -9.17,-9.17l0,-30.17l17.59,0c5.72,0 10.36,-4.64 10.36,-10.35c0,-5.72 -4.64,-10.35 -10.36,-10.35l-17.59,0l0,-39.34l17.59,0c5.72,0 10.36,-4.64 10.36,-10.35c0,-5.72 -4.64,-10.36 -10.36,-10.36l-17.59,0l0,-30.16c0,-5.07 4.1,-9.17 9.17,-9.17l141.08,0c5.06,0 9.17,4.1 9.17,9.17l-0,30.16l-17.6,0c-5.72,0 -10.35,4.64 -10.35,10.36" style="fill:#dc29dd;fill-rule:nonzero;"/></g><g transform="matrix(1,0,0,1,1827.22,167.963)"><path d="M0,-141.079l0,141.079c0,5.061 -4.1,9.171 -9.17,9.171l-30.17,-0l0,-17.601c0,-5.719 -4.63,-10.349 -10.35,-10.349c-5.71,-0 -10.35,4.63 -10.35,10.349l0,17.601l-39.34,-0l0,-17.601c0,-5.719 -4.63,-10.349 -10.35,-10.349c-5.72,-0 -10.35,4.63 -10.35,10.349l0,17.601l-30.17,-0c-5.06,-0 -9.17,-4.11 -9.17,-9.171l-0,-30.17l17.6,0c5.72,0 10.35,-4.639 10.35,-10.349c0,-5.72 -4.63,-10.35 -10.35,-10.35l-17.6,0l-0,-39.341l17.6,0c5.72,0 10.35,-4.64 10.35,-10.349c0,-5.72 -4.63,-10.361 -10.35,-10.361l-17.6,0l-0,-30.159c-0,-5.07 4.11,-9.171 9.17,-9.171l141.08,0c5.07,0 9.17,4.101 9.17,9.171" style="fill:#27a2fd;fill-rule:nonzero;"/></g><g transform="matrix(1,0,0,1,1466.96,348.083)"><path d="M0,-141.08l0,141.08c0,5.07 -4.1,9.17 -9.17,9.17l-30.17,-0l0,-17.6c0,-5.71 -4.63,-10.349 -10.35,-10.349c-5.71,-0 -10.35,4.639 -10.35,10.349l0,17.6l-39.34,-0l0,-17.6c0,-5.71 -4.63,-10.349 -10.35,-10.349c-5.72,-0 -10.35,4.639 -10.35,10.349l0,17.6l-30.17,-0c-5.06,-0 -9.17,-4.1 -9.17,-9.17l-0,-141.08c-0,-5.06 4.11,-9.17 9.17,-9.17l30.17,0l0,17.601c0,5.719 4.63,10.349 10.35,10.349c5.72,-0 10.35,-4.63 10.35,-10.349l0,-17.601l39.34,0l0,17.601c0,5.719 4.64,10.349 10.35,10.349c5.72,-0 10.35,-4.63 10.35,-10.349l0,-17.601l30.17,0c5.07,0 9.17,4.11 9.17,9.17" style="fill:#dc29dd;fill-rule:nonzero;"/></g><g transform="matrix(1,0,0,1,1619.15,307.562)"><path d="M0,-60.039c0,5.72 4.63,10.35 10.35,10.35l17.6,0l-0,39.339l-17.6,0c-5.72,0 -10.35,4.631 -10.35,10.351c-0,5.72 4.63,10.35 10.35,10.35l17.6,0l-0,30.17c-0,5.07 -4.11,9.169 -9.17,9.169l-30.17,0l0,-17.599c0,-5.71 -4.64,-10.35 -10.35,-10.35c-5.72,0 -10.35,4.64 -10.35,10.35l0,17.599l-39.34,0l0,-17.599c0,-5.71 -4.64,-10.35 -10.35,-10.35c-5.72,0 -10.36,4.64 -10.36,10.35l0,17.599l-30.16,0c-5.07,0 -9.17,-4.099 -9.17,-9.169l0,-141.081c0,-5.059 4.1,-9.169 9.17,-9.169l141.08,0c5.06,0 9.17,4.11 9.17,9.169l-0,30.17l-17.6,0c-5.72,0 -10.35,4.631 -10.35,10.351" style="fill:#27a2fd;fill-rule:nonzero;"/></g><g transform="matrix(1,0,0,1,1439.01,487.693)"><path d="M0,-60.04c0,5.71 4.64,10.35 10.35,10.35l17.6,0l-0,39.33l-17.6,0c-5.71,0 -10.35,4.64 -10.35,10.36c-0,5.71 4.64,10.35 10.35,10.35l17.6,0l-0,30.17c-0,5.06 -4.1,9.17 -9.17,9.17l-141.08,0c-5.06,0 -9.17,-4.11 -9.17,-9.17l0,-141.08c0,-5.07 4.11,-9.17 9.17,-9.17l30.17,0l0,17.59c0,5.72 4.63,10.36 10.35,10.36c5.72,0 10.35,-4.64 10.35,-10.36l0,-17.59l39.34,0l0,17.59c0,5.72 4.64,10.36 10.35,10.36c5.72,0 10.35,-4.64 10.35,-10.36l0,-17.59l30.17,0c5.07,0 9.17,4.1 9.17,9.17l-0,30.16l-17.6,0c-5.71,0 -10.35,4.64 -10.35,10.36" style="fill:#9722ff;fill-rule:nonzero;"/></g><g transform="matrix(1,0,0,1,1827.21,348.083)"><path d="M0,-141.08l0,141.08c0,5.07 -4.1,9.17 -9.17,9.17l-141.08,-0c-5.06,-0 -9.17,-4.1 -9.17,-9.17l-0,-30.17l17.6,0c5.72,0 10.35,-4.63 10.35,-10.349c0,-5.72 -4.63,-10.351 -10.35,-10.351l-17.6,0l-0,-39.34l17.6,0c5.72,0 10.35,-4.63 10.35,-10.349c0,-5.72 -4.63,-10.351 -10.35,-10.351l-17.6,0l-0,-30.17c-0,-5.06 4.11,-9.17 9.17,-9.17l30.17,0l0,17.601c0,5.719 4.63,10.349 10.35,10.349c5.72,-0 10.35,-4.63 10.35,-10.349l0,-17.601l39.34,0l0,17.601c0,5.719 4.64,10.349 10.35,10.349c5.72,-0 10.35,-4.63 10.35,-10.349l0,-17.601l30.17,0c5.07,0 9.17,4.11 9.17,9.17" style="fill:#34f;fill-rule:nonzero;"/></g><g transform="matrix(1,0,0,1,1647.09,528.213)"><path d="M0,-141.079l0,141.079c0,5.061 -4.11,9.171 -9.17,9.171l-141.08,-0c-5.07,-0 -9.17,-4.11 -9.17,-9.171l-0,-30.17l17.59,0c5.72,0 10.36,-4.639 10.36,-10.349c-0,-5.72 -4.64,-10.361 -10.36,-10.361l-17.59,0l-0,-39.33l17.59,0c5.72,0 10.36,-4.64 10.36,-10.349c-0,-5.72 -4.64,-10.361 -10.36,-10.361l-17.59,0l-0,-30.159c-0,-5.07 4.1,-9.171 9.17,-9.171l30.16,0l0,17.591c0,5.72 4.64,10.359 10.36,10.359c5.71,-0 10.35,-4.639 10.35,-10.359l0,-17.591l39.34,0l0,17.591c0,5.72 4.63,10.359 10.35,10.359c5.71,-0 10.35,-4.639 10.35,-10.359l0,-17.591l30.17,0c5.06,0 9.17,4.101 9.17,9.171" style="fill:#34f;fill-rule:nonzero;"/></g><g transform="matrix(1,0,0,1,1258.9,-412.937)"><path d="M0,-60.04c0,5.71 4.64,10.35 10.35,10.35l17.6,0l-0,39.33l-17.6,0c-5.71,0 -10.35,4.64 -10.35,10.36c-0,5.71 4.64,10.35 10.35,10.35l17.6,0l-0,30.17c-0,5.06 -4.1,9.17 -9.17,9.17l-141.08,0c-5.06,0 -9.17,-4.11 -9.17,-9.17l0,-141.08c0,-5.07 4.11,-9.17 9.17,-9.17l30.17,0l0,17.59c0,5.72 4.63,10.36 10.35,10.36c5.72,0 10.35,-4.64 10.35,-10.36l0,-17.59l39.34,0l0,17.59c0,5.72 4.64,10.36 10.35,10.36c5.72,0 10.35,-4.64 10.35,-10.36l0,-17.59l30.17,0c5.07,0 9.17,4.1 9.17,9.17l-0,30.16l-17.6,0c-5.71,0 -10.35,4.64 -10.35,10.36" style="fill:#9722ff;fill-rule:nonzero;"/></g><g transform="matrix(1,0,0,1,1466.98,-372.418)"><path d="M0,-141.079l0,141.079c0,5.061 -4.11,9.171 -9.17,9.171l-141.08,-0c-5.07,-0 -9.17,-4.11 -9.17,-9.171l-0,-30.17l17.59,0c5.72,0 10.36,-4.639 10.36,-10.349c-0,-5.72 -4.64,-10.361 -10.36,-10.361l-17.59,0l-0,-39.33l17.59,0c5.72,0 10.36,-4.64 10.36,-10.349c-0,-5.72 -4.64,-10.361 -10.36,-10.361l-17.59,0l-0,-30.159c-0,-5.07 4.1,-9.171 9.17,-9.171l30.16,0l0,17.591c0,5.72 4.64,10.359 10.36,10.359c5.71,-0 10.35,-4.639 10.35,-10.359l0,-17.591l39.34,0l0,17.591c0,5.72 4.63,10.359 10.35,10.359c5.71,-0 10.35,-4.639 10.35,-10.359l0,-17.591l30.17,0c5.06,0 9.17,4.101 9.17,9.171" style="fill:#34f;fill-rule:nonzero;"/></g><g transform="matrix(1,0,0,1,1619.15,-412.937)"><path d="M0,-60.04c0,5.71 4.64,10.35 10.35,10.35l17.6,0l-0,39.34l-17.6,0c-5.71,0 -10.35,4.63 -10.35,10.35c-0,5.71 4.64,10.35 10.35,10.35l17.6,0l-0,30.17c-0,5.06 -4.1,9.17 -9.17,9.17l-30.17,0l0,-17.6c0,-5.72 -4.63,-10.35 -10.35,-10.35c-5.71,0 -10.35,4.63 -10.35,10.35l0,17.6l-39.34,0l0,-17.6c0,-5.72 -4.63,-10.35 -10.35,-10.35c-5.72,0 -10.35,4.63 -10.35,10.35l0,17.6l-30.17,0c-5.06,0 -9.17,-4.11 -9.17,-9.17l0,-141.08c0,-5.07 4.11,-9.17 9.17,-9.17l141.08,0c5.07,0 9.17,4.1 9.17,9.17l-0,30.16l-17.6,0c-5.71,0 -10.35,4.64 -10.35,10.36" style="fill:#9722ff;fill-rule:nonzero;"/></g><g transform="matrix(1,0,0,1,1799.28,-412.937)"><path d="M0,-60.04c0,5.71 4.63,10.35 10.35,10.35l17.6,0l-0,39.34l-17.6,0c-5.72,0 -10.35,4.63 -10.35,10.35c-0,5.71 4.63,10.35 10.35,10.35l17.6,0l-0,30.17c-0,5.06 -4.11,9.17 -9.17,9.17l-141.08,0c-5.07,0 -9.17,-4.11 -9.17,-9.17l0,-30.17l17.59,0c5.72,0 10.36,-4.64 10.36,-10.35c0,-5.72 -4.64,-10.35 -10.36,-10.35l-17.59,0l0,-39.34l17.59,0c5.72,0 10.36,-4.64 10.36,-10.35c0,-5.72 -4.64,-10.36 -10.36,-10.36l-17.59,0l0,-30.16c0,-5.07 4.1,-9.17 9.17,-9.17l141.08,0c5.06,0 9.17,4.1 9.17,9.17l-0,30.16l-17.6,0c-5.72,0 -10.35,4.64 -10.35,10.36" style="fill:#dc29dd;fill-rule:nonzero;"/></g><g transform="matrix(1,0,0,1,2007.35,-372.418)"><path d="M0,-141.079l0,141.079c0,5.061 -4.1,9.171 -9.17,9.171l-30.17,-0l0,-17.601c0,-5.719 -4.63,-10.349 -10.35,-10.349c-5.71,-0 -10.35,4.63 -10.35,10.349l0,17.601l-39.34,-0l0,-17.601c0,-5.719 -4.63,-10.349 -10.35,-10.349c-5.72,-0 -10.35,4.63 -10.35,10.349l0,17.601l-30.17,-0c-5.06,-0 -9.17,-4.11 -9.17,-9.171l-0,-30.17l17.6,0c5.72,0 10.35,-4.639 10.35,-10.349c0,-5.72 -4.63,-10.35 -10.35,-10.35l-17.6,0l-0,-39.341l17.6,0c5.72,0 10.35,-4.64 10.35,-10.349c0,-5.72 -4.63,-10.361 -10.35,-10.361l-17.6,0l-0,-30.159c-0,-5.07 4.11,-9.171 9.17,-9.171l141.08,0c5.07,0 9.17,4.101 9.17,9.171" style="fill:#27a2fd;fill-rule:nonzero;"/></g><g transform="matrix(1,0,0,1,1647.1,-192.298)"><path d="M0,-141.08l0,141.08c0,5.07 -4.1,9.17 -9.17,9.17l-30.17,-0l0,-17.6c0,-5.71 -4.63,-10.349 -10.35,-10.349c-5.71,-0 -10.35,4.639 -10.35,10.349l0,17.6l-39.34,-0l0,-17.6c0,-5.71 -4.63,-10.349 -10.35,-10.349c-5.72,-0 -10.35,4.639 -10.35,10.349l0,17.6l-30.17,-0c-5.06,-0 -9.17,-4.1 -9.17,-9.17l-0,-141.08c-0,-5.06 4.11,-9.17 9.17,-9.17l30.17,0l0,17.601c0,5.719 4.63,10.349 10.35,10.349c5.72,-0 10.35,-4.63 10.35,-10.349l0,-17.601l39.34,0l0,17.601c0,5.719 4.64,10.349 10.35,10.349c5.72,-0 10.35,-4.63 10.35,-10.349l0,-17.601l30.17,0c5.07,0 9.17,4.11 9.17,9.17" style="fill:#dc29dd;fill-rule:nonzero;"/></g><g transform="matrix(1,0,0,1,1799.28,-232.818)"><path d="M0,-60.039c0,5.72 4.63,10.35 10.35,10.35l17.6,0l-0,39.339l-17.6,0c-5.72,0 -10.35,4.631 -10.35,10.351c-0,5.72 4.63,10.35 10.35,10.35l17.6,0l-0,30.17c-0,5.07 -4.11,9.169 -9.17,9.169l-30.17,0l0,-17.599c0,-5.71 -4.64,-10.35 -10.35,-10.35c-5.72,0 -10.35,4.64 -10.35,10.35l0,17.599l-39.34,0l0,-17.599c0,-5.71 -4.64,-10.35 -10.35,-10.35c-5.72,0 -10.36,4.64 -10.36,10.35l0,17.599l-30.16,0c-5.07,0 -9.17,-4.099 -9.17,-9.169l0,-141.081c0,-5.059 4.1,-9.169 9.17,-9.169l141.08,0c5.06,0 9.17,4.11 9.17,9.169l-0,30.17l-17.6,0c-5.72,0 -10.35,4.631 -10.35,10.351" style="fill:#27a2fd;fill-rule:nonzero;"/></g><g transform="matrix(1,0,0,1,1619.15,-52.6873)"><path d="M0,-60.04c0,5.71 4.64,10.35 10.35,10.35l17.6,0l-0,39.33l-17.6,0c-5.71,0 -10.35,4.64 -10.35,10.36c-0,5.71 4.64,10.35 10.35,10.35l17.6,0l-0,30.17c-0,5.06 -4.1,9.17 -9.17,9.17l-141.08,0c-5.06,0 -9.17,-4.11 -9.17,-9.17l0,-141.08c0,-5.07 4.11,-9.17 9.17,-9.17l30.17,0l0,17.59c0,5.72 4.63,10.36 10.35,10.36c5.72,0 10.35,-4.64 10.35,-10.36l0,-17.59l39.34,0l0,17.59c0,5.72 4.64,10.36 10.35,10.36c5.72,0 10.35,-4.64 10.35,-10.36l0,-17.59l30.17,0c5.07,0 9.17,4.1 9.17,9.17l-0,30.16l-17.6,0c-5.71,0 -10.35,4.64 -10.35,10.36" style="fill:#9722ff;fill-rule:nonzero;"/></g><g transform="matrix(1,0,0,1,2007.35,-192.298)"><path d="M0,-141.08l0,141.08c0,5.07 -4.1,9.17 -9.17,9.17l-141.08,-0c-5.06,-0 -9.17,-4.1 -9.17,-9.17l-0,-30.17l17.6,0c5.72,0 10.35,-4.63 10.35,-10.349c0,-5.72 -4.63,-10.351 -10.35,-10.351l-17.6,0l-0,-39.34l17.6,0c5.72,0 10.35,-4.63 10.35,-10.349c0,-5.72 -4.63,-10.351 -10.35,-10.351l-17.6,0l-0,-30.17c-0,-5.06 4.11,-9.17 9.17,-9.17l30.17,0l0,17.601c0,5.719 4.63,10.349 10.35,10.349c5.72,-0 10.35,-4.63 10.35,-10.349l0,-17.601l39.34,0l0,17.601c0,5.719 4.64,10.349 10.35,10.349c5.72,-0 10.35,-4.63 10.35,-10.349l0,-17.601l30.17,0c5.07,0 9.17,4.11 9.17,9.17" style="fill:#34f;fill-rule:nonzero;"/></g><g transform="matrix(1,0,0,1,1827.23,-12.1678)"><path d="M0,-141.079l0,141.079c0,5.061 -4.11,9.171 -9.17,9.171l-141.08,-0c-5.07,-0 -9.17,-4.11 -9.17,-9.171l-0,-30.17l17.59,0c5.72,0 10.36,-4.639 10.36,-10.349c-0,-5.72 -4.64,-10.361 -10.36,-10.361l-17.59,0l-0,-39.33l17.59,0c5.72,0 10.36,-4.64 10.36,-10.349c-0,-5.72 -4.64,-10.361 -10.36,-10.361l-17.59,0l-0,-30.159c-0,-5.07 4.1,-9.171 9.17,-9.171l30.16,0l0,17.591c0,5.72 4.64,10.359 10.36,10.359c5.71,-0 10.35,-4.639 10.35,-10.359l0,-17.591l39.34,0l0,17.591c0,5.72 4.63,10.359 10.35,10.359c5.71,-0 10.35,-4.639 10.35,-10.359l0,-17.591l30.17,0c5.06,0 9.17,4.101 9.17,9.171" style="fill:#34f;fill-rule:nonzero;"/></g><g transform="matrix(1,0,0,1,1979.4,-52.6873)"><path d="M0,-60.04c0,5.71 4.64,10.35 10.35,10.35l17.6,0l-0,39.34l-17.6,0c-5.71,0 -10.35,4.63 -10.35,10.35c-0,5.71 4.64,10.35 10.35,10.35l17.6,0l-0,30.17c-0,5.06 -4.1,9.17 -9.17,9.17l-30.17,0l0,-17.6c0,-5.72 -4.63,-10.35 -10.35,-10.35c-5.71,0 -10.35,4.63 -10.35,10.35l0,17.6l-39.34,0l0,-17.6c0,-5.72 -4.63,-10.35 -10.35,-10.35c-5.72,0 -10.35,4.63 -10.35,10.35l0,17.6l-30.17,0c-5.06,0 -9.17,-4.11 -9.17,-9.17l0,-141.08c0,-5.07 4.11,-9.17 9.17,-9.17l141.08,0c5.07,0 9.17,4.1 9.17,9.17l-0,30.16l-17.6,0c-5.71,0 -10.35,4.64 -10.35,10.36" style="fill:#9722ff;fill-rule:nonzero;"/></g><g transform="matrix(1,0,0,1,2159.53,-52.6873)"><path d="M0,-60.04c0,5.71 4.63,10.35 10.35,10.35l17.6,0l-0,39.34l-17.6,0c-5.72,0 -10.35,4.63 -10.35,10.35c-0,5.71 4.63,10.35 10.35,10.35l17.6,0l-0,30.17c-0,5.06 -4.11,9.17 -9.17,9.17l-141.08,0c-5.07,0 -9.17,-4.11 -9.17,-9.17l0,-30.17l17.59,0c5.72,0 10.36,-4.64 10.36,-10.35c0,-5.72 -4.64,-10.35 -10.36,-10.35l-17.59,0l0,-39.34l17.59,0c5.72,0 10.36,-4.64 10.36,-10.35c0,-5.72 -4.64,-10.36 -10.36,-10.36l-17.59,0l0,-30.16c0,-5.07 4.1,-9.17 9.17,-9.17l141.08,0c5.06,0 9.17,4.1 9.17,9.17l-0,30.16l-17.6,0c-5.72,0 -10.35,4.64 -10.35,10.36" style="fill:#dc29dd;fill-rule:nonzero;"/></g><g transform="matrix(1,0,0,1,2367.6,-12.1678)"><path d="M0,-141.079l0,141.079c0,5.061 -4.1,9.171 -9.17,9.171l-30.17,-0l0,-17.601c0,-5.719 -4.63,-10.349 -10.35,-10.349c-5.71,-0 -10.35,4.63 -10.35,10.349l0,17.601l-39.34,-0l0,-17.601c0,-5.719 -4.63,-10.349 -10.35,-10.349c-5.72,-0 -10.35,4.63 -10.35,10.349l0,17.601l-30.17,-0c-5.06,-0 -9.17,-4.11 -9.17,-9.171l-0,-30.17l17.6,0c5.72,0 10.35,-4.639 10.35,-10.349c0,-5.72 -4.63,-10.35 -10.35,-10.35l-17.6,0l-0,-39.341l17.6,0c5.72,0 10.35,-4.64 10.35,-10.349c0,-5.72 -4.63,-10.361 -10.35,-10.361l-17.6,0l-0,-30.159c-0,-5.07 4.11,-9.171 9.17,-9.171l141.08,0c5.07,0 9.17,4.101 9.17,9.171" style="fill:#27a2fd;fill-rule:nonzero;"/></g><g transform="matrix(1,0,0,1,2007.35,167.952)"><path d="M0,-141.08l0,141.08c0,5.07 -4.1,9.17 -9.17,9.17l-30.17,-0l0,-17.6c0,-5.71 -4.63,-10.349 -10.35,-10.349c-5.71,-0 -10.35,4.639 -10.35,10.349l0,17.6l-39.34,-0l0,-17.6c0,-5.71 -4.63,-10.349 -10.35,-10.349c-5.72,-0 -10.35,4.639 -10.35,10.349l0,17.6l-30.17,-0c-5.06,-0 -9.17,-4.1 -9.17,-9.17l-0,-141.08c-0,-5.06 4.11,-9.17 9.17,-9.17l30.17,0l0,17.601c0,5.719 4.63,10.349 10.35,10.349c5.72,-0 10.35,-4.63 10.35,-10.349l0,-17.601l39.34,0l0,17.601c0,5.719 4.64,10.349 10.35,10.349c5.72,-0 10.35,-4.63 10.35,-10.349l0,-17.601l30.17,0c5.07,0 9.17,4.11 9.17,9.17" style="fill:#dc29dd;fill-rule:nonzero;"/></g><g transform="matrix(1,0,0,1,2159.53,127.432)"><path d="M0,-60.039c0,5.72 4.63,10.35 10.35,10.35l17.6,0l-0,39.339l-17.6,0c-5.72,0 -10.35,4.631 -10.35,10.351c-0,5.72 4.63,10.35 10.35,10.35l17.6,0l-0,30.17c-0,5.07 -4.11,9.169 -9.17,9.169l-30.17,0l0,-17.599c0,-5.71 -4.64,-10.35 -10.35,-10.35c-5.72,0 -10.35,4.64 -10.35,10.35l0,17.599l-39.34,0l0,-17.599c0,-5.71 -4.64,-10.35 -10.35,-10.35c-5.72,0 -10.36,4.64 -10.36,10.35l0,17.599l-30.16,0c-5.07,0 -9.17,-4.099 -9.17,-9.169l0,-141.081c0,-5.059 4.1,-9.169 9.17,-9.169l141.08,0c5.06,0 9.17,4.11 9.17,9.169l-0,30.17l-17.6,0c-5.72,0 -10.35,4.631 -10.35,10.351" style="fill:#27a2fd;fill-rule:nonzero;"/></g><g transform="matrix(1,0,0,1,1979.4,307.563)"><path d="M0,-60.04c0,5.71 4.64,10.35 10.35,10.35l17.6,0l-0,39.33l-17.6,0c-5.71,0 -10.35,4.64 -10.35,10.36c-0,5.71 4.64,10.35 10.35,10.35l17.6,0l-0,30.17c-0,5.06 -4.1,9.17 -9.17,9.17l-141.08,0c-5.06,0 -9.17,-4.11 -9.17,-9.17l0,-141.08c0,-5.07 4.11,-9.17 9.17,-9.17l30.17,0l0,17.59c0,5.72 4.63,10.36 10.35,10.36c5.72,0 10.35,-4.64 10.35,-10.36l0,-17.59l39.34,0l0,17.59c0,5.72 4.64,10.36 10.35,10.36c5.72,0 10.35,-4.64 10.35,-10.36l0,-17.59l30.17,0c5.07,0 9.17,4.1 9.17,9.17l-0,30.16l-17.6,0c-5.71,0 -10.35,4.64 -10.35,10.36" style="fill:#9722ff;fill-rule:nonzero;"/></g><g transform="matrix(1,0,0,1,2367.6,167.952)"><path d="M0,-141.08l0,141.08c0,5.07 -4.1,9.17 -9.17,9.17l-141.08,-0c-5.06,-0 -9.17,-4.1 -9.17,-9.17l-0,-30.17l17.6,0c5.72,0 10.35,-4.63 10.35,-10.349c0,-5.72 -4.63,-10.351 -10.35,-10.351l-17.6,0l-0,-39.34l17.6,0c5.72,0 10.35,-4.63 10.35,-10.349c0,-5.72 -4.63,-10.351 -10.35,-10.351l-17.6,0l-0,-30.17c-0,-5.06 4.11,-9.17 9.17,-9.17l30.17,0l0,17.601c0,5.719 4.63,10.349 10.35,10.349c5.72,-0 10.35,-4.63 10.35,-10.349l0,-17.601l39.34,0l0,17.601c0,5.719 4.64,10.349 10.35,10.349c5.72,-0 10.35,-4.63 10.35,-10.349l0,-17.601l30.17,0c5.07,0 9.17,4.11 9.17,9.17" style="fill:#34f;fill-rule:nonzero;"/></g><g transform="matrix(1,0,0,1,2187.48,348.082)"><path d="M0,-141.079l0,141.079c0,5.061 -4.11,9.171 -9.17,9.171l-141.08,-0c-5.07,-0 -9.17,-4.11 -9.17,-9.171l-0,-30.17l17.59,0c5.72,0 10.36,-4.639 10.36,-10.349c-0,-5.72 -4.64,-10.361 -10.36,-10.361l-17.59,0l-0,-39.33l17.59,0c5.72,0 10.36,-4.64 10.36,-10.349c-0,-5.72 -4.64,-10.361 -10.36,-10.361l-17.59,0l-0,-30.159c-0,-5.07 4.1,-9.171 9.17,-9.171l30.16,0l0,17.591c0,5.72 4.64,10.359 10.36,10.359c5.71,-0 10.35,-4.639 10.35,-10.359l0,-17.591l39.34,0l0,17.591c0,5.72 4.63,10.359 10.35,10.359c5.71,-0 10.35,-4.639 10.35,-10.359l0,-17.591l30.17,0c5.06,0 9.17,4.101 9.17,9.171" style="fill:#34f;fill-rule:nonzero;"/></g><g transform="matrix(1,0,0,1,2187.46,-372.596)"><path d="M0,-141.08l0,141.08c0,5.07 -4.1,9.17 -9.17,9.17l-30.17,-0l0,-17.6c0,-5.71 -4.63,-10.349 -10.35,-10.349c-5.71,-0 -10.35,4.639 -10.35,10.349l0,17.6l-39.34,-0l0,-17.6c0,-5.71 -4.63,-10.349 -10.35,-10.349c-5.72,-0 -10.35,4.639 -10.35,10.349l0,17.6l-30.17,-0c-5.06,-0 -9.17,-4.1 -9.17,-9.17l-0,-141.08c-0,-5.06 4.11,-9.17 9.17,-9.17l30.17,0l0,17.601c0,5.719 4.63,10.349 10.35,10.349c5.72,-0 10.35,-4.63 10.35,-10.349l0,-17.601l39.34,0l0,17.601c0,5.719 4.64,10.349 10.35,10.349c5.72,-0 10.35,-4.63 10.35,-10.349l0,-17.601l30.17,0c5.07,0 9.17,4.11 9.17,9.17" style="fill:#dc29dd;fill-rule:nonzero;"/></g><g transform="matrix(1,0,0,1,2339.65,-413.117)"><path d="M0,-60.039c0,5.72 4.63,10.35 10.35,10.35l17.6,0l-0,39.339l-17.6,0c-5.72,0 -10.35,4.631 -10.35,10.351c-0,5.72 4.63,10.35 10.35,10.35l17.6,0l-0,30.17c-0,5.07 -4.11,9.169 -9.17,9.169l-30.17,0l0,-17.599c0,-5.71 -4.64,-10.35 -10.35,-10.35c-5.72,0 -10.35,4.64 -10.35,10.35l0,17.599l-39.34,0l0,-17.599c0,-5.71 -4.64,-10.35 -10.35,-10.35c-5.72,0 -10.36,4.64 -10.36,10.35l0,17.599l-30.16,0c-5.07,0 -9.17,-4.099 -9.17,-9.169l0,-141.081c0,-5.059 4.1,-9.169 9.17,-9.169l141.08,0c5.06,0 9.17,4.11 9.17,9.169l-0,30.17l-17.6,0c-5.72,0 -10.35,4.631 -10.35,10.351" style="fill:#27a2fd;fill-rule:nonzero;"/></g><g transform="matrix(1,0,0,1,2159.51,-232.986)"><path d="M0,-60.04c0,5.71 4.64,10.35 10.35,10.35l17.6,0l-0,39.33l-17.6,0c-5.71,0 -10.35,4.64 -10.35,10.36c-0,5.71 4.64,10.35 10.35,10.35l17.6,0l-0,30.17c-0,5.06 -4.1,9.17 -9.17,9.17l-141.08,0c-5.06,0 -9.17,-4.11 -9.17,-9.17l0,-141.08c0,-5.07 4.11,-9.17 9.17,-9.17l30.17,0l0,17.59c0,5.72 4.63,10.36 10.35,10.36c5.72,0 10.35,-4.64 10.35,-10.36l0,-17.59l39.34,0l0,17.59c0,5.72 4.64,10.36 10.35,10.36c5.72,0 10.35,-4.64 10.35,-10.36l0,-17.59l30.17,0c5.07,0 9.17,4.1 9.17,9.17l-0,30.16l-17.6,0c-5.71,0 -10.35,4.64 -10.35,10.36" style="fill:#9722ff;fill-rule:nonzero;"/></g><g transform="matrix(1,0,0,1,2547.71,-372.596)"><path d="M0,-141.08l0,141.08c0,5.07 -4.1,9.17 -9.17,9.17l-141.08,-0c-5.06,-0 -9.17,-4.1 -9.17,-9.17l-0,-30.17l17.6,0c5.72,0 10.35,-4.63 10.35,-10.349c0,-5.72 -4.63,-10.351 -10.35,-10.351l-17.6,0l-0,-39.34l17.6,0c5.72,0 10.35,-4.63 10.35,-10.349c0,-5.72 -4.63,-10.351 -10.35,-10.351l-17.6,0l-0,-30.17c-0,-5.06 4.11,-9.17 9.17,-9.17l30.17,0l0,17.601c0,5.719 4.63,10.349 10.35,10.349c5.72,-0 10.35,-4.63 10.35,-10.349l0,-17.601l39.34,0l0,17.601c0,5.719 4.64,10.349 10.35,10.349c5.72,-0 10.35,-4.63 10.35,-10.349l0,-17.601l30.17,0c5.07,0 9.17,4.11 9.17,9.17" style="fill:#34f;fill-rule:nonzero;"/></g><g transform="matrix(1,0,0,1,2367.59,-192.466)"><path d="M0,-141.079l0,141.079c0,5.061 -4.11,9.171 -9.17,9.171l-141.08,-0c-5.07,-0 -9.17,-4.11 -9.17,-9.171l-0,-30.17l17.59,0c5.72,0 10.36,-4.639 10.36,-10.349c-0,-5.72 -4.64,-10.361 -10.36,-10.361l-17.59,0l-0,-39.33l17.59,0c5.72,0 10.36,-4.64 10.36,-10.349c-0,-5.72 -4.64,-10.361 -10.36,-10.361l-17.59,0l-0,-30.159c-0,-5.07 4.1,-9.171 9.17,-9.171l30.16,0l0,17.591c0,5.72 4.64,10.359 10.36,10.359c5.71,-0 10.35,-4.639 10.35,-10.359l0,-17.591l39.34,0l0,17.591c0,5.72 4.63,10.359 10.35,10.359c5.71,-0 10.35,-4.639 10.35,-10.359l0,-17.591l30.17,0c5.06,0 9.17,4.101 9.17,9.171" style="fill:#34f;fill-rule:nonzero;"/></g><g transform="matrix(1,0,0,1,2519.77,-232.986)"><path d="M0,-60.04c0,5.71 4.64,10.35 10.35,10.35l17.6,0l-0,39.34l-17.6,0c-5.71,0 -10.35,4.63 -10.35,10.35c-0,5.71 4.64,10.35 10.35,10.35l17.6,0l-0,30.17c-0,5.06 -4.1,9.17 -9.17,9.17l-30.17,0l0,-17.6c0,-5.72 -4.63,-10.35 -10.35,-10.35c-5.71,0 -10.35,4.63 -10.35,10.35l0,17.6l-39.34,0l0,-17.6c0,-5.72 -4.63,-10.35 -10.35,-10.35c-5.72,0 -10.35,4.63 -10.35,10.35l0,17.6l-30.17,0c-5.06,0 -9.17,-4.11 -9.17,-9.17l0,-141.08c0,-5.07 4.11,-9.17 9.17,-9.17l141.08,0c5.07,0 9.17,4.1 9.17,9.17l-0,30.16l-17.6,0c-5.71,0 -10.35,4.64 -10.35,10.36" style="fill:#9722ff;fill-rule:nonzero;"/></g><g transform="matrix(1,0,0,1,2699.9,-232.986)"><path d="M0,-60.04c0,5.71 4.63,10.35 10.35,10.35l17.6,0l-0,39.34l-17.6,0c-5.72,0 -10.35,4.63 -10.35,10.35c-0,5.71 4.63,10.35 10.35,10.35l17.6,0l-0,30.17c-0,5.06 -4.11,9.17 -9.17,9.17l-141.08,0c-5.07,0 -9.17,-4.11 -9.17,-9.17l0,-30.17l17.59,0c5.72,0 10.36,-4.64 10.36,-10.35c0,-5.72 -4.64,-10.35 -10.36,-10.35l-17.59,0l0,-39.34l17.59,0c5.72,0 10.36,-4.64 10.36,-10.35c0,-5.72 -4.64,-10.36 -10.36,-10.36l-17.59,0l0,-30.16c0,-5.07 4.1,-9.17 9.17,-9.17l141.08,0c5.06,0 9.17,4.1 9.17,9.17l-0,30.16l-17.6,0c-5.72,0 -10.35,4.64 -10.35,10.36" style="fill:#dc29dd;fill-rule:nonzero;"/></g><g transform="matrix(1,0,0,1,2547.71,-12.346)"><path d="M0,-141.08l0,141.08c0,5.07 -4.1,9.17 -9.17,9.17l-30.17,-0l0,-17.6c0,-5.71 -4.63,-10.349 -10.35,-10.349c-5.71,-0 -10.35,4.639 -10.35,10.349l0,17.6l-39.34,-0l0,-17.6c0,-5.71 -4.63,-10.349 -10.35,-10.349c-5.72,-0 -10.35,4.639 -10.35,10.349l0,17.6l-30.17,-0c-5.06,-0 -9.17,-4.1 -9.17,-9.17l-0,-141.08c-0,-5.06 4.11,-9.17 9.17,-9.17l30.17,0l0,17.601c0,5.719 4.63,10.349 10.35,10.349c5.72,-0 10.35,-4.63 10.35,-10.349l0,-17.601l39.34,0l0,17.601c0,5.719 4.64,10.349 10.35,10.349c5.72,-0 10.35,-4.63 10.35,-10.349l0,-17.601l30.17,0c5.07,0 9.17,4.11 9.17,9.17" style="fill:#dc29dd;fill-rule:nonzero;"/></g><g transform="matrix(1,0,0,1,2699.9,-52.8665)"><path d="M0,-60.039c0,5.72 4.63,10.35 10.35,10.35l17.6,0l-0,39.339l-17.6,0c-5.72,0 -10.35,4.631 -10.35,10.351c-0,5.72 4.63,10.35 10.35,10.35l17.6,0l-0,30.17c-0,5.07 -4.11,9.169 -9.17,9.169l-30.17,0l0,-17.599c0,-5.71 -4.64,-10.35 -10.35,-10.35c-5.72,0 -10.35,4.64 -10.35,10.35l0,17.599l-39.34,0l0,-17.599c0,-5.71 -4.64,-10.35 -10.35,-10.35c-5.72,0 -10.36,4.64 -10.36,10.35l0,17.599l-30.16,0c-5.07,0 -9.17,-4.099 -9.17,-9.169l0,-141.081c0,-5.059 4.1,-9.169 9.17,-9.169l141.08,0c5.06,0 9.17,4.11 9.17,9.169l-0,30.17l-17.6,0c-5.72,0 -10.35,4.631 -10.35,10.351" style="fill:#27a2fd;fill-rule:nonzero;"/></g><g transform="matrix(1,0,0,1,2519.76,127.264)"><path d="M0,-60.04c0,5.71 4.64,10.35 10.35,10.35l17.6,0l-0,39.33l-17.6,0c-5.71,0 -10.35,4.64 -10.35,10.36c-0,5.71 4.64,10.35 10.35,10.35l17.6,0l-0,30.17c-0,5.06 -4.1,9.17 -9.17,9.17l-141.08,0c-5.06,0 -9.17,-4.11 -9.17,-9.17l0,-141.08c0,-5.07 4.11,-9.17 9.17,-9.17l30.17,0l0,17.59c0,5.72 4.63,10.36 10.35,10.36c5.72,0 10.35,-4.64 10.35,-10.36l0,-17.59l39.34,0l0,17.59c0,5.72 4.64,10.36 10.35,10.36c5.72,0 10.35,-4.64 10.35,-10.36l0,-17.59l30.17,0c5.07,0 9.17,4.1 9.17,9.17l-0,30.16l-17.6,0c-5.71,0 -10.35,4.64 -10.35,10.36" style="fill:#9722ff;fill-rule:nonzero;"/></g><g transform="matrix(1,0,0,1,2727.84,167.784)"><path d="M0,-141.079l0,141.079c0,5.061 -4.11,9.171 -9.17,9.171l-141.08,-0c-5.07,-0 -9.17,-4.11 -9.17,-9.171l-0,-30.17l17.59,0c5.72,0 10.36,-4.639 10.36,-10.349c-0,-5.72 -4.64,-10.361 -10.36,-10.361l-17.59,0l-0,-39.33l17.59,0c5.72,0 10.36,-4.64 10.36,-10.349c-0,-5.72 -4.64,-10.361 -10.36,-10.361l-17.59,0l-0,-30.159c-0,-5.07 4.1,-9.171 9.17,-9.171l30.16,0l0,17.591c0,5.72 4.64,10.359 10.36,10.359c5.71,-0 10.35,-4.639 10.35,-10.359l0,-17.591l39.34,0l0,17.591c0,5.72 4.63,10.359 10.35,10.359c5.71,-0 10.35,-4.639 10.35,-10.359l0,-17.591l30.17,0c5.06,0 9.17,4.101 9.17,9.171" style="fill:#34f;fill-rule:nonzero;"/></g><g transform="matrix(1,0,0,1,2699.87,-412.932)"><path d="M0,-60.04c0,5.71 4.64,10.35 10.35,10.35l17.6,0l-0,39.33l-17.6,0c-5.71,0 -10.35,4.64 -10.35,10.36c-0,5.71 4.64,10.35 10.35,10.35l17.6,0l-0,30.17c-0,5.06 -4.1,9.17 -9.17,9.17l-141.08,0c-5.06,0 -9.17,-4.11 -9.17,-9.17l0,-141.08c0,-5.07 4.11,-9.17 9.17,-9.17l30.17,0l0,17.59c0,5.72 4.63,10.36 10.35,10.36c5.72,0 10.35,-4.64 10.35,-10.36l0,-17.59l39.34,0l0,17.59c0,5.72 4.64,10.36 10.35,10.36c5.72,0 10.35,-4.64 10.35,-10.36l0,-17.59l30.17,0c5.07,0 9.17,4.1 9.17,9.17l-0,30.16l-17.6,0c-5.71,0 -10.35,4.64 -10.35,10.36" style="fill:#9722ff;fill-rule:nonzero;"/></g><g transform="matrix(1,0,0,1,358.272,-412.932)"><path d="M0,-60.04c0,5.71 4.63,10.35 10.35,10.35l17.6,0l-0,39.34l-17.6,0c-5.72,0 -10.35,4.63 -10.35,10.35c-0,5.71 4.63,10.35 10.35,10.35l17.6,0l-0,30.17c-0,5.06 -4.11,9.17 -9.17,9.17l-141.08,0c-5.07,0 -9.17,-4.11 -9.17,-9.17l0,-30.17l17.59,0c5.72,0 10.36,-4.64 10.36,-10.35c0,-5.72 -4.64,-10.35 -10.36,-10.35l-17.59,0l0,-39.34l17.59,0c5.72,0 10.36,-4.64 10.36,-10.35c0,-5.72 -4.64,-10.36 -10.36,-10.36l-17.59,0l0,-30.16c0,-5.07 4.1,-9.17 9.17,-9.17l141.08,0c5.06,0 9.17,4.1 9.17,9.17l-0,30.16l-17.6,0c-5.72,0 -10.35,4.64 -10.35,10.36" style="fill:#dc29dd;fill-rule:nonzero;"/></g><g transform="matrix(1,0,0,1,566.342,-372.412)"><path d="M0,-141.079l0,141.079c0,5.061 -4.1,9.171 -9.17,9.171l-30.17,-0l0,-17.601c0,-5.719 -4.63,-10.349 -10.35,-10.349c-5.71,-0 -10.35,4.63 -10.35,10.349l0,17.601l-39.34,-0l0,-17.601c0,-5.719 -4.63,-10.349 -10.35,-10.349c-5.72,-0 -10.35,4.63 -10.35,10.349l0,17.601l-30.17,-0c-5.06,-0 -9.17,-4.11 -9.17,-9.171l-0,-30.17l17.6,0c5.72,0 10.35,-4.639 10.35,-10.349c0,-5.72 -4.63,-10.35 -10.35,-10.35l-17.6,0l-0,-39.341l17.6,0c5.72,0 10.35,-4.64 10.35,-10.349c0,-5.72 -4.63,-10.361 -10.35,-10.361l-17.6,0l-0,-30.159c-0,-5.07 4.11,-9.171 9.17,-9.171l141.08,0c5.07,0 9.17,4.101 9.17,9.171" style="fill:#27a2fd;fill-rule:nonzero;"/></g><g transform="matrix(1,0,0,1,358.272,-232.813)"><path d="M0,-60.039c0,5.72 4.63,10.35 10.35,10.35l17.6,0l-0,39.339l-17.6,0c-5.72,0 -10.35,4.631 -10.35,10.351c-0,5.72 4.63,10.35 10.35,10.35l17.6,0l-0,30.17c-0,5.07 -4.11,9.169 -9.17,9.169l-30.17,0l0,-17.599c0,-5.71 -4.64,-10.35 -10.35,-10.35c-5.72,0 -10.35,4.64 -10.35,10.35l0,17.599l-39.34,0l0,-17.599c0,-5.71 -4.64,-10.35 -10.35,-10.35c-5.72,0 -10.36,4.64 -10.36,10.35l0,17.599l-30.16,0c-5.07,0 -9.17,-4.099 -9.17,-9.169l0,-141.081c0,-5.059 4.1,-9.169 9.17,-9.169l141.08,0c5.06,0 9.17,4.11 9.17,9.169l-0,30.17l-17.6,0c-5.72,0 -10.35,4.631 -10.35,10.351" style="fill:#27a2fd;fill-rule:nonzero;"/></g><g transform="matrix(1,0,0,1,386.217,-12.1625)"><path d="M0,-141.079l0,141.079c0,5.061 -4.11,9.171 -9.17,9.171l-141.08,-0c-5.07,-0 -9.17,-4.11 -9.17,-9.171l-0,-30.17l17.59,0c5.72,0 10.36,-4.639 10.36,-10.349c-0,-5.72 -4.64,-10.361 -10.36,-10.361l-17.59,0l-0,-39.33l17.59,0c5.72,0 10.36,-4.64 10.36,-10.349c-0,-5.72 -4.64,-10.361 -10.36,-10.361l-17.59,0l-0,-30.159c-0,-5.07 4.1,-9.171 9.17,-9.171l30.16,0l0,17.591c0,5.72 4.64,10.359 10.36,10.359c5.71,-0 10.35,-4.639 10.35,-10.359l0,-17.591l39.34,0l0,17.591c0,5.72 4.63,10.359 10.35,10.359c5.71,-0 10.35,-4.639 10.35,-10.359l0,-17.591l30.17,0c5.06,0 9.17,4.101 9.17,9.171" style="fill:#34f;fill-rule:nonzero;"/></g><g transform="matrix(1,0,0,1,566.337,-192.292)"><path d="M0,-141.08l0,141.08c0,5.07 -4.1,9.17 -9.17,9.17l-141.08,-0c-5.06,-0 -9.17,-4.1 -9.17,-9.17l-0,-30.17l17.6,0c5.72,0 10.35,-4.63 10.35,-10.349c0,-5.72 -4.63,-10.351 -10.35,-10.351l-17.6,0l-0,-39.34l17.6,0c5.72,0 10.35,-4.63 10.35,-10.349c0,-5.72 -4.63,-10.351 -10.35,-10.351l-17.6,0l-0,-30.17c-0,-5.06 4.11,-9.17 9.17,-9.17l30.17,0l0,17.601c0,5.719 4.63,10.349 10.35,10.349c5.72,-0 10.35,-4.63 10.35,-10.349l0,-17.601l39.34,0l0,17.601c0,5.719 4.64,10.349 10.35,10.349c5.72,-0 10.35,-4.63 10.35,-10.349l0,-17.601l30.17,0c5.07,0 9.17,4.11 9.17,9.17" style="fill:#34f;fill-rule:nonzero;"/></g><g transform="matrix(1,0,0,1,538.392,-52.682)"><path d="M0,-60.04c0,5.71 4.64,10.35 10.35,10.35l17.6,0l-0,39.34l-17.6,0c-5.71,0 -10.35,4.63 -10.35,10.35c-0,5.71 4.64,10.35 10.35,10.35l17.6,0l-0,30.17c-0,5.06 -4.1,9.17 -9.17,9.17l-30.17,0l0,-17.6c0,-5.72 -4.63,-10.35 -10.35,-10.35c-5.71,0 -10.35,4.63 -10.35,10.35l0,17.6l-39.34,0l0,-17.6c0,-5.72 -4.63,-10.35 -10.35,-10.35c-5.72,0 -10.35,4.63 -10.35,10.35l0,17.6l-30.17,0c-5.06,0 -9.17,-4.11 -9.17,-9.17l0,-141.08c0,-5.07 4.11,-9.17 9.17,-9.17l141.08,0c5.07,0 9.17,4.1 9.17,9.17l-0,30.16l-17.6,0c-5.71,0 -10.35,4.64 -10.35,10.36" style="fill:#9722ff;fill-rule:nonzero;"/></g><g transform="matrix(1,0,0,1,718.522,-52.682)"><path d="M0,-60.04c0,5.71 4.63,10.35 10.35,10.35l17.6,0l-0,39.34l-17.6,0c-5.72,0 -10.35,4.63 -10.35,10.35c-0,5.71 4.63,10.35 10.35,10.35l17.6,0l-0,30.17c-0,5.06 -4.11,9.17 -9.17,9.17l-141.08,0c-5.07,0 -9.17,-4.11 -9.17,-9.17l0,-30.17l17.59,0c5.72,0 10.36,-4.64 10.36,-10.35c0,-5.72 -4.64,-10.35 -10.36,-10.35l-17.59,0l0,-39.34l17.59,0c5.72,0 10.36,-4.64 10.36,-10.35c0,-5.72 -4.64,-10.36 -10.36,-10.36l-17.59,0l0,-30.16c0,-5.07 4.1,-9.17 9.17,-9.17l141.08,0c5.06,0 9.17,4.1 9.17,9.17l-0,30.16l-17.6,0c-5.72,0 -10.35,4.64 -10.35,10.36" style="fill:#dc29dd;fill-rule:nonzero;"/></g><g transform="matrix(1,0,0,1,926.592,-12.1625)"><path d="M0,-141.079l0,141.079c0,5.061 -4.1,9.171 -9.17,9.171l-30.17,-0l0,-17.601c0,-5.719 -4.63,-10.349 -10.35,-10.349c-5.71,-0 -10.35,4.63 -10.35,10.349l0,17.601l-39.34,-0l0,-17.601c0,-5.719 -4.63,-10.349 -10.35,-10.349c-5.72,-0 -10.35,4.63 -10.35,10.349l0,17.601l-30.17,-0c-5.06,-0 -9.17,-4.11 -9.17,-9.171l-0,-30.17l17.6,0c5.72,0 10.35,-4.639 10.35,-10.349c0,-5.72 -4.63,-10.35 -10.35,-10.35l-17.6,0l-0,-39.341l17.6,0c5.72,0 10.35,-4.64 10.35,-10.349c0,-5.72 -4.63,-10.361 -10.35,-10.361l-17.6,0l-0,-30.159c-0,-5.07 4.11,-9.171 9.17,-9.171l141.08,0c5.07,0 9.17,4.101 9.17,9.171" style="fill:#27a2fd;fill-rule:nonzero;"/></g><g transform="matrix(1,0,0,1,566.337,167.958)"><path d="M0,-141.08l0,141.08c0,5.07 -4.1,9.17 -9.17,9.17l-30.17,-0l0,-17.6c0,-5.71 -4.63,-10.349 -10.35,-10.349c-5.71,-0 -10.35,4.639 -10.35,10.349l0,17.6l-39.34,-0l0,-17.6c0,-5.71 -4.63,-10.349 -10.35,-10.349c-5.72,-0 -10.35,4.639 -10.35,10.349l0,17.6l-30.17,-0c-5.06,-0 -9.17,-4.1 -9.17,-9.17l-0,-141.08c-0,-5.06 4.11,-9.17 9.17,-9.17l30.17,0l0,17.601c0,5.719 4.63,10.349 10.35,10.349c5.72,-0 10.35,-4.63 10.35,-10.349l0,-17.601l39.34,0l0,17.601c0,5.719 4.64,10.349 10.35,10.349c5.72,-0 10.35,-4.63 10.35,-10.349l0,-17.601l30.17,0c5.07,0 9.17,4.11 9.17,9.17" style="fill:#dc29dd;fill-rule:nonzero;"/></g><g transform="matrix(1,0,0,1,718.522,127.437)"><path d="M0,-60.039c0,5.72 4.63,10.35 10.35,10.35l17.6,0l-0,39.339l-17.6,0c-5.72,0 -10.35,4.631 -10.35,10.351c-0,5.72 4.63,10.35 10.35,10.35l17.6,0l-0,30.17c-0,5.07 -4.11,9.169 -9.17,9.169l-30.17,0l0,-17.599c0,-5.71 -4.64,-10.35 -10.35,-10.35c-5.72,0 -10.35,4.64 -10.35,10.35l0,17.599l-39.34,0l0,-17.599c0,-5.71 -4.64,-10.35 -10.35,-10.35c-5.72,0 -10.36,4.64 -10.36,10.35l0,17.599l-30.16,0c-5.07,0 -9.17,-4.099 -9.17,-9.169l0,-141.081c0,-5.059 4.1,-9.169 9.17,-9.169l141.08,0c5.06,0 9.17,4.11 9.17,9.169l-0,30.17l-17.6,0c-5.72,0 -10.35,4.631 -10.35,10.351" style="fill:#27a2fd;fill-rule:nonzero;"/></g><g transform="matrix(1,0,0,1,538.387,307.568)"><path d="M0,-60.04c0,5.71 4.64,10.35 10.35,10.35l17.6,0l-0,39.33l-17.6,0c-5.71,0 -10.35,4.64 -10.35,10.36c-0,5.71 4.64,10.35 10.35,10.35l17.6,0l-0,30.17c-0,5.06 -4.1,9.17 -9.17,9.17l-141.08,0c-5.06,0 -9.17,-4.11 -9.17,-9.17l0,-141.08c0,-5.07 4.11,-9.17 9.17,-9.17l30.17,0l0,17.59c0,5.72 4.63,10.36 10.35,10.36c5.72,0 10.35,-4.64 10.35,-10.36l0,-17.59l39.34,0l0,17.59c0,5.72 4.64,10.36 10.35,10.36c5.72,0 10.35,-4.64 10.35,-10.36l0,-17.59l30.17,0c5.07,0 9.17,4.1 9.17,9.17l-0,30.16l-17.6,0c-5.71,0 -10.35,4.64 -10.35,10.36" style="fill:#9722ff;fill-rule:nonzero;"/></g><g transform="matrix(1,0,0,1,926.587,167.958)"><path d="M0,-141.08l0,141.08c0,5.07 -4.1,9.17 -9.17,9.17l-141.08,-0c-5.06,-0 -9.17,-4.1 -9.17,-9.17l-0,-30.17l17.6,0c5.72,0 10.35,-4.63 10.35,-10.349c0,-5.72 -4.63,-10.351 -10.35,-10.351l-17.6,0l-0,-39.34l17.6,0c5.72,0 10.35,-4.63 10.35,-10.349c0,-5.72 -4.63,-10.351 -10.35,-10.351l-17.6,0l-0,-30.17c-0,-5.06 4.11,-9.17 9.17,-9.17l30.17,0l0,17.601c0,5.719 4.63,10.349 10.35,10.349c5.72,-0 10.35,-4.63 10.35,-10.349l0,-17.601l39.34,0l0,17.601c0,5.719 4.64,10.349 10.35,10.349c5.72,-0 10.35,-4.63 10.35,-10.349l0,-17.601l30.17,0c5.07,0 9.17,4.11 9.17,9.17" style="fill:#34f;fill-rule:nonzero;"/></g><g transform="matrix(1,0,0,1,746.467,348.088)"><path d="M0,-141.079l0,141.079c0,5.061 -4.11,9.171 -9.17,9.171l-141.08,-0c-5.07,-0 -9.17,-4.11 -9.17,-9.171l-0,-30.17l17.59,0c5.72,0 10.36,-4.639 10.36,-10.349c-0,-5.72 -4.64,-10.361 -10.36,-10.361l-17.59,0l-0,-39.33l17.59,0c5.72,0 10.36,-4.64 10.36,-10.349c-0,-5.72 -4.64,-10.361 -10.36,-10.361l-17.59,0l-0,-30.159c-0,-5.07 4.1,-9.171 9.17,-9.171l30.16,0l0,17.591c0,5.72 4.64,10.359 10.36,10.359c5.71,-0 10.35,-4.639 10.35,-10.359l0,-17.591l39.34,0l0,17.591c0,5.72 4.63,10.359 10.35,10.359c5.71,-0 10.35,-4.639 10.35,-10.359l0,-17.591l30.17,0c5.06,0 9.17,4.101 9.17,9.171" style="fill:#34f;fill-rule:nonzero;"/></g><g transform="matrix(1,0,0,1,898.642,307.568)"><path d="M0,-60.04c0,5.71 4.64,10.35 10.35,10.35l17.6,0l-0,39.34l-17.6,0c-5.71,0 -10.35,4.63 -10.35,10.35c-0,5.71 4.64,10.35 10.35,10.35l17.6,0l-0,30.17c-0,5.06 -4.1,9.17 -9.17,9.17l-30.17,0l0,-17.6c0,-5.72 -4.63,-10.35 -10.35,-10.35c-5.71,0 -10.35,4.63 -10.35,10.35l0,17.6l-39.34,0l0,-17.6c0,-5.72 -4.63,-10.35 -10.35,-10.35c-5.72,0 -10.35,4.63 -10.35,10.35l0,17.6l-30.17,0c-5.06,0 -9.17,-4.11 -9.17,-9.17l0,-141.08c0,-5.07 4.11,-9.17 9.17,-9.17l141.08,0c5.07,0 9.17,4.1 9.17,9.17l-0,30.16l-17.6,0c-5.71,0 -10.35,4.64 -10.35,10.36" style="fill:#9722ff;fill-rule:nonzero;"/></g><g transform="matrix(1,0,0,1,1078.77,307.568)"><path d="M0,-60.04c0,5.71 4.63,10.35 10.35,10.35l17.6,0l-0,39.34l-17.6,0c-5.72,0 -10.35,4.63 -10.35,10.35c-0,5.71 4.63,10.35 10.35,10.35l17.6,0l-0,30.17c-0,5.06 -4.11,9.17 -9.17,9.17l-141.08,0c-5.07,0 -9.17,-4.11 -9.17,-9.17l0,-30.17l17.59,0c5.72,0 10.36,-4.64 10.36,-10.35c0,-5.72 -4.64,-10.35 -10.36,-10.35l-17.59,0l0,-39.34l17.59,0c5.72,0 10.36,-4.64 10.36,-10.35c0,-5.72 -4.64,-10.36 -10.36,-10.36l-17.59,0l0,-30.16c0,-5.07 4.1,-9.17 9.17,-9.17l141.08,0c5.06,0 9.17,4.1 9.17,9.17l-0,30.16l-17.6,0c-5.72,0 -10.35,4.64 -10.35,10.36" style="fill:#dc29dd;fill-rule:nonzero;"/></g><g transform="matrix(1,0,0,1,1286.84,348.088)"><path d="M0,-141.079l0,141.079c0,5.061 -4.1,9.171 -9.17,9.171l-30.17,-0l0,-17.601c0,-5.719 -4.63,-10.349 -10.35,-10.349c-5.71,-0 -10.35,4.63 -10.35,10.349l0,17.601l-39.34,-0l0,-17.601c0,-5.719 -4.63,-10.349 -10.35,-10.349c-5.72,-0 -10.35,4.63 -10.35,10.349l0,17.601l-30.17,-0c-5.06,-0 -9.17,-4.11 -9.17,-9.171l-0,-30.17l17.6,0c5.72,0 10.35,-4.639 10.35,-10.349c0,-5.72 -4.63,-10.35 -10.35,-10.35l-17.6,0l-0,-39.341l17.6,0c5.72,0 10.35,-4.64 10.35,-10.349c0,-5.72 -4.63,-10.361 -10.35,-10.361l-17.6,0l-0,-30.159c-0,-5.07 4.11,-9.171 9.17,-9.171l141.08,0c5.07,0 9.17,4.101 9.17,9.171" style="fill:#27a2fd;fill-rule:nonzero;"/></g><g transform="matrix(1,0,0,1,926.587,528.208)"><path d="M0,-141.08l0,141.08c0,5.07 -4.1,9.17 -9.17,9.17l-30.17,-0l0,-17.6c0,-5.71 -4.63,-10.349 -10.35,-10.349c-5.71,-0 -10.35,4.639 -10.35,10.349l0,17.6l-39.34,-0l0,-17.6c0,-5.71 -4.63,-10.349 -10.35,-10.349c-5.72,-0 -10.35,4.639 -10.35,10.349l0,17.6l-30.17,-0c-5.06,-0 -9.17,-4.1 -9.17,-9.17l-0,-141.08c-0,-5.06 4.11,-9.17 9.17,-9.17l30.17,0l0,17.601c0,5.719 4.63,10.349 10.35,10.349c5.72,-0 10.35,-4.63 10.35,-10.349l0,-17.601l39.34,0l0,17.601c0,5.719 4.64,10.349 10.35,10.349c5.72,-0 10.35,-4.63 10.35,-10.349l0,-17.601l30.17,0c5.07,0 9.17,4.11 9.17,9.17" style="fill:#dc29dd;fill-rule:nonzero;"/></g><g transform="matrix(1,0,0,1,1078.77,487.687)"><path d="M0,-60.039c0,5.72 4.63,10.35 10.35,10.35l17.6,0l-0,39.339l-17.6,0c-5.72,0 -10.35,4.631 -10.35,10.351c-0,5.72 4.63,10.35 10.35,10.35l17.6,0l-0,30.17c-0,5.07 -4.11,9.169 -9.17,9.169l-30.17,0l0,-17.599c0,-5.71 -4.64,-10.35 -10.35,-10.35c-5.72,0 -10.35,4.64 -10.35,10.35l0,17.599l-39.34,0l0,-17.599c0,-5.71 -4.64,-10.35 -10.35,-10.35c-5.72,0 -10.36,4.64 -10.36,10.35l0,17.599l-30.16,0c-5.07,0 -9.17,-4.099 -9.17,-9.169l0,-141.081c0,-5.059 4.1,-9.169 9.17,-9.169l141.08,0c5.06,0 9.17,4.11 9.17,9.169l-0,30.17l-17.6,0c-5.72,0 -10.35,4.631 -10.35,10.351" style="fill:#27a2fd;fill-rule:nonzero;"/></g><g transform="matrix(1,0,0,1,898.637,667.818)"><path d="M0,-60.04c0,5.71 4.64,10.35 10.35,10.35l17.6,0l-0,39.33l-17.6,0c-5.71,0 -10.35,4.64 -10.35,10.36c-0,5.71 4.64,10.35 10.35,10.35l17.6,0l-0,30.17c-0,5.06 -4.1,9.17 -9.17,9.17l-141.08,0c-5.06,0 -9.17,-4.11 -9.17,-9.17l0,-141.08c0,-5.07 4.11,-9.17 9.17,-9.17l30.17,0l0,17.59c0,5.72 4.63,10.36 10.35,10.36c5.72,0 10.35,-4.64 10.35,-10.36l0,-17.59l39.34,0l0,17.59c0,5.72 4.64,10.36 10.35,10.36c5.72,0 10.35,-4.64 10.35,-10.36l0,-17.59l30.17,0c5.07,0 9.17,4.1 9.17,9.17l-0,30.16l-17.6,0c-5.71,0 -10.35,4.64 -10.35,10.36" style="fill:#9722ff;fill-rule:nonzero;"/></g><g transform="matrix(1,0,0,1,1286.84,528.208)"><path d="M0,-141.08l0,141.08c0,5.07 -4.1,9.17 -9.17,9.17l-141.08,-0c-5.06,-0 -9.17,-4.1 -9.17,-9.17l-0,-30.17l17.6,0c5.72,0 10.35,-4.63 10.35,-10.349c0,-5.72 -4.63,-10.351 -10.35,-10.351l-17.6,0l-0,-39.34l17.6,0c5.72,0 10.35,-4.63 10.35,-10.349c0,-5.72 -4.63,-10.351 -10.35,-10.351l-17.6,0l-0,-30.17c-0,-5.06 4.11,-9.17 9.17,-9.17l30.17,0l0,17.601c0,5.719 4.63,10.349 10.35,10.349c5.72,-0 10.35,-4.63 10.35,-10.349l0,-17.601l39.34,0l0,17.601c0,5.719 4.64,10.349 10.35,10.349c5.72,-0 10.35,-4.63 10.35,-10.349l0,-17.601l30.17,0c5.07,0 9.17,4.11 9.17,9.17" style="fill:#34f;fill-rule:nonzero;"/></g><g transform="matrix(1,0,0,1,1106.72,708.338)"><path d="M0,-141.079l0,141.079c0,5.061 -4.11,9.171 -9.17,9.171l-141.08,-0c-5.07,-0 -9.17,-4.11 -9.17,-9.171l-0,-30.17l17.59,0c5.72,0 10.36,-4.639 10.36,-10.349c-0,-5.72 -4.64,-10.361 -10.36,-10.361l-17.59,0l-0,-39.33l17.59,0c5.72,0 10.36,-4.64 10.36,-10.349c-0,-5.72 -4.64,-10.361 -10.36,-10.361l-17.59,0l-0,-30.159c-0,-5.07 4.1,-9.171 9.17,-9.171l30.16,0l0,17.591c0,5.72 4.64,10.359 10.36,10.359c5.71,-0 10.35,-4.639 10.35,-10.359l0,-17.591l39.34,0l0,17.591c0,5.72 4.63,10.359 10.35,10.359c5.71,-0 10.35,-4.639 10.35,-10.359l0,-17.591l30.17,0c5.06,0 9.17,4.101 9.17,9.171" style="fill:#34f;fill-rule:nonzero;"/></g><g transform="matrix(1,0,0,1,1258.89,667.818)"><path d="M0,-60.04c0,5.71 4.64,10.35 10.35,10.35l17.6,0l-0,39.34l-17.6,0c-5.71,0 -10.35,4.63 -10.35,10.35c-0,5.71 4.64,10.35 10.35,10.35l17.6,0l-0,30.17c-0,5.06 -4.1,9.17 -9.17,9.17l-30.17,0l0,-17.6c0,-5.72 -4.63,-10.35 -10.35,-10.35c-5.71,0 -10.35,4.63 -10.35,10.35l0,17.6l-39.34,0l0,-17.6c0,-5.72 -4.63,-10.35 -10.35,-10.35c-5.72,0 -10.35,4.63 -10.35,10.35l0,17.6l-30.17,0c-5.06,0 -9.17,-4.11 -9.17,-9.17l0,-141.08c0,-5.07 4.11,-9.17 9.17,-9.17l141.08,0c5.07,0 9.17,4.1 9.17,9.17l-0,30.16l-17.6,0c-5.71,0 -10.35,4.64 -10.35,10.36" style="fill:#9722ff;fill-rule:nonzero;"/></g><g transform="matrix(1,0,0,1,1439.02,667.818)"><path d="M0,-60.04c0,5.71 4.63,10.35 10.35,10.35l17.6,0l-0,39.34l-17.6,0c-5.72,0 -10.35,4.63 -10.35,10.35c-0,5.71 4.63,10.35 10.35,10.35l17.6,0l-0,30.17c-0,5.06 -4.11,9.17 -9.17,9.17l-141.08,0c-5.07,0 -9.17,-4.11 -9.17,-9.17l0,-30.17l17.59,0c5.72,0 10.36,-4.64 10.36,-10.35c0,-5.72 -4.64,-10.35 -10.36,-10.35l-17.59,0l0,-39.34l17.59,0c5.72,0 10.36,-4.64 10.36,-10.35c0,-5.72 -4.64,-10.36 -10.36,-10.36l-17.59,0l0,-30.16c0,-5.07 4.1,-9.17 9.17,-9.17l141.08,0c5.06,0 9.17,4.1 9.17,9.17l-0,30.16l-17.6,0c-5.72,0 -10.35,4.64 -10.35,10.36" style="fill:#dc29dd;fill-rule:nonzero;"/></g><g transform="matrix(1,0,0,1,1647.09,708.338)"><path d="M0,-141.079l0,141.079c0,5.061 -4.1,9.171 -9.17,9.171l-30.17,-0l0,-17.601c0,-5.719 -4.63,-10.349 -10.35,-10.349c-5.71,-0 -10.35,4.63 -10.35,10.349l0,17.601l-39.34,-0l0,-17.601c0,-5.719 -4.63,-10.349 -10.35,-10.349c-5.72,-0 -10.35,4.63 -10.35,10.349l0,17.601l-30.17,-0c-5.06,-0 -9.17,-4.11 -9.17,-9.171l-0,-30.17l17.6,0c5.72,0 10.35,-4.639 10.35,-10.349c0,-5.72 -4.63,-10.35 -10.35,-10.35l-17.6,0l-0,-39.341l17.6,0c5.72,0 10.35,-4.64 10.35,-10.349c0,-5.72 -4.63,-10.361 -10.35,-10.361l-17.6,0l-0,-30.159c-0,-5.07 4.11,-9.171 9.17,-9.171l141.08,0c5.07,0 9.17,4.101 9.17,9.171" style="fill:#27a2fd;fill-rule:nonzero;"/></g><g transform="matrix(1,0,0,1,1286.84,888.458)"><path d="M0,-141.08l0,141.08c0,5.07 -4.1,9.17 -9.17,9.17l-30.17,-0l0,-17.6c0,-5.71 -4.63,-10.349 -10.35,-10.349c-5.71,-0 -10.35,4.639 -10.35,10.349l0,17.6l-39.34,-0l0,-17.6c0,-5.71 -4.63,-10.349 -10.35,-10.349c-5.72,-0 -10.35,4.639 -10.35,10.349l0,17.6l-30.17,-0c-5.06,-0 -9.17,-4.1 -9.17,-9.17l-0,-141.08c-0,-5.06 4.11,-9.17 9.17,-9.17l30.17,0l0,17.601c0,5.719 4.63,10.349 10.35,10.349c5.72,-0 10.35,-4.63 10.35,-10.349l0,-17.601l39.34,0l0,17.601c0,5.719 4.64,10.349 10.35,10.349c5.72,-0 10.35,-4.63 10.35,-10.349l0,-17.601l30.17,0c5.07,0 9.17,4.11 9.17,9.17" style="fill:#dc29dd;fill-rule:nonzero;"/></g><g transform="matrix(1,0,0,1,1439.02,847.937)"><path d="M0,-60.039c0,5.72 4.63,10.35 10.35,10.35l17.6,0l-0,39.339l-17.6,0c-5.72,0 -10.35,4.631 -10.35,10.351c-0,5.72 4.63,10.35 10.35,10.35l17.6,0l-0,30.17c-0,5.07 -4.11,9.169 -9.17,9.169l-30.17,0l0,-17.599c0,-5.71 -4.64,-10.35 -10.35,-10.35c-5.72,0 -10.35,4.64 -10.35,10.35l0,17.599l-39.34,0l0,-17.599c0,-5.71 -4.64,-10.35 -10.35,-10.35c-5.72,0 -10.36,4.64 -10.36,10.35l0,17.599l-30.16,0c-5.07,0 -9.17,-4.099 -9.17,-9.169l0,-141.081c0,-5.059 4.1,-9.169 9.17,-9.169l141.08,0c5.06,0 9.17,4.11 9.17,9.169l-0,30.17l-17.6,0c-5.72,0 -10.35,4.631 -10.35,10.351" style="fill:#27a2fd;fill-rule:nonzero;"/></g><g transform="matrix(1,0,0,1,1647.09,888.458)"><path d="M0,-141.08l0,141.08c0,5.07 -4.1,9.17 -9.17,9.17l-141.08,-0c-5.06,-0 -9.17,-4.1 -9.17,-9.17l-0,-30.17l17.6,0c5.72,0 10.35,-4.63 10.35,-10.349c0,-5.72 -4.63,-10.351 -10.35,-10.351l-17.6,0l-0,-39.34l17.6,0c5.72,0 10.35,-4.63 10.35,-10.349c0,-5.72 -4.63,-10.351 -10.35,-10.351l-17.6,0l-0,-30.17c-0,-5.06 4.11,-9.17 9.17,-9.17l30.17,0l0,17.601c0,5.719 4.63,10.349 10.35,10.349c5.72,-0 10.35,-4.63 10.35,-10.349l0,-17.601l39.34,0l0,17.601c0,5.719 4.64,10.349 10.35,10.349c5.72,-0 10.35,-4.63 10.35,-10.349l0,-17.601l30.17,0c5.07,0 9.17,4.11 9.17,9.17" style="fill:#34f;fill-rule:nonzero;"/></g><g transform="matrix(1,0,0,1,2159.53,847.937)"><path d="M0,-60.04c0,5.71 4.64,10.35 10.35,10.35l17.6,0l-0,39.34l-17.6,0c-5.71,0 -10.35,4.63 -10.35,10.35c-0,5.71 4.64,10.35 10.35,10.35l17.6,0l-0,30.17c-0,5.06 -4.1,9.17 -9.17,9.17l-30.17,0l0,-17.6c0,-5.72 -4.63,-10.35 -10.35,-10.35c-5.71,0 -10.35,4.63 -10.35,10.35l0,17.6l-39.34,0l0,-17.6c0,-5.72 -4.63,-10.35 -10.35,-10.35c-5.72,0 -10.35,4.63 -10.35,10.35l0,17.6l-30.17,0c-5.06,0 -9.17,-4.11 -9.17,-9.17l0,-141.08c0,-5.07 4.11,-9.17 9.17,-9.17l141.08,0c5.07,0 9.17,4.1 9.17,9.17l-0,30.16l-17.6,0c-5.71,0 -10.35,4.64 -10.35,10.36" style="fill:#9722ff;fill-rule:nonzero;"/></g><g transform="matrix(1,0,0,1,2339.66,847.937)"><path d="M0,-60.04c0,5.71 4.63,10.35 10.35,10.35l17.6,0l-0,39.34l-17.6,0c-5.72,0 -10.35,4.63 -10.35,10.35c-0,5.71 4.63,10.35 10.35,10.35l17.6,0l-0,30.17c-0,5.06 -4.11,9.17 -9.17,9.17l-141.08,0c-5.07,0 -9.17,-4.11 -9.17,-9.17l0,-30.17l17.59,0c5.72,0 10.36,-4.64 10.36,-10.35c0,-5.72 -4.64,-10.35 -10.36,-10.35l-17.59,0l0,-39.34l17.59,0c5.72,0 10.36,-4.64 10.36,-10.35c0,-5.72 -4.64,-10.36 -10.36,-10.36l-17.59,0l0,-30.16c0,-5.07 4.1,-9.17 9.17,-9.17l141.08,0c5.06,0 9.17,4.1 9.17,9.17l-0,30.16l-17.6,0c-5.72,0 -10.35,4.64 -10.35,10.36" style="fill:#dc29dd;fill-rule:nonzero;"/></g><g transform="matrix(1,0,0,1,2547.73,888.457)"><path d="M0,-141.079l0,141.079c0,5.061 -4.1,9.171 -9.17,9.171l-30.17,-0l0,-17.601c0,-5.719 -4.63,-10.349 -10.35,-10.349c-5.71,-0 -10.35,4.63 -10.35,10.349l0,17.601l-39.34,-0l0,-17.601c0,-5.719 -4.63,-10.349 -10.35,-10.349c-5.72,-0 -10.35,4.63 -10.35,10.349l0,17.601l-30.17,-0c-5.06,-0 -9.17,-4.11 -9.17,-9.171l-0,-30.17l17.6,0c5.72,0 10.35,-4.639 10.35,-10.349c0,-5.72 -4.63,-10.35 -10.35,-10.35l-17.6,0l-0,-39.341l17.6,0c5.72,0 10.35,-4.64 10.35,-10.349c0,-5.72 -4.63,-10.361 -10.35,-10.361l-17.6,0l-0,-30.159c-0,-5.07 4.11,-9.171 9.17,-9.171l141.08,0c5.07,0 9.17,4.101 9.17,9.171" style="fill:#27a2fd;fill-rule:nonzero;"/></g></g></g></g></svg>