<?xml version="1.0" encoding="UTF-8" standalone="no"?><!DOCTYPE svg PUBLIC "-//W3C//DTD SVG 1.1//EN" "http://www.w3.org/Graphics/SVG/1.1/DTD/svg11.dtd"><svg width="100%" height="100%" viewBox="0 0 20320 20320" version="1.1" xmlns="http://www.w3.org/2000/svg" xmlns:xlink="http://www.w3.org/1999/xlink" xml:space="preserve" xmlns:serif="http://www.serif.com/" style="fill-rule:evenodd;clip-rule:evenodd;stroke-linejoin:round;stroke-miterlimit:2;"><g transform="matrix(4.16667,0,0,4.16667,-12063,-2340.19)"><g transform="matrix(4.16667,0,0,4.16667,0,0)"><g transform="matrix(0.457197,0,0,0.812784,694.827,134.795)"><rect x="0" y="0" width="2560" height="1440" style="fill:#f9f3ff;"/></g><g transform="matrix(1.08296,0,0,1.08296,-124.775,516.966)"><g opacity="0.15"><g transform="matrix(0.221615,0,0,0.221615,295.375,-477.45)"><path d="M2806.86,2140.92l-636.6,-0c-22.833,-0 -41.379,-18.546 -41.379,-41.383l0,-136.137l79.418,-0c25.81,-0 46.702,-20.933 46.702,-46.698c0,-25.811 -20.892,-46.703 -46.702,-46.703l-79.418,0l0,-177.52l79.418,0c25.81,0 46.702,-20.937 46.702,-46.698c0,-25.811 -20.892,-46.752 -46.702,-46.752l-79.418,-0l0,-136.088c0,-22.877 18.546,-41.383 41.379,-41.383l636.6,0c22.878,0 41.378,18.506 41.378,41.383l0,636.596c0,22.837 -18.5,41.383 -41.378,41.383Z" style="fill:#27a2fd;"/></g><g transform="matrix(1,0,0,1,1799.26,487.693)"><path d="M0,-60.04c0,5.71 4.64,10.35 10.35,10.35l17.6,0l0,39.34l-17.6,0c-5.71,0 -10.35,4.63 -10.35,10.35c0,5.71 4.64,10.35 10.35,10.35l17.6,0l0,30.17c0,5.06 -4.1,9.17 -9.17,9.17l-30.17,0l0,-17.6c0,-5.72 -4.63,-10.35 -10.35,-10.35c-5.71,0 -10.35,4.63 -10.35,10.35l0,17.6l-39.34,0l0,-17.6c0,-5.72 -4.63,-10.35 -10.35,-10.35c-5.72,0 -10.35,4.63 -10.35,10.35l0,17.6l-30.17,0c-5.06,0 -9.17,-4.11 -9.17,-9.17l0,-141.08c0,-5.07 4.11,-9.17 9.17,-9.17l141.08,0c5.07,0 9.17,4.1 9.17,9.17l0,30.16l-17.6,0c-5.71,0 -10.35,4.64 -10.35,10.36" style="fill:#9722ff;fill-rule:nonzero;"/></g><g transform="matrix(1,0,0,1,1827.21,708.332)"><path d="M0,-141.08l0,141.08c0,5.07 -4.1,9.17 -9.17,9.17l-30.17,0l0,-17.6c0,-5.71 -4.63,-10.349 -10.35,-10.349c-5.71,0 -10.35,4.639 -10.35,10.349l0,17.6l-39.34,0l0,-17.6c0,-5.71 -4.63,-10.349 -10.35,-10.349c-5.72,0 -10.35,4.639 -10.35,10.349l0,17.6l-30.17,0c-5.06,0 -9.17,-4.1 -9.17,-9.17l0,-141.08c0,-5.06 4.11,-9.17 9.17,-9.17l30.17,0l0,17.601c0,5.719 4.63,10.349 10.35,10.349c5.72,0 10.35,-4.63 10.35,-10.349l0,-17.601l39.34,0l0,17.601c0,5.719 4.64,10.349 10.35,10.349c5.72,0 10.35,-4.63 10.35,-10.349l0,-17.601l30.17,0c5.07,0 9.17,4.11 9.17,9.17" style="fill:#dc29dd;fill-rule:nonzero;"/></g><g transform="matrix(1,0,0,1,926.592,-192.287)"><path d="M0,-141.079l0,141.079c0,5.061 -4.11,9.171 -9.17,9.171l-141.08,0c-5.07,0 -9.17,-4.11 -9.17,-9.171l0,-30.17l17.59,0c5.72,0 10.36,-4.639 10.36,-10.349c0,-5.72 -4.64,-10.361 -10.36,-10.361l-17.59,0l0,-39.33l17.59,0c5.72,0 10.36,-4.64 10.36,-10.349c0,-5.72 -4.64,-10.361 -10.36,-10.361l-17.59,0l0,-30.159c0,-5.07 4.1,-9.171 9.17,-9.171l30.16,0l0,17.591c0,5.72 4.64,10.359 10.36,10.359c5.71,0 10.35,-4.639 10.35,-10.359l0,-17.591l39.34,0l0,17.591c0,5.72 4.63,10.359 10.35,10.359c5.71,0 10.35,-4.639 10.35,-10.359l0,-17.591l30.17,0c5.06,0 9.17,4.101 9.17,9.171" style="fill:#34f;fill-rule:nonzero;"/></g><g transform="matrix(1,0,0,1,1078.77,-232.807)"><path d="M0,-60.04c0,5.71 4.64,10.35 10.35,10.35l17.6,0l0,39.34l-17.6,0c-5.71,0 -10.35,4.63 -10.35,10.35c0,5.71 4.64,10.35 10.35,10.35l17.6,0l0,30.17c0,5.06 -4.1,9.17 -9.17,9.17l-30.17,0l0,-17.6c0,-5.72 -4.63,-10.35 -10.35,-10.35c-5.71,0 -10.35,4.63 -10.35,10.35l0,17.6l-39.34,0l0,-17.6c0,-5.72 -4.63,-10.35 -10.35,-10.35c-5.72,0 -10.35,4.63 -10.35,10.35l0,17.6l-30.17,0c-5.06,0 -9.17,-4.11 -9.17,-9.17l0,-141.08c0,-5.07 4.11,-9.17 9.17,-9.17l141.08,0c5.07,0 9.17,4.1 9.17,9.17l0,30.16l-17.6,0c-5.71,0 -10.35,4.64 -10.35,10.36" style="fill:#9722ff;fill-rule:nonzero;"/></g><g transform="matrix(1,0,0,1,1258.9,-232.807)"><path d="M0,-60.04c0,5.71 4.63,10.35 10.35,10.35l17.6,0l0,39.34l-17.6,0c-5.72,0 -10.35,4.63 -10.35,10.35c0,5.71 4.63,10.35 10.35,10.35l17.6,0l0,30.17c0,5.06 -4.11,9.17 -9.17,9.17l-141.08,0c-5.07,0 -9.17,-4.11 -9.17,-9.17l0,-30.17l17.59,0c5.72,0 10.36,-4.64 10.36,-10.35c0,-5.72 -4.64,-10.35 -10.36,-10.35l-17.59,0l0,-39.34l17.59,0c5.72,0 10.36,-4.64 10.36,-10.35c0,-5.72 -4.64,-10.36 -10.36,-10.36l-17.59,0l0,-30.16c0,-5.07 4.1,-9.17 9.17,-9.17l141.08,0c5.06,0 9.17,4.1 9.17,9.17l0,30.16l-17.6,0c-5.72,0 -10.35,4.64 -10.35,10.36" style="fill:#dc29dd;fill-rule:nonzero;"/></g><g transform="matrix(1,0,0,1,1466.97,-192.287)"><path d="M0,-141.079l0,141.079c0,5.061 -4.1,9.171 -9.17,9.171l-30.17,0l0,-17.601c0,-5.719 -4.63,-10.349 -10.35,-10.349c-5.71,0 -10.35,4.63 -10.35,10.349l0,17.601l-39.34,0l0,-17.601c0,-5.719 -4.63,-10.349 -10.35,-10.349c-5.72,0 -10.35,4.63 -10.35,10.349l0,17.601l-30.17,0c-5.06,0 -9.17,-4.11 -9.17,-9.171l0,-30.17l17.6,0c5.72,0 10.35,-4.639 10.35,-10.349c0,-5.72 -4.63,-10.35 -10.35,-10.35l-17.6,0l0,-39.341l17.6,0c5.72,0 10.35,-4.64 10.35,-10.349c0,-5.72 -4.63,-10.361 -10.35,-10.361l-17.6,0l0,-30.159c0,-5.07 4.11,-9.171 9.17,-9.171l141.08,0c5.07,0 9.17,4.101 9.17,9.171" style="fill:#27a2fd;fill-rule:nonzero;"/></g><g transform="matrix(1,0,0,1,1106.83,-12.3315)"><path d="M0,-141.08l0,141.08c0,5.07 -4.1,9.17 -9.17,9.17l-30.17,0l0,-17.6c0,-5.71 -4.63,-10.349 -10.35,-10.349c-5.71,0 -10.35,4.639 -10.35,10.349l0,17.6l-39.34,0l0,-17.6c0,-5.71 -4.63,-10.349 -10.35,-10.349c-5.72,0 -10.35,4.639 -10.35,10.349l0,17.6l-30.17,0c-5.06,0 -9.17,-4.1 -9.17,-9.17l0,-141.08c0,-5.06 4.11,-9.17 9.17,-9.17l30.17,0l0,17.601c0,5.719 4.63,10.349 10.35,10.349c5.72,0 10.35,-4.63 10.35,-10.349l0,-17.601l39.34,0l0,17.601c0,5.719 4.64,10.349 10.35,10.349c5.72,0 10.35,-4.63 10.35,-10.349l0,-17.601l30.17,0c5.07,0 9.17,4.11 9.17,9.17" style="fill:#dc29dd;fill-rule:nonzero;"/></g><g transform="matrix(1,0,0,1,1258.9,-52.6878)"><path d="M0,-60.039c0,5.72 4.63,10.35 10.35,10.35l17.6,0l0,39.339l-17.6,0c-5.72,0 -10.35,4.631 -10.35,10.351c0,5.72 4.63,10.35 10.35,10.35l17.6,0l0,30.17c0,5.07 -4.11,9.169 -9.17,9.169l-30.17,0l0,-17.599c0,-5.71 -4.64,-10.35 -10.35,-10.35c-5.72,0 -10.35,4.64 -10.35,10.35l0,17.599l-39.34,0l0,-17.599c0,-5.71 -4.64,-10.35 -10.35,-10.35c-5.72,0 -10.36,4.64 -10.36,10.35l0,17.599l-30.16,0c-5.07,0 -9.17,-4.099 -9.17,-9.169l0,-141.081c0,-5.059 4.1,-9.169 9.17,-9.169l141.08,0c5.06,0 9.17,4.11 9.17,9.169l0,30.17l-17.6,0c-5.72,0 -10.35,4.631 -10.35,10.351" style="fill:#27a2fd;fill-rule:nonzero;"/></g><g transform="matrix(1,0,0,1,1078.76,127.443)"><path d="M0,-60.04c0,5.71 4.64,10.35 10.35,10.35l17.6,0l0,39.33l-17.6,0c-5.71,0 -10.35,4.64 -10.35,10.36c0,5.71 4.64,10.35 10.35,10.35l17.6,0l0,30.17c0,5.06 -4.1,9.17 -9.17,9.17l-141.08,0c-5.06,0 -9.17,-4.11 -9.17,-9.17l0,-141.08c0,-5.07 4.11,-9.17 9.17,-9.17l30.17,0l0,17.59c0,5.72 4.63,10.36 10.35,10.36c5.72,0 10.35,-4.64 10.35,-10.36l0,-17.59l39.34,0l0,17.59c0,5.72 4.64,10.36 10.35,10.36c5.72,0 10.35,-4.64 10.35,-10.36l0,-17.59l30.17,0c5.07,0 9.17,4.1 9.17,9.17l0,30.16l-17.6,0c-5.71,0 -10.35,4.64 -10.35,10.36" style="fill:#9722ff;fill-rule:nonzero;"/></g><g transform="matrix(1,0,0,1,1466.96,-12.1673)"><path d="M0,-141.08l0,141.08c0,5.07 -4.1,9.17 -9.17,9.17l-141.08,0c-5.06,0 -9.17,-4.1 -9.17,-9.17l0,-30.17l17.6,0c5.72,0 10.35,-4.63 10.35,-10.349c0,-5.72 -4.63,-10.351 -10.35,-10.351l-17.6,0l0,-39.34l17.6,0c5.72,0 10.35,-4.63 10.35,-10.349c0,-5.72 -4.63,-10.351 -10.35,-10.351l-17.6,0l0,-30.17c0,-5.06 4.11,-9.17 9.17,-9.17l30.17,0l0,17.601c0,5.719 4.63,10.349 10.35,10.349c5.72,0 10.35,-4.63 10.35,-10.349l0,-17.601l39.34,0l0,17.601c0,5.719 4.64,10.349 10.35,10.349c5.72,0 10.35,-4.63 10.35,-10.349l0,-17.601l30.17,0c5.07,0 9.17,4.11 9.17,9.17" style="fill:#34f;fill-rule:nonzero;"/></g><g transform="matrix(1,0,0,1,1286.84,167.963)"><path d="M0,-141.079l0,141.079c0,5.061 -4.11,9.171 -9.17,9.171l-141.08,0c-5.07,0 -9.17,-4.11 -9.17,-9.171l0,-30.17l17.59,0c5.72,0 10.36,-4.639 10.36,-10.349c0,-5.72 -4.64,-10.361 -10.36,-10.361l-17.59,0l0,-39.33l17.59,0c5.72,0 10.36,-4.64 10.36,-10.349c0,-5.72 -4.64,-10.361 -10.36,-10.361l-17.59,0l0,-30.159c0,-5.07 4.1,-9.171 9.17,-9.171l30.16,0l0,17.591c0,5.72 4.64,10.359 10.36,10.359c5.71,0 10.35,-4.639 10.35,-10.359l0,-17.591l39.34,0l0,17.591c0,5.72 4.63,10.359 10.35,10.359c5.71,0 10.35,-4.639 10.35,-10.359l0,-17.591l30.17,0c5.06,0 9.17,4.101 9.17,9.171" style="fill:#34f;fill-rule:nonzero;"/></g><g transform="matrix(1,0,0,1,1439.02,127.443)"><path d="M0,-60.04c0,5.71 4.64,10.35 10.35,10.35l17.6,0l0,39.34l-17.6,0c-5.71,0 -10.35,4.63 -10.35,10.35c0,5.71 4.64,10.35 10.35,10.35l17.6,0l0,30.17c0,5.06 -4.1,9.17 -9.17,9.17l-30.17,0l0,-17.6c0,-5.72 -4.63,-10.35 -10.35,-10.35c-5.71,0 -10.35,4.63 -10.35,10.35l0,17.6l-39.34,0l0,-17.6c0,-5.72 -4.63,-10.35 -10.35,-10.35c-5.72,0 -10.35,4.63 -10.35,10.35l0,17.6l-30.17,0c-5.06,0 -9.17,-4.11 -9.17,-9.17l0,-141.08c0,-5.07 4.11,-9.17 9.17,-9.17l141.08,0c5.07,0 9.17,4.1 9.17,9.17l0,30.16l-17.6,0c-5.71,0 -10.35,4.64 -10.35,10.36" style="fill:#9722ff;fill-rule:nonzero;"/></g><g transform="matrix(0.221615,0,0,0.221615,1015.89,-297.325)"><path d="M2806.86,2140.92l-636.6,-0c-22.833,-0 -41.379,-18.546 -41.379,-41.383l0,-136.137l79.418,-0c25.81,-0 46.702,-20.933 46.702,-46.698c0,-25.811 -20.892,-46.703 -46.702,-46.703l-79.418,0l0,-177.52l79.418,0c25.81,0 46.702,-20.937 46.702,-46.698c0,-25.811 -20.892,-46.752 -46.702,-46.752l-79.418,-0l0,-136.088c0,-22.877 18.546,-41.383 41.379,-41.383l636.6,0c22.878,0 41.378,18.506 41.378,41.383l0,636.596c0,22.837 -18.5,41.383 -41.378,41.383Z" style="fill:#dc29dd;"/></g><g transform="matrix(1,0,0,1,1799.28,-52.6868)"><path d="M0,-60.04c0,5.71 4.63,10.35 10.35,10.35l17.6,0l0,39.34l-17.6,0c-5.72,0 -10.35,4.63 -10.35,10.35c0,5.71 4.63,10.35 10.35,10.35l17.6,0l0,30.17c0,5.06 -4.11,9.17 -9.17,9.17l-141.08,0c-5.07,0 -9.17,-4.11 -9.17,-9.17l0,-30.17l17.59,0c5.72,0 10.36,-4.64 10.36,-10.35c0,-5.72 -4.64,-10.35 -10.36,-10.35l-17.59,0l0,-39.34l17.59,0c5.72,0 10.36,-4.64 10.36,-10.35c0,-5.72 -4.64,-10.36 -10.36,-10.36l-17.59,0l0,-30.16c0,-5.07 4.1,-9.17 9.17,-9.17l141.08,0c5.06,0 9.17,4.1 9.17,9.17l0,30.16l-17.6,0c-5.72,0 -10.35,4.64 -10.35,10.36" style="fill:#34f;fill-rule:nonzero;"/></g><g transform="matrix(6.12323e-17,-1,1,6.12323e-17,1818.05,17.7135)"><path d="M0,-141.079l0,141.079c0,5.061 -4.1,9.171 -9.17,9.171l-30.17,0l0,-17.601c0,-5.719 -4.63,-10.349 -10.35,-10.349c-5.71,0 -10.35,4.63 -10.35,10.349l0,17.601l-39.34,0l0,-17.601c0,-5.719 -4.63,-10.349 -10.35,-10.349c-5.72,0 -10.35,4.63 -10.35,10.349l0,17.601l-30.17,0c-5.06,0 -9.17,-4.11 -9.17,-9.171l0,-30.17l17.6,0c5.72,0 10.35,-4.639 10.35,-10.349c0,-5.72 -4.63,-10.35 -10.35,-10.35l-17.6,0l0,-39.341l17.6,0c5.72,0 10.35,-4.64 10.35,-10.349c0,-5.72 -4.63,-10.361 -10.35,-10.361l-17.6,0l0,-30.159c0,-5.07 4.11,-9.171 9.17,-9.171l141.08,0c5.07,0 9.17,4.101 9.17,9.171" style="fill:#27a2fd;fill-rule:nonzero;"/></g><g transform="matrix(1,0,0,1,1466.96,348.083)"><path d="M0,-141.08l0,141.08c0,5.07 -4.1,9.17 -9.17,9.17l-30.17,0l0,-17.6c0,-5.71 -4.63,-10.349 -10.35,-10.349c-5.71,0 -10.35,4.639 -10.35,10.349l0,17.6l-39.34,0l0,-17.6c0,-5.71 -4.63,-10.349 -10.35,-10.349c-5.72,0 -10.35,4.639 -10.35,10.349l0,17.6l-30.17,0c-5.06,0 -9.17,-4.1 -9.17,-9.17l0,-141.08c0,-5.06 4.11,-9.17 9.17,-9.17l30.17,0l0,17.601c0,5.719 4.63,10.349 10.35,10.349c5.72,0 10.35,-4.63 10.35,-10.349l0,-17.601l39.34,0l0,17.601c0,5.719 4.64,10.349 10.35,10.349c5.72,0 10.35,-4.63 10.35,-10.349l0,-17.601l30.17,0c5.07,0 9.17,4.11 9.17,9.17" style="fill:#dc29dd;fill-rule:nonzero;"/></g><g transform="matrix(1,0,0,1,1619.15,307.562)"><path d="M0,-60.039c0,5.72 4.63,10.35 10.35,10.35l17.6,0l0,39.339l-17.6,0c-5.72,0 -10.35,4.631 -10.35,10.351c0,5.72 4.63,10.35 10.35,10.35l17.6,0l0,30.17c0,5.07 -4.11,9.169 -9.17,9.169l-30.17,0l0,-17.599c0,-5.71 -4.64,-10.35 -10.35,-10.35c-5.72,0 -10.35,4.64 -10.35,10.35l0,17.599l-39.34,0l0,-17.599c0,-5.71 -4.64,-10.35 -10.35,-10.35c-5.72,0 -10.36,4.64 -10.36,10.35l0,17.599l-30.16,0c-5.07,0 -9.17,-4.099 -9.17,-9.169l0,-141.081c0,-5.059 4.1,-9.169 9.17,-9.169l141.08,0c5.06,0 9.17,4.11 9.17,9.169l0,30.17l-17.6,0c-5.72,0 -10.35,4.631 -10.35,10.351" style="fill:#27a2fd;fill-rule:nonzero;"/></g><g transform="matrix(1,0,0,1,1439.01,487.693)"><path d="M0,-60.04c0,5.71 4.64,10.35 10.35,10.35l17.6,0l0,39.33l-17.6,0c-5.71,0 -10.35,4.64 -10.35,10.36c0,5.71 4.64,10.35 10.35,10.35l17.6,0l0,30.17c0,5.06 -4.1,9.17 -9.17,9.17l-141.08,0c-5.06,0 -9.17,-4.11 -9.17,-9.17l0,-141.08c0,-5.07 4.11,-9.17 9.17,-9.17l30.17,0l0,17.59c0,5.72 4.63,10.36 10.35,10.36c5.72,0 10.35,-4.64 10.35,-10.36l0,-17.59l39.34,0l0,17.59c0,5.72 4.64,10.36 10.35,10.36c5.72,0 10.35,-4.64 10.35,-10.36l0,-17.59l30.17,0c5.07,0 9.17,4.1 9.17,9.17l0,30.16l-17.6,0c-5.71,0 -10.35,4.64 -10.35,10.36" style="fill:#9722ff;fill-rule:nonzero;"/></g><g transform="matrix(1,0,0,1,1827.21,348.083)"><path d="M0,-141.08l0,141.08c0,5.07 -4.1,9.17 -9.17,9.17l-141.08,0c-5.06,0 -9.17,-4.1 -9.17,-9.17l0,-30.17l17.6,0c5.72,0 10.35,-4.63 10.35,-10.349c0,-5.72 -4.63,-10.351 -10.35,-10.351l-17.6,0l0,-39.34l17.6,0c5.72,0 10.35,-4.63 10.35,-10.349c0,-5.72 -4.63,-10.351 -10.35,-10.351l-17.6,0l0,-30.17c0,-5.06 4.11,-9.17 9.17,-9.17l30.17,0l0,17.601c0,5.719 4.63,10.349 10.35,10.349c5.72,0 10.35,-4.63 10.35,-10.349l0,-17.601l39.34,0l0,17.601c0,5.719 4.64,10.349 10.35,10.349c5.72,0 10.35,-4.63 10.35,-10.349l0,-17.601l30.17,0c5.07,0 9.17,4.11 9.17,9.17" style="fill:#34f;fill-rule:nonzero;"/></g><g transform="matrix(1,0,0,1,1647.09,528.213)"><path d="M0,-141.079l0,141.079c0,5.061 -4.11,9.171 -9.17,9.171l-141.08,0c-5.07,0 -9.17,-4.11 -9.17,-9.171l0,-30.17l17.59,0c5.72,0 10.36,-4.639 10.36,-10.349c0,-5.72 -4.64,-10.361 -10.36,-10.361l-17.59,0l0,-39.33l17.59,0c5.72,0 10.36,-4.64 10.36,-10.349c0,-5.72 -4.64,-10.361 -10.36,-10.361l-17.59,0l0,-30.159c0,-5.07 4.1,-9.171 9.17,-9.171l30.16,0l0,17.591c0,5.72 4.64,10.359 10.36,10.359c5.71,0 10.35,-4.639 10.35,-10.359l0,-17.591l39.34,0l0,17.591c0,5.72 4.63,10.359 10.35,10.359c5.71,0 10.35,-4.639 10.35,-10.359l0,-17.591l30.17,0c5.06,0 9.17,4.101 9.17,9.171" style="fill:#34f;fill-rule:nonzero;"/></g><g transform="matrix(1,0,0,1,1647.1,-192.298)"><path d="M0,-141.08l0,141.08c0,5.07 -4.1,9.17 -9.17,9.17l-30.17,0l0,-17.6c0,-5.71 -4.63,-10.349 -10.35,-10.349c-5.71,0 -10.35,4.639 -10.35,10.349l0,17.6l-39.34,0l0,-17.6c0,-5.71 -4.63,-10.349 -10.35,-10.349c-5.72,0 -10.35,4.639 -10.35,10.349l0,17.6l-30.17,0c-5.06,0 -9.17,-4.1 -9.17,-9.17l0,-141.08c0,-5.06 4.11,-9.17 9.17,-9.17l30.17,0l0,17.601c0,5.719 4.63,10.349 10.35,10.349c5.72,0 10.35,-4.63 10.35,-10.349l0,-17.601l39.34,0l0,17.601c0,5.719 4.64,10.349 10.35,10.349c5.72,0 10.35,-4.63 10.35,-10.349l0,-17.601l30.17,0c5.07,0 9.17,4.11 9.17,9.17" style="fill:#dc29dd;fill-rule:nonzero;"/></g><g transform="matrix(1.19434e-15,-1,1,1.19434e-15,1777.54,-314.598)"><path d="M0,-60.039c0,5.72 4.63,10.35 10.35,10.35l17.6,0l0,39.339l-17.6,0c-5.72,0 -10.35,4.631 -10.35,10.351c0,5.72 4.63,10.35 10.35,10.35l17.6,0l0,30.17c0,5.07 -4.11,9.169 -9.17,9.169l-30.17,0l0,-17.599c0,-5.71 -4.64,-10.35 -10.35,-10.35c-5.72,0 -10.35,4.64 -10.35,10.35l0,17.599l-39.34,0l0,-17.599c0,-5.71 -4.64,-10.35 -10.35,-10.35c-5.72,0 -10.36,4.64 -10.36,10.35l0,17.599l-30.16,0c-5.07,0 -9.17,-4.099 -9.17,-9.169l0,-141.081c0,-5.059 4.1,-9.169 9.17,-9.169l141.08,0c5.06,0 9.17,4.11 9.17,9.169l0,30.17l-17.6,0c-5.72,0 -10.35,4.631 -10.35,10.351" style="fill:#27a2fd;fill-rule:nonzero;"/></g><g transform="matrix(1,0,0,1,1619.15,-52.6873)"><path d="M0,-60.04c0,5.71 4.64,10.35 10.35,10.35l17.6,0l0,39.33l-17.6,0c-5.71,0 -10.35,4.64 -10.35,10.36c0,5.71 4.64,10.35 10.35,10.35l17.6,0l0,30.17c0,5.06 -4.1,9.17 -9.17,9.17l-141.08,0c-5.06,0 -9.17,-4.11 -9.17,-9.17l0,-141.08c0,-5.07 4.11,-9.17 9.17,-9.17l30.17,0l0,17.59c0,5.72 4.63,10.36 10.35,10.36c5.72,0 10.35,-4.64 10.35,-10.36l0,-17.59l39.34,0l0,17.59c0,5.72 4.64,10.36 10.35,10.36c5.72,0 10.35,-4.64 10.35,-10.36l0,-17.59l30.17,0c5.07,0 9.17,4.1 9.17,9.17l0,30.16l-17.6,0c-5.71,0 -10.35,4.64 -10.35,10.36" style="fill:#9722ff;fill-rule:nonzero;"/></g><g transform="matrix(6.12323e-17,-1,1,6.12323e-17,917.417,17.708)"><path d="M0,-141.08l0,141.08c0,5.07 -4.1,9.17 -9.17,9.17l-141.08,0c-5.06,0 -9.17,-4.1 -9.17,-9.17l0,-30.17l17.6,0c5.72,0 10.35,-4.63 10.35,-10.349c0,-5.72 -4.63,-10.351 -10.35,-10.351l-17.6,0l0,-39.34l17.6,0c5.72,0 10.35,-4.63 10.35,-10.349c0,-5.72 -4.63,-10.351 -10.35,-10.351l-17.6,0l0,-30.17c0,-5.06 4.11,-9.17 9.17,-9.17l30.17,0l0,17.601c0,5.719 4.63,10.349 10.35,10.349c5.72,0 10.35,-4.63 10.35,-10.349l0,-17.601l39.34,0l0,17.601c0,5.719 4.64,10.349 10.35,10.349c5.72,0 10.35,-4.63 10.35,-10.349l0,-17.601l30.17,0c5.07,0 9.17,4.11 9.17,9.17" style="fill:#34f;fill-rule:nonzero;"/></g><g transform="matrix(6.12323e-17,-1,1,6.12323e-17,876.902,225.788)"><path d="M0,-60.04c0,5.71 4.64,10.35 10.35,10.35l17.6,0l0,39.34l-17.6,0c-5.71,0 -10.35,4.63 -10.35,10.35c0,5.71 4.64,10.35 10.35,10.35l17.6,0l0,30.17c0,5.06 -4.1,9.17 -9.17,9.17l-30.17,0l0,-17.6c0,-5.72 -4.63,-10.35 -10.35,-10.35c-5.71,0 -10.35,4.63 -10.35,10.35l0,17.6l-39.34,0l0,-17.6c0,-5.72 -4.63,-10.35 -10.35,-10.35c-5.72,0 -10.35,4.63 -10.35,10.35l0,17.6l-30.17,0c-5.06,0 -9.17,-4.11 -9.17,-9.17l0,-141.08c0,-5.07 4.11,-9.17 9.17,-9.17l141.08,0c5.07,0 9.17,4.1 9.17,9.17l0,30.16l-17.6,0c-5.71,0 -10.35,4.64 -10.35,10.36" style="fill:#9722ff;fill-rule:nonzero;"/></g><g transform="matrix(1,0,0,1,1078.77,307.568)"><path d="M0,-60.04c0,5.71 4.63,10.35 10.35,10.35l17.6,0l0,39.34l-17.6,0c-5.72,0 -10.35,4.63 -10.35,10.35c0,5.71 4.63,10.35 10.35,10.35l17.6,0l0,30.17c0,5.06 -4.11,9.17 -9.17,9.17l-141.08,0c-5.07,0 -9.17,-4.11 -9.17,-9.17l0,-30.17l17.59,0c5.72,0 10.36,-4.64 10.36,-10.35c0,-5.72 -4.64,-10.35 -10.36,-10.35l-17.59,0l0,-39.34l17.59,0c5.72,0 10.36,-4.64 10.36,-10.35c0,-5.72 -4.64,-10.36 -10.36,-10.36l-17.59,0l0,-30.16c0,-5.07 4.1,-9.17 9.17,-9.17l141.08,0c5.06,0 9.17,4.1 9.17,9.17l0,30.16l-17.6,0c-5.72,0 -10.35,4.64 -10.35,10.36" style="fill:#dc29dd;fill-rule:nonzero;"/></g><g transform="matrix(1,0,0,1,1286.84,348.088)"><path d="M0,-141.079l0,141.079c0,5.061 -4.1,9.171 -9.17,9.171l-30.17,0l0,-17.601c0,-5.719 -4.63,-10.349 -10.35,-10.349c-5.71,0 -10.35,4.63 -10.35,10.349l0,17.601l-39.34,0l0,-17.601c0,-5.719 -4.63,-10.349 -10.35,-10.349c-5.72,0 -10.35,4.63 -10.35,10.349l0,17.601l-30.17,0c-5.06,0 -9.17,-4.11 -9.17,-9.171l0,-30.17l17.6,0c5.72,0 10.35,-4.639 10.35,-10.349c0,-5.72 -4.63,-10.35 -10.35,-10.35l-17.6,0l0,-39.341l17.6,0c5.72,0 10.35,-4.64 10.35,-10.349c0,-5.72 -4.63,-10.361 -10.35,-10.361l-17.6,0l0,-30.159c0,-5.07 4.11,-9.171 9.17,-9.171l141.08,0c5.07,0 9.17,4.101 9.17,9.171" style="fill:#27a2fd;fill-rule:nonzero;"/></g><g transform="matrix(1,0,0,1,1078.77,487.687)"><path d="M0,-60.039c0,5.72 4.63,10.35 10.35,10.35l17.6,0l0,39.339l-17.6,0c-5.72,0 -10.35,4.631 -10.35,10.351c0,5.72 4.63,10.35 10.35,10.35l17.6,0l0,30.17c0,5.07 -4.11,9.169 -9.17,9.169l-30.17,0l0,-17.599c0,-5.71 -4.64,-10.35 -10.35,-10.35c-5.72,0 -10.35,4.64 -10.35,10.35l0,17.599l-39.34,0l0,-17.599c0,-5.71 -4.64,-10.35 -10.35,-10.35c-5.72,0 -10.36,4.64 -10.36,10.35l0,17.599l-30.16,0c-5.07,0 -9.17,-4.099 -9.17,-9.169l0,-141.081c0,-5.059 4.1,-9.169 9.17,-9.169l141.08,0c5.06,0 9.17,4.11 9.17,9.169l0,30.17l-17.6,0c-5.72,0 -10.35,4.631 -10.35,10.351" style="fill:#27a2fd;fill-rule:nonzero;"/></g><g transform="matrix(6.12323e-17,1,-1,6.12323e-17,816.857,689.558)"><path d="M0,-60.04c0,5.71 4.64,10.35 10.35,10.35l17.6,0l0,39.33l-17.6,0c-5.71,0 -10.35,4.64 -10.35,10.36c0,5.71 4.64,10.35 10.35,10.35l17.6,0l0,30.17c0,5.06 -4.1,9.17 -9.17,9.17l-141.08,0c-5.06,0 -9.17,-4.11 -9.17,-9.17l0,-141.08c0,-5.07 4.11,-9.17 9.17,-9.17l30.17,0l0,17.59c0,5.72 4.63,10.36 10.35,10.36c5.72,0 10.35,-4.64 10.35,-10.36l0,-17.59l39.34,0l0,17.59c0,5.72 4.64,10.36 10.35,10.36c5.72,0 10.35,-4.64 10.35,-10.36l0,-17.59l30.17,0c5.07,0 9.17,4.1 9.17,9.17l0,30.16l-17.6,0c-5.71,0 -10.35,4.64 -10.35,10.36" style="fill:#9722ff;fill-rule:nonzero;"/></g><g transform="matrix(1,0,0,1,1286.84,528.208)"><path d="M0,-141.08l0,141.08c0,5.07 -4.1,9.17 -9.17,9.17l-141.08,0c-5.06,0 -9.17,-4.1 -9.17,-9.17l0,-30.17l17.6,0c5.72,0 10.35,-4.63 10.35,-10.349c0,-5.72 -4.63,-10.351 -10.35,-10.351l-17.6,0l0,-39.34l17.6,0c5.72,0 10.35,-4.63 10.35,-10.349c0,-5.72 -4.63,-10.351 -10.35,-10.351l-17.6,0l0,-30.17c0,-5.06 4.11,-9.17 9.17,-9.17l30.17,0l0,17.601c0,5.719 4.63,10.349 10.35,10.349c5.72,0 10.35,-4.63 10.35,-10.349l0,-17.601l39.34,0l0,17.601c0,5.719 4.64,10.349 10.35,10.349c5.72,0 10.35,-4.63 10.35,-10.349l0,-17.601l30.17,0c5.07,0 9.17,4.11 9.17,9.17" style="fill:#34f;fill-rule:nonzero;"/></g><g transform="matrix(1,0,0,1,1106.72,708.338)"><path d="M0,-141.079l0,141.079c0,5.061 -4.11,9.171 -9.17,9.171l-141.08,0c-5.07,0 -9.17,-4.11 -9.17,-9.171l0,-30.17l17.59,0c5.72,0 10.36,-4.639 10.36,-10.349c0,-5.72 -4.64,-10.361 -10.36,-10.361l-17.59,0l0,-39.33l17.59,0c5.72,0 10.36,-4.64 10.36,-10.349c0,-5.72 -4.64,-10.361 -10.36,-10.361l-17.59,0l0,-30.159c0,-5.07 4.1,-9.171 9.17,-9.171l30.16,0l0,17.591c0,5.72 4.64,10.359 10.36,10.359c5.71,0 10.35,-4.639 10.35,-10.359l0,-17.591l39.34,0l0,17.591c0,5.72 4.63,10.359 10.35,10.359c5.71,0 10.35,-4.639 10.35,-10.359l0,-17.591l30.17,0c5.06,0 9.17,4.101 9.17,9.171" style="fill:#34f;fill-rule:nonzero;"/></g><g transform="matrix(-0.221615,-2.714e-17,2.714e-17,-0.221615,1758.63,1032.55)"><path d="M2806.86,2140.92l-636.6,-0c-22.833,-0 -41.379,-18.546 -41.379,-41.383l0,-136.137l79.418,-0c25.81,-0 46.702,-20.933 46.702,-46.698c0,-25.811 -20.892,-46.703 -46.702,-46.703l-79.418,0l0,-177.52l79.418,0c25.81,0 46.702,-20.937 46.702,-46.698c0,-25.811 -20.892,-46.752 -46.702,-46.752l-79.418,-0l0,-136.088c0,-22.877 18.546,-41.383 41.379,-41.383l636.6,0c22.878,0 41.378,18.506 41.378,41.383l0,636.596c0,22.837 -18.5,41.383 -41.378,41.383Z" style="fill:#9722ff;"/></g><g transform="matrix(0.221615,0,0,0.221615,295.375,62.92)"><path d="M2806.86,2140.92l-636.6,-0c-22.833,-0 -41.379,-18.546 -41.379,-41.383l0,-136.137l79.418,-0c25.81,-0 46.702,-20.933 46.702,-46.698c0,-25.811 -20.892,-46.703 -46.702,-46.703l-79.418,0l0,-177.52l79.418,0c25.81,0 46.702,-20.937 46.702,-46.698c0,-25.811 -20.892,-46.752 -46.702,-46.752l-79.418,-0l0,-136.088c0,-22.877 18.546,-41.383 41.379,-41.383l636.6,0c22.878,0 41.378,18.506 41.378,41.383l0,636.596c0,22.837 -18.5,41.383 -41.378,41.383Z" style="fill:#dc29dd;"/></g><g transform="matrix(1,0,0,1,1439.02,667.818)"><path d="M0,-60.04c0,5.71 4.63,10.35 10.35,10.35l17.6,0l0,39.34l-17.6,0c-5.72,0 -10.35,4.63 -10.35,10.35c0,5.71 4.63,10.35 10.35,10.35l17.6,0l0,30.17c0,5.06 -4.11,9.17 -9.17,9.17l-141.08,0c-5.07,0 -9.17,-4.11 -9.17,-9.17l0,-30.17l17.59,0c5.72,0 10.36,-4.64 10.36,-10.35c0,-5.72 -4.64,-10.35 -10.36,-10.35l-17.59,0l0,-39.34l17.59,0c5.72,0 10.36,-4.64 10.36,-10.35c0,-5.72 -4.64,-10.36 -10.36,-10.36l-17.59,0l0,-30.16c0,-5.07 4.1,-9.17 9.17,-9.17l141.08,0c5.06,0 9.17,4.1 9.17,9.17l0,30.16l-17.6,0c-5.72,0 -10.35,4.64 -10.35,10.36" style="fill:#dc29dd;fill-rule:nonzero;"/></g><g transform="matrix(1,0,0,1,1647.09,708.338)"><path d="M0,-141.079l0,141.079c0,5.061 -4.1,9.171 -9.17,9.171l-30.17,0l0,-17.601c0,-5.719 -4.63,-10.349 -10.35,-10.349c-5.71,0 -10.35,4.63 -10.35,10.349l0,17.601l-39.34,0l0,-17.601c0,-5.719 -4.63,-10.349 -10.35,-10.349c-5.72,0 -10.35,4.63 -10.35,10.349l0,17.601l-30.17,0c-5.06,0 -9.17,-4.11 -9.17,-9.171l0,-30.17l17.6,0c5.72,0 10.35,-4.639 10.35,-10.349c0,-5.72 -4.63,-10.35 -10.35,-10.35l-17.6,0l0,-39.341l17.6,0c5.72,0 10.35,-4.64 10.35,-10.349c0,-5.72 -4.63,-10.361 -10.35,-10.361l-17.6,0l0,-30.159c0,-5.07 4.11,-9.171 9.17,-9.171l141.08,0c5.07,0 9.17,4.101 9.17,9.171" style="fill:#27a2fd;fill-rule:nonzero;"/></g></g></g></g></g></svg>