<?xml version="1.0" encoding="UTF-8" standalone="no"?>
<!DOCTYPE svg PUBLIC "-//W3C//DTD SVG 1.1//EN" "http://www.w3.org/Graphics/SVG/1.1/DTD/svg11.dtd">
<svg width="100%" height="100%" viewBox="0 0 512 512" version="1.1" xmlns="http://www.w3.org/2000/svg" xmlns:xlink="http://www.w3.org/1999/xlink" xml:space="preserve" xmlns:serif="http://www.serif.com/" style="fill-rule:evenodd;clip-rule:evenodd;stroke-linejoin:round;stroke-miterlimit:2;">
    <g>
        <g transform="matrix(0.474074,0,0,0.474074,0,0)">
            <rect x="0" y="0" width="1080" height="1080" style="fill:rgb(255,254,255);"/>
        </g>
        <g transform="matrix(0.474074,0,0,0.474074,0,0)">
            <path d="M0,0L1080,0L1080,1080L0,0Z" style="fill:rgb(144,50,207);"/>
        </g>
        <g transform="matrix(0.933508,0,0,0.922519,23.0057,21.2179)">
            <rect x="158" y="162" width="183" height="185" style="fill:rgb(255,254,255);"/>
        </g>
        <g transform="matrix(0.998047,0,0,0.998047,3.4861e-14,3.45279e-14)">
            <path d="M171,171L342,342L171,342L171,171Z" style="fill:rgb(144,50,207);"/>
        </g>
        <path d="M170.666,0L255.916,85.333L170.666,170.666L170.666,0Z" style="fill:white;"/>
        <g transform="matrix(1,0,0,1,-0.083,341.334)">
            <path d="M170.666,0L255.916,85.333L170.666,170.666L170.666,0Z" style="fill:rgb(144,50,207);"/>
        </g>
        <g transform="matrix(6.12323e-17,1,-1,6.12323e-17,170.583,0.002)">
            <path d="M170.666,0L255.916,85.333L170.666,170.666L170.666,0Z" style="fill:rgb(144,50,207);"/>
        </g>
        <g transform="matrix(6.12323e-17,1,-1,6.12323e-17,511.915,0.085)">
            <path d="M170.666,0L255.916,85.333L170.666,170.666L170.666,0Z" style="fill:white;"/>
        </g>
        <g transform="matrix(-1,0,0,1,511.998,0)">
            <path d="M170.666,0L255.916,85.333L170.666,170.666L170.666,0Z" style="fill:white;"/>
        </g>
        <g transform="matrix(-1,0,0,1,511.915,341.334)">
            <path d="M170.666,0L255.916,85.333L170.666,170.666L170.666,0Z" style="fill:rgb(144,50,207);"/>
        </g>
        <g transform="matrix(-6.12323e-17,-1,-1,6.12323e-17,170.583,512)">
            <path d="M170.666,0L255.916,85.333L170.666,170.666L170.666,0Z" style="fill:rgb(144,50,207);"/>
        </g>
        <g transform="matrix(-6.12323e-17,-1,-1,6.12323e-17,511.915,512.083)">
            <path d="M170.666,0L255.916,85.333L170.666,170.666L170.666,0Z" style="fill:white;"/>
        </g>
    </g>
</svg>
