<?xml version="1.0" encoding="UTF-8" standalone="no"?>
<!DOCTYPE svg PUBLIC "-//W3C//DTD SVG 1.1//EN" "http://www.w3.org/Graphics/SVG/1.1/DTD/svg11.dtd">
<svg width="100%" height="100%" viewBox="0 0 512 512" version="1.1" xmlns="http://www.w3.org/2000/svg" xmlns:xlink="http://www.w3.org/1999/xlink" xml:space="preserve" xmlns:serif="http://www.serif.com/" style="fill-rule:evenodd;clip-rule:evenodd;stroke-miterlimit:1.5;">
    <g id="Container" transform="matrix(0.83298,0,0,0.837464,48.1694,46.0175)">
        <rect x="19.005" y="21.473" width="460.995" height="458.527" style="fill:none;"/>
        <clipPath id="_clip1">
            <rect x="19.005" y="21.473" width="460.995" height="458.527"/>
        </clipPath>
        <g clip-path="url(#_clip1)">
            <g transform="matrix(0.426847,-1.65712e-17,1.66604e-17,0.424562,19.0048,21.4726)">
                <rect x="0" y="0" width="1080" height="1080" style="fill:rgb(144,50,207);"/>
            </g>
            <g transform="matrix(1.20051,7.3591e-33,-7.3987e-33,1.19408,-57.8278,-54.9487)">
                <path d="M64,64L448,448" style="fill:none;stroke:white;stroke-width:64px;stroke-dasharray:64,64;"/>
            </g>
            <g transform="matrix(1.20051,7.3591e-33,-7.3987e-33,1.19408,-57.8278,-54.9487)">
                <path d="M192,64L448,320" style="fill:none;stroke:white;stroke-width:64px;stroke-dasharray:64,64;stroke-dashoffset:-25.6;"/>
            </g>
            <g transform="matrix(1.20051,2.94364e-32,-2.95948e-32,1.19408,-57.8278,-54.9487)">
                <path d="M64,64L448,448L448,320L192,64" style="fill:white;"/>
            </g>
            <g transform="matrix(0.55972,0,0,0.556724,14.1558,191.183)">
                <g transform="matrix(428.968,0,0,428.968,64,448)">
                    <path d="M0.377,0.005C0.325,0.005 0.278,-0.005 0.235,-0.025C0.193,-0.046 0.157,-0.073 0.127,-0.107C0.096,-0.141 0.073,-0.18 0.056,-0.223C0.039,-0.266 0.031,-0.31 0.031,-0.355C0.031,-0.402 0.04,-0.448 0.058,-0.491C0.075,-0.534 0.1,-0.572 0.131,-0.606C0.162,-0.639 0.198,-0.666 0.241,-0.686C0.283,-0.705 0.329,-0.715 0.38,-0.715C0.431,-0.715 0.478,-0.705 0.521,-0.684C0.563,-0.663 0.599,-0.636 0.629,-0.601C0.659,-0.566 0.682,-0.528 0.699,-0.485C0.716,-0.442 0.724,-0.398 0.724,-0.353C0.724,-0.306 0.715,-0.262 0.698,-0.219C0.681,-0.175 0.657,-0.137 0.625,-0.103C0.595,-0.07 0.558,-0.043 0.516,-0.024C0.473,-0.005 0.427,0.005 0.377,0.005ZM0.378,-0.117C0.411,-0.117 0.441,-0.124 0.467,-0.138C0.493,-0.151 0.515,-0.17 0.532,-0.193C0.549,-0.216 0.563,-0.241 0.572,-0.27C0.581,-0.298 0.585,-0.326 0.585,-0.355C0.585,-0.386 0.58,-0.415 0.571,-0.444C0.561,-0.473 0.547,-0.498 0.53,-0.52C0.512,-0.542 0.49,-0.56 0.465,-0.573C0.439,-0.586 0.41,-0.593 0.378,-0.593C0.344,-0.593 0.314,-0.586 0.289,-0.573C0.263,-0.559 0.241,-0.541 0.224,-0.518C0.207,-0.495 0.194,-0.469 0.185,-0.441C0.175,-0.413 0.171,-0.384 0.171,-0.355C0.171,-0.324 0.176,-0.295 0.185,-0.266C0.194,-0.237 0.208,-0.212 0.226,-0.19C0.243,-0.168 0.265,-0.15 0.291,-0.137C0.316,-0.124 0.345,-0.117 0.378,-0.117ZM0.364,-0.263L0.494,-0.263L0.728,-0L0.598,-0L0.364,-0.263Z" style="fill:white;fill-rule:nonzero;"/>
                </g>
            </g>
        </g>
    </g>
</svg>
