<?xml version="1.0" encoding="UTF-8" standalone="no"?>
<!DOCTYPE svg PUBLIC "-//W3C//DTD SVG 1.1//EN" "http://www.w3.org/Graphics/SVG/1.1/DTD/svg11.dtd">
<svg width="100%" height="100%" viewBox="0 0 1500 1500" version="1.1" xmlns="http://www.w3.org/2000/svg" xmlns:xlink="http://www.w3.org/1999/xlink" xml:space="preserve" xmlns:serif="http://www.serif.com/" style="fill-rule:evenodd;clip-rule:evenodd;stroke-linejoin:round;stroke-miterlimit:2;">
    <g transform="matrix(1,0,0,1,-7875,0)">
        <g id="Quilt-Colorblocks" serif:id="Quilt Colorblocks" transform="matrix(0.940066,0,0,1,414.437,0)">
            <rect x="7936.21" y="0" width="1595.63" height="1500" style="fill:none;"/>
            <g transform="matrix(1.15162,0,0,1.02897,-593.664,212.37)">
                <rect x="7914.88" y="328.125" width="369.481" height="388.739" style="fill:white;"/>
            </g>
            <g transform="matrix(1.06375,0,0,1,-440.859,0)">
                <path d="M8348.81,550L8301.19,550C8301.19,563.534 8290.21,574.523 8276.67,574.523L8173.33,574.523C8159.79,574.523 8148.81,563.534 8148.81,550C8148.81,550 8101.19,550 8101.19,550L8101.2,550.268C8101.2,563.803 8090.21,574.791 8076.67,574.791L8025,574.791L8025,925.679L8076.67,925.679C8090.14,925.679 8101.09,936.557 8101.19,950L8148.81,950L8148.81,949.933C8148.81,936.398 8159.79,925.41 8173.33,925.41L8276.67,925.41C8290.21,925.41 8301.19,936.398 8301.19,949.933L8301.19,950L8348.81,950C8348.92,936.557 8359.86,925.679 8373.33,925.679L8400.44,925.679L8400.44,898.361C8400.44,884.827 8411.43,873.838 8424.97,873.838L8425,873.839L8425,826.229L8424.97,826.229C8411.43,826.229 8400.44,815.241 8400.44,801.706L8400.44,698.361C8400.44,684.827 8411.43,673.838 8424.97,673.838L8425,673.839L8425,626.228L8424.83,626.229C8411.3,626.229 8400.31,615.241 8400.31,601.706L8400.31,574.791L8373.33,574.791C8359.79,574.791 8348.81,563.803 8348.81,550.268L8348.81,550Z" style="fill:rgb(158,109,226);"/>
            </g>
            <g transform="matrix(1.06375,0,0,1,-440.859,0)">
                <path d="M8348.81,950L8301.19,950C8301.16,963.505 8290.18,974.455 8276.67,974.455L8173.33,974.455C8159.82,974.455 8148.84,963.505 8148.81,950L8101.19,950L8101.2,950.201C8101.2,963.736 8090.21,974.724 8076.67,974.724L8025,974.724L8025,1350L8400.44,1350L8400.44,1298.36C8400.44,1284.83 8411.43,1273.84 8424.97,1273.84L8425,1273.84L8425,1226.23C8411.57,1226.1 8400.71,1215.16 8400.71,1201.71L8400.71,1098.36C8400.71,1084.9 8411.57,1073.97 8425,1073.84L8425,1026.23L8424.97,1026.23C8411.43,1026.23 8400.44,1015.24 8400.44,1001.71L8400.44,974.724L8373.33,974.724C8359.79,974.724 8348.81,963.736 8348.81,950.201L8348.81,950Z" style="fill:rgb(120,118,231);"/>
            </g>
            <g transform="matrix(1.06375,0,0,1,-440.859,0)">
                <path d="M8748.81,950L8701.19,950L8701.19,950.067C8701.19,963.602 8690.21,974.59 8676.67,974.59L8573.33,974.59C8559.79,974.59 8548.81,963.602 8548.81,950.067L8548.81,950L8501.19,950L8501.19,950.201C8501.19,963.736 8490.21,974.724 8476.67,974.724L8449.49,974.724L8449.49,1001.71C8449.49,1015.23 8438.52,1026.21 8425,1026.23L8425,1073.84L8425.24,1073.84C8438.77,1073.84 8449.76,1084.83 8449.76,1098.36L8449.76,1201.71C8449.76,1215.24 8438.77,1226.23 8425.24,1226.23L8425,1226.23L8425,1273.84C8438.52,1273.86 8449.49,1284.84 8449.49,1298.36L8449.49,1350L8800.38,1350L8800.38,1298.36C8800.38,1284.83 8811.36,1273.84 8824.9,1273.84L8825,1273.84L8825,1226.23C8811.54,1226.14 8800.65,1215.18 8800.65,1201.71L8800.65,1098.36C8800.65,1084.88 8811.54,1073.93 8825,1073.84L8825,1026.23L8824.9,1026.23C8811.36,1026.23 8800.38,1015.24 8800.38,1001.71L8800.38,974.59L8773.33,974.59C8759.79,974.59 8748.81,963.602 8748.81,950.067L8748.81,950Z" style="fill:rgb(109,147,226);"/>
            </g>
            <g transform="matrix(1.06375,0,0,1,-440.859,0)">
                <path d="M9148.81,550L9101.19,550C9101.12,563.473 9090.16,574.388 9076.67,574.388L8973.33,574.388C8959.84,574.388 8948.88,563.473 8948.81,550L8901.19,550L8901.19,550.134C8901.19,563.669 8890.21,574.657 8876.67,574.657L8849.29,574.657L8849.29,601.706C8849.29,615.162 8838.43,626.101 8825,626.227L8825,673.839C8838.49,673.893 8849.42,684.86 8849.42,698.361L8849.42,801.706C8849.42,815.207 8838.49,826.174 8825,826.228L8825,873.839C8838.49,873.893 8849.42,884.86 8849.42,898.361L8849.42,925.545L8876.67,925.545C8890.18,925.545 8901.16,936.495 8901.19,950L8948.81,950L8948.81,949.799C8948.81,936.264 8959.79,925.276 8973.33,925.276L9076.67,925.276C9090.21,925.276 9101.19,936.264 9101.19,949.799L9101.19,950L9148.81,950C9148.84,936.495 9159.82,925.545 9173.33,925.545L9225,925.545L9225,574.657L9173.33,574.657C9159.79,574.657 9148.81,563.669 9148.81,550.134L9148.81,550Z" style="fill:rgb(148,175,228);"/>
            </g>
            <g transform="matrix(1.06375,0,0,1,-440.859,0)">
                <path d="M9225,525.612L9225,150L8849.29,150L8849.29,201.706C8849.29,215.162 8838.43,226.101 8825,226.227L8825,273.839L8825.03,273.838C8838.57,273.838 8849.56,284.827 8849.56,298.361L8849.56,401.706C8849.56,415.241 8838.57,426.229 8825.03,426.229L8825,426.229L8825,473.84C8838.43,473.966 8849.29,484.905 8849.29,498.361L8849.29,525.612L8876.67,525.612C8890.16,525.612 8901.12,536.527 8901.19,550L8948.81,550L8948.81,549.866C8948.81,536.331 8959.79,525.343 8973.33,525.343L9076.67,525.343C9090.21,525.343 9101.19,536.331 9101.19,549.866L9101.19,550L9148.81,550C9148.88,536.527 9159.84,525.612 9173.33,525.612L9225,525.612Z" style="fill:rgb(213,185,233);"/>
            </g>
            <g transform="matrix(1.06375,0,0,1,-440.859,0)">
                <path d="M8800.24,150L8449.35,150L8449.35,201.706C8449.35,215.185 8438.46,226.139 8425,226.228L8425,273.839L8425.1,273.838C8438.64,273.838 8449.62,284.827 8449.62,298.361L8449.62,401.706C8449.62,415.241 8438.64,426.229 8425.1,426.229L8425,426.228L8425,473.839C8438.46,473.929 8449.35,484.882 8449.35,498.361L8449.35,525.746L8476.67,525.746C8490.12,525.746 8501.05,536.59 8501.19,550L8548.81,550C8548.88,536.527 8559.84,525.612 8573.33,525.612L8676.67,525.612C8690.16,525.612 8701.12,536.527 8701.19,550L8748.81,550C8748.88,536.527 8759.84,525.612 8773.33,525.612L8800.24,525.612L8800.24,498.361C8800.24,484.827 8811.23,473.838 8824.76,473.838L8825,473.84L8825,426.229C8811.48,426.211 8800.51,415.23 8800.51,401.706L8800.51,298.361C8800.51,284.837 8811.48,273.856 8825,273.839L8825,226.227L8824.76,226.229C8811.23,226.229 8800.24,215.241 8800.24,201.706L8800.24,150Z" style="fill:rgb(167,110,207);"/>
            </g>
            <g transform="matrix(1.06375,0,0,1,-440.859,0)">
                <path d="M8400.31,150L8025,150L8025,525.746L8076.67,525.746C8090.12,525.746 8101.05,536.59 8101.19,550L8148.81,550C8148.81,536.466 8159.79,525.477 8173.33,525.477L8276.67,525.477C8290.21,525.477 8301.19,536.466 8301.19,550L8348.81,550C8348.95,536.59 8359.88,525.746 8373.33,525.746L8400.31,525.746L8400.31,498.361C8400.31,484.827 8411.3,473.838 8424.83,473.838L8425,473.839L8425,426.228C8411.51,426.174 8400.58,415.207 8400.58,401.706L8400.58,298.361C8400.58,284.86 8411.51,273.893 8425,273.839L8425,226.228L8424.83,226.229C8411.3,226.229 8400.31,215.241 8400.31,201.706L8400.31,150Z" style="fill:rgb(141,51,204);"/>
            </g>
            <g transform="matrix(1.06375,0,0,1,-440.859,0)">
                <path d="M9148.81,950L9101.19,950C9101.09,963.443 9090.14,974.321 9076.67,974.321L8973.33,974.321C8959.86,974.321 8948.92,963.443 8948.81,950L8901.19,950L8901.19,950.067C8901.19,963.602 8890.21,974.59 8876.67,974.59L8849.42,974.59L8849.42,1001.71C8849.42,1015.21 8838.49,1026.17 8825,1026.23L8825,1073.84L8825.17,1073.84C8838.7,1073.84 8849.69,1084.83 8849.69,1098.36L8849.69,1201.71C8849.69,1215.24 8838.7,1226.23 8825.17,1226.23L8825,1226.23L8825,1273.84C8838.49,1273.89 8849.42,1284.86 8849.42,1298.36L8849.42,1350L9225,1350L9225,974.59L9173.33,974.59C9159.79,974.59 9148.81,963.602 9148.81,950.067L9148.81,950Z" style="fill:rgb(38,185,217);"/>
            </g>
        </g>
    </g>
</svg>
