<?xml version="1.0" encoding="UTF-8" standalone="no"?>
<!DOCTYPE svg PUBLIC "-//W3C//DTD SVG 1.1//EN" "http://www.w3.org/Graphics/SVG/1.1/DTD/svg11.dtd">
<svg width="100%" height="100%" viewBox="0 0 1500 1500" version="1.1" xmlns="http://www.w3.org/2000/svg" xmlns:xlink="http://www.w3.org/1999/xlink" xml:space="preserve" xmlns:serif="http://www.serif.com/" style="fill-rule:evenodd;clip-rule:evenodd;stroke-linejoin:round;stroke-miterlimit:2;">
    <g transform="matrix(1,0,0,1,0,-1575)">
        <g id="Quilt-Square" serif:id="Quilt Square" transform="matrix(1,0,0,1,0,-36.2891)">
            <rect x="0" y="1611.29" width="1500" height="1500" style="fill:none;"/>
            <g transform="matrix(2.27273,0,0,2.94118,-5597.94,-6257.66)">
                <g transform="matrix(2.2,0,0,1.7,-1980,-892.5)">
                    <path d="M2319.59,2098.79L2019.59,2098.79L2019.59,2398.79L2319.59,2398.79L2319.59,2098.79ZM2300.84,2117.54L2038.34,2117.54L2038.34,2380.04L2300.84,2380.04L2300.84,2117.54Z" style="fill:rgb(213,185,233);"/>
                </g>
                <g transform="matrix(9.3542e-17,1.18046,-1.52766,7.22824e-17,6492.12,319.138)">
                    <rect x="2050.09" y="2259.36" width="108.009" height="108.009" style="fill:rgb(141,51,204);"/>
                </g>
                <g transform="matrix(9.3542e-17,1.18046,-1.52766,7.22824e-17,6162.12,319.138)">
                    <path d="M2158.1,2259.36L2050.09,2259.36L2050.09,2367.37L2158.1,2259.36Z" style="fill:rgb(141,51,204);"/>
                </g>
                <g transform="matrix(9.3542e-17,1.18046,-1.52766,7.22824e-17,6492.12,574.138)">
                    <path d="M2158.1,2259.36L2050.09,2259.36L2050.09,2367.37L2158.1,2259.36Z" style="fill:rgb(141,51,204);"/>
                </g>
                <g transform="matrix(-2.80626e-16,-1.18046,1.52766,-2.16847e-16,-740.929,5414.24)">
                    <path d="M2158.1,2259.36L2050.09,2259.36L2050.09,2367.37L2158.1,2259.36Z" style="fill:rgb(231,220,191);"/>
                </g>
                <g transform="matrix(-2.80626e-16,-1.18046,1.52766,-2.16847e-16,-740.929,5414.24)">
                    <path d="M2158.1,2259.36L2050.09,2259.36L2050.09,2367.37L2158.1,2259.36Z" style="fill:rgb(188,178,156);"/>
                </g>
                <g transform="matrix(-0.763828,-0.590231,0.763828,-0.590231,2633.25,5346.51)">
                    <path d="M2158.1,2259.36L2050.09,2259.36L2050.09,2367.37L2158.1,2259.36Z" style="fill:rgb(141,51,204);"/>
                </g>
                <g transform="matrix(-0.763828,-0.590231,0.763828,-0.590231,2468.25,5474.01)">
                    <path d="M2158.1,2259.36L2050.09,2259.36L2050.09,2367.37L2158.1,2259.36Z" style="fill:rgb(188,178,156);"/>
                </g>
                <g transform="matrix(0.763828,0.590231,-0.763828,0.590231,2952.94,259.372)">
                    <path d="M2158.1,2259.36L2050.09,2259.36L2050.09,2367.37L2158.1,2259.36Z" style="fill:rgb(141,51,204);"/>
                </g>
                <g transform="matrix(0.763828,0.590231,-0.763828,0.590231,2787.94,386.872)">
                    <path d="M2158.1,2259.36L2050.09,2259.36L2050.09,2367.37L2158.1,2259.36Z" style="fill:rgb(188,178,156);"/>
                </g>
                <g transform="matrix(0.763828,-0.590231,0.763828,0.590231,-333.584,2806.93)">
                    <path d="M2158.1,2259.36L2050.09,2259.36L2050.09,2367.37L2158.1,2259.36Z" style="fill:rgb(141,51,204);"/>
                </g>
                <g transform="matrix(0.763828,-0.590231,0.763828,0.590231,-498.584,2934.43)">
                    <path d="M2158.1,2259.36L2050.09,2259.36L2050.09,2367.37L2158.1,2259.36Z" style="fill:rgb(188,178,156);"/>
                </g>
                <g transform="matrix(-0.763828,0.590231,-0.763828,-0.590231,6249.77,3053.96)">
                    <path d="M2158.1,2259.36L2050.09,2259.36L2050.09,2367.37L2158.1,2259.36Z" style="fill:rgb(141,51,204);"/>
                </g>
                <g transform="matrix(-0.763828,0.590231,-0.763828,-0.590231,6084.77,3181.46)">
                    <path d="M2158.1,2259.36L2050.09,2259.36L2050.09,2367.37L2158.1,2259.36Z" style="fill:rgb(188,178,156);"/>
                </g>
            </g>
        </g>
    </g>
</svg>
