<?xml version="1.0" encoding="UTF-8" standalone="no"?>
<!DOCTYPE svg PUBLIC "-//W3C//DTD SVG 1.1//EN" "http://www.w3.org/Graphics/SVG/1.1/DTD/svg11.dtd">
<svg width="100%" height="100%" viewBox="0 0 1500 1500" version="1.1" xmlns="http://www.w3.org/2000/svg" xmlns:xlink="http://www.w3.org/1999/xlink" xml:space="preserve" xmlns:serif="http://www.serif.com/" style="fill-rule:evenodd;clip-rule:evenodd;stroke-linejoin:round;stroke-miterlimit:2;">
    <g transform="matrix(1,0,0,1,-11025,-3.41061e-12)">
        <g id="Quilt-Colorblocks--Triangles-" serif:id="Quilt Colorblocks (Triangles)" transform="matrix(0.940066,0,0,1,3564.44,3.41061e-12)">
            <rect x="7936.21" y="0" width="1595.63" height="1500" style="fill:none;"/>
            <g transform="matrix(1.06375,0,0,1,-440.859,0)">
                <rect x="7875" y="0" width="1500" height="1500" style="fill:white;"/>
            </g>
            <g transform="matrix(1.02379,0,0,0.984596,-152.408,-3.66331)">
                <rect x="8056.48" y="156.067" width="1246.84" height="1218.77" style="fill:rgb(141,51,204);"/>
            </g>
            <g transform="matrix(1.15162,0,0,1.02897,-1019.17,-187.63)">
                <rect x="7914.88" y="328.125" width="369.481" height="388.739" style="fill:rgb(226,109,218);"/>
            </g>
            <g transform="matrix(1.15162,0,0,1.02897,-168.162,-187.63)">
                <rect x="7914.88" y="328.125" width="369.481" height="388.739" style="fill:rgb(213,185,233);"/>
            </g>
            <g transform="matrix(1.15162,0,0,1.02897,-168.162,212.37)">
                <rect x="7914.88" y="328.125" width="369.481" height="388.739" style="fill:rgb(148,175,228);"/>
            </g>
            <g transform="matrix(1.15162,0,0,1.02897,-168.162,612.37)">
                <rect x="7914.88" y="328.125" width="369.481" height="388.739" style="fill:rgb(38,185,217);"/>
            </g>
            <g transform="matrix(1.15162,0,0,1.02897,-593.664,-187.63)">
                <rect x="7914.88" y="328.125" width="369.481" height="388.739" style="fill:rgb(167,110,207);"/>
            </g>
            <g transform="matrix(1.15162,0,0,1.02897,-593.664,212.37)">
                <rect x="7914.88" y="328.125" width="369.481" height="388.739" style="fill:white;"/>
            </g>
            <g transform="matrix(1.15162,0,0,1.02897,-593.664,612.37)">
                <rect x="7914.88" y="328.125" width="369.481" height="388.739" style="fill:rgb(109,147,226);"/>
            </g>
            <g transform="matrix(1.15162,0,0,1.02897,-1019.17,-187.63)">
                <rect x="7914.88" y="328.125" width="369.481" height="388.739" style="fill:rgb(141,51,204);"/>
            </g>
            <g transform="matrix(1.15162,0,0,1.02897,-1019.17,212.37)">
                <rect x="7914.88" y="328.125" width="369.481" height="388.739" style="fill:rgb(158,109,226);"/>
            </g>
            <g transform="matrix(1.15162,0,0,1.02897,-1019.17,612.37)">
                <rect x="7914.88" y="328.125" width="369.481" height="388.739" style="fill:rgb(120,118,231);"/>
            </g>
            <g>
                <g transform="matrix(2.41226e-16,3.70341,-3.93952,2.26768e-16,18273.1,-7442.32)">
                    <rect x="2050.09" y="2259.36" width="108.009" height="108.009" style="fill:rgb(157,80,211);fill-opacity:0.55;"/>
                </g>
                <g transform="matrix(2.41226e-16,3.70341,-3.93952,2.26768e-16,17422.1,-7442.32)">
                    <path d="M2158.1,2259.36L2050.09,2259.36L2050.09,2367.37L2158.1,2259.36Z" style="fill:white;fill-opacity:0.14;"/>
                </g>
                <g transform="matrix(2.41226e-16,3.70341,-3.93952,2.26768e-16,18273.1,-6642.32)">
                    <path d="M2158.1,2259.36L2050.09,2259.36L2050.09,2367.37L2158.1,2259.36Z" style="fill:white;fill-opacity:0.14;"/>
                </g>
                <g transform="matrix(-7.23678e-16,-3.70341,3.93952,-6.80305e-16,-379.509,8542.32)">
                    <path d="M2158.1,2259.36L2050.09,2259.36L2050.09,2367.37L2158.1,2259.36Z" style="fill:white;fill-opacity:0.14;"/>
                </g>
                <g transform="matrix(-7.23678e-16,-3.70341,3.93952,-6.80305e-16,-379.509,8542.32)">
                    <path d="M2158.1,2259.36L2050.09,2259.36L2050.09,2367.37L2158.1,2259.36Z" style="fill:white;fill-opacity:0.14;"/>
                </g>
                <g transform="matrix(-1.96976,-1.8517,1.96976,-1.8517,8321.82,8329.83)">
                    <path d="M2158.1,2259.36L2050.09,2259.36L2050.09,2367.37L2158.1,2259.36Z" style="fill:white;fill-opacity:0.14;"/>
                </g>
                <g transform="matrix(-1.96976,-1.8517,1.96976,-1.8517,7896.32,8729.83)">
                    <path d="M2158.1,2259.36L2050.09,2259.36L2050.09,2367.37L2158.1,2259.36Z" style="fill:white;fill-opacity:0.14;"/>
                </g>
                <g transform="matrix(1.96976,1.8517,-1.96976,1.8517,9146.23,-7629.83)">
                    <path d="M2158.1,2259.36L2050.09,2259.36L2050.09,2367.37L2158.1,2259.36Z" style="fill:white;fill-opacity:0.14;"/>
                </g>
                <g transform="matrix(1.96976,1.8517,-1.96976,1.8517,8720.73,-7229.83)">
                    <path d="M2158.1,2259.36L2050.09,2259.36L2050.09,2367.37L2158.1,2259.36Z" style="fill:white;fill-opacity:0.14;"/>
                </g>
                <g transform="matrix(1.96976,-1.8517,1.96976,1.8517,670.95,362.499)">
                    <path d="M2158.1,2259.36L2050.09,2259.36L2050.09,2367.37L2158.1,2259.36Z" style="fill:white;fill-opacity:0.14;"/>
                </g>
                <g transform="matrix(1.96976,-1.8517,1.96976,1.8517,245.448,762.499)">
                    <path d="M2158.1,2259.36L2050.09,2259.36L2050.09,2367.37L2158.1,2259.36Z" style="fill:white;fill-opacity:0.14;"/>
                </g>
                <g transform="matrix(-1.96976,1.8517,-1.96976,-1.8517,17648.1,1137.5)">
                    <path d="M2158.1,2259.36L2050.09,2259.36L2050.09,2367.37L2158.1,2259.36Z" style="fill:white;fill-opacity:0.14;"/>
                </g>
                <g transform="matrix(-1.96976,1.8517,-1.96976,-1.8517,17222.6,1537.5)">
                    <path d="M2158.1,2259.36L2050.09,2259.36L2050.09,2367.37L2158.1,2259.36Z" style="fill:white;fill-opacity:0.14;"/>
                </g>
            </g>
        </g>
    </g>
</svg>
