<?xml version="1.0" encoding="utf-8"?>
<!-- Generator: Adobe Illustrator 25.2.0, SVG Export Plug-In . SVG Version: 6.00 Build 0)  -->
<svg version="1.1" id="Layer_1" xmlns="http://www.w3.org/2000/svg" xmlns:xlink="http://www.w3.org/1999/xlink" x="0px" y="0px"
	 viewBox="0 0 245 240" style="enable-background:new 0 0 245 240;" xml:space="preserve">
<style type="text/css">
	.st0{fill-rule:evenodd;clip-rule:evenodd;fill:#24292E;}
</style>
<path class="st0" d="M122.5,4.4C57.1,4.4,4,57.5,4,122.9c0,52.3,33.9,96.8,81,112.4c5.9,1.1,8.1-2.6,8.1-5.7
	c0-2.8-0.1-10.3-0.2-20.2c-33,7.2-39.9-15.9-39.9-15.9c-5.4-13.7-13.2-17.3-13.2-17.3c-10.8-7.4,0.8-7.2,0.8-7.2
	c11.9,0.8,18.1,12.2,18.1,12.2c10.6,18.1,27.7,12.9,34.5,9.8c1.1-7.7,4.1-12.9,7.5-15.8c-26.3-3-54-13.2-54-58.6
	c0-12.9,4.6-23.5,12.2-31.8c-1.2-3-5.3-15,1.2-31.4c0,0,9.9-3.2,32.6,12.1c9.5-2.6,19.6-3.9,29.7-4c10.1,0,20.2,1.4,29.7,4
	c22.6-15.3,32.6-12.1,32.6-12.1c6.5,16.3,2.4,28.4,1.2,31.4c7.6,8.3,12.2,18.9,12.2,31.8c0,45.5-27.7,55.5-54.1,58.5
	c4.3,3.7,8,10.9,8,21.9c0,15.8-0.1,28.6-0.1,32.5c0,3.2,2.1,6.9,8.1,5.7c47-15.7,81-60.1,81-112.4C241,57.5,187.9,4.4,122.5,4.4z"/>
</svg>
