<svg xmlns="http://www.w3.org/2000/svg" viewBox="0 0 512 512"><path fill="currentColor" d="M286.3 512c-46.9-85.5-77.6-18.2-174-105.7-37.6-34.1-52.6-134.1 31.9-164.7-38.4 84.8 61.3 119.4 85 71 10.8-22 24.4-62.7-14.9-90.5-21.2-15-29.3-59.5-11.2-84.2 5.8 18.4 24.2 38 59.5 23.4C187.8 37.6 307.2-5.1 364.7 .5c-60.3 6.7-91.6 60.5-64.2 119 17.5 37.3 44.1 55.6 51.8 86.1-25.8 1.9-33.2 13.8-32.7 35.9 .4 16.6 38.8 40.5 44.8-6.8 17.9 36.9-3.7 58.5-15.4 76-27.1 40.3-1.6 82.3 32.1 50.3 14.5-13.8 24.6-39.3 6.2-80.9 33.9 27 68.5 99.5 13.8 162.3C374.4 473.2 295.5 463.7 286.3 512z"/></svg>
