<?xml version="1.0" encoding="UTF-8"?>
<!-- Generated by Pixelmator Pro 3.6.7 -->
<svg width="129" height="129" viewBox="0 0 129 129" xmlns="http://www.w3.org/2000/svg">
    <path id="Path" fill="#000000" stroke="none" d="M 108.699997 23.709999 C 100.346756 19.885681 91.528336 17.172577 82.470001 15.639999 C 81.230453 17.855881 80.108894 20.135727 79.110001 22.470001 C 69.461136 21.016022 59.648865 21.016022 50 22.470001 C 49.000587 20.135971 47.879036 17.856148 46.639999 15.639999 C 37.575867 17.185524 28.75164 19.90506 20.389999 23.730003 C 3.79 48.290001 -0.71 72.239998 1.54 95.849998 L 1.54 95.849998 C 11.261376 103.032585 22.14237 108.495064 33.709999 112 C 36.314686 108.496788 38.619507 104.780304 40.599998 100.889999 C 36.838337 99.485062 33.207657 97.751709 29.75 95.709999 C 30.66 95.050003 31.549999 94.370003 32.41 93.709999 C 52.779957 103.289505 76.360046 103.289505 96.730003 93.709999 C 97.599998 94.419998 98.489998 95.099998 99.389999 95.709999 C 95.925659 97.755013 92.288345 99.491692 88.519997 100.900002 C 90.498062 104.788506 92.803024 108.501869 95.410004 112 C 106.987503 108.509125 117.876846 103.049232 127.599998 95.860001 L 127.599998 95.860001 C 130.240005 68.479996 123.089996 44.75 108.699997 23.709999 Z M 43.450001 81.330002 C 37.18 81.330002 32 75.639999 32 68.639999 C 32 61.639999 37 55.900002 43.43 55.900002 C 49.860001 55.900002 55 61.639999 54.889999 68.639999 C 54.779999 75.639999 49.84 81.330002 43.450001 81.330002 Z M 85.690002 81.330002 C 79.410004 81.330002 74.25 75.639999 74.25 68.639999 C 74.25 61.639999 79.25 55.900002 85.690002 55.900002 C 92.129997 55.900002 97.230003 61.639999 97.120003 68.639999 C 97.010002 75.639999 92.080002 81.330002 85.690002 81.330002 Z"/>
</svg>
