<svg xmlns="http://www.w3.org/2000/svg" viewBox="0 0 511 512"><path fill="currentColor" d="M287.7 507.9a256.8 256.8 0 0 1 -32.7 2.1C114.3 510 0 395.7 0 255S114.3 0 255 0c3.5 0 7 .1 10.5 .2L253.8 66.7a189.3 189.3 0 0 0 -48.1 6.5C105.1 100 45.4 203.3 72.4 303.8a194.8 194.8 0 0 0 5.8 18.1l75-45-22.6-59.9 70.8-72.7 89.5-19.3 25.9 31.9-41.2 41.8-36 11.3-25.7 26.4 12.6 35s25.5 27.1 25.5 27.1l36-9.6 25.6-28.2 56-17.7 16.7 37.5-57.8 70.8-96.8 30.7-43.4-48.3-75.7 45.4c38.8 44.2 97.1 68.7 157.6 63.6l17.5 65.2zm97.6-33.7a254.1 254.1 0 0 1 -32.9 16.5l-17.5-65.3c81.1-38 125.8-129.7 101.8-219.1-16.5-61.4-61.5-107.5-117-128l11.8-66.6a256.8 256.8 0 0 1 95.3 54.8 256.5 256.5 0 0 1 43.1 51l.2 .3a253.6 253.6 0 0 1 20.5 39.4l.1 0a253.2 253.2 0 0 1 17.3 64.5l-.1 0a253.7 253.7 0 0 1 2.2 33.3l0 .9a259.4 259.4 0 0 1 -.2 10.4l0 .8c-2.9 60.8-27.6 118.1-68.3 161.8l-.3 .4a256.3 256.3 0 0 1 -55.8 44.9z"/></svg>
