<svg xmlns="http://www.w3.org/2000/svg" viewBox="0 0 511 512"><path fill="currentColor" d="M320.7 501.3C184.6 537.7 44.6 457 8.1 321A256.6 256.6 0 0 1 0 273.4h43.1a211.7 211.7 0 0 0 6.4 35.7 212.9 212.9 0 0 0 13.1 35.6l38.4-23.1a168.4 168.4 0 0 1 -8.1-23.4c-23.9-89.3 29.1-181 118.5-204.9 16.9-4.5 34-6.3 50.6-5.6l-7.7 43.7a124.2 124.2 0 0 0 -31.5 4.2c-66 17.7-105.1 85.4-87.4 151.3a127.6 127.6 0 0 0 3.8 11.9l49.2-29.5-14.8-39.3 46.4-47.7 58.7-12.6 17 20.9-27 27.4-23.6 7.4-16.9 17.3 8.3 23s16.7 17.8 16.8 17.8l23.6-6.3 16.8-18.5 36.7-11.6 10.9 24.6-37.9 46.4-63.5 20.1-28.5-31.7-49.6 29.8c25.4 29 63.7 45.1 103.3 41.7l11.5 42.8c-59.2 7.8-117-16.7-152.9-61.7l-38.3 23c50.4 66.2 137.7 99 223.1 76.2 61.5-16.5 109.4-58.4 135.3-111.3l42.5 15.4c-30.8 66-89.5 118.5-165.4 138.8zm180.5-180c11.3-41.9 12.1-87.3 0-132.3C464.8 53 324.8-27.7 188.6 8.8 83.5 36.9 11.3 126.6 .7 228.6H43.8C54.1 145.8 113.3 73.5 199 50.5c105.9-28.3 214.5 28.8 252.4 129.2l-42 11.2c-19.3-46.7-58.2-80.9-104.3-95.5l-7.7 43.7c36.4 13.4 65.9 43.7 76.7 83.9 15.7 58.7-13.6 118.8-66.7 143.7l11.5 42.8c69.9-28.8 111.9-101.5 101.9-176.3l41.8-11.2a209.4 209.4 0 0 1 -3.8 83.8l42.4 15.4z"/></svg>
