<?xml version="1.0" encoding="UTF-8" standalone="no"?>
<!DOCTYPE svg PUBLIC "-//W3C//DTD SVG 1.1//EN" "http://www.w3.org/Graphics/SVG/1.1/DTD/svg11.dtd">
<svg width="100%" height="100%" viewBox="0 0 43 43" version="1.1" xmlns="http://www.w3.org/2000/svg" xmlns:xlink="http://www.w3.org/1999/xlink" xml:space="preserve" xmlns:serif="http://www.serif.com/" style="fill-rule:evenodd;clip-rule:evenodd;stroke-linejoin:round;stroke-miterlimit:2;">
    <g transform="matrix(1,0,0,1,2017,-843)">
        <path d="M-2005.7,853L-2005,856L-2017,856C-2017,856 -2016.8,856.9 -2016.7,857C-2016.4,857.5 -2016.1,858.1 -2015.7,858.5C-2013.8,860.7 -2010.5,861.6 -2007.8,862.1C-2005.9,862.5 -2004,862.6 -2002.1,862.7L-1999.9,868.6L-1998.7,868.6L-1998,870.5L-1999,870.5L-2000.7,876L-1984,876L-1985.7,870.5L-1986.7,870.5L-1986,868.6L-1984.8,868.6C-1984.8,868.6 -1983.8,862.5 -1980.7,859.7C-1977.7,856.9 -1974,856.5 -1974,856.5L-1974,853L-2005.7,853ZM-1988.9,868.1C-1989.7,868.6 -1990.6,868.6 -1991.2,869C-1991.6,869.2 -1991.8,869.8 -1991.8,869.8C-1992.2,868.9 -1992.7,868.6 -1993.3,868.4C-1993.9,868.2 -1995,868.3 -1996.5,867C-1997.5,866.1 -1997.6,864.9 -1997.5,864.3L-1997.5,864C-1997.5,863.9 -1997.5,863.8 -1997.4,863.7C-1997.2,863.1 -1996.7,862.5 -1995.7,862.1C-1995.7,862.1 -1996.4,863.1 -1995.7,864.1C-1995.3,864.7 -1994.5,865 -1993.8,864.6C-1993.5,864.4 -1993.3,864 -1993.2,863.7C-1993,863 -1993,862.3 -1993.6,861.8C-1994.5,861 -1994.7,859.9 -1994.1,859.2C-1994.1,859.2 -1993.9,860.1 -1993,860C-1992.4,860 -1992.4,859.8 -1992.6,859.6C-1992.7,859.3 -1994,857.4 -1992.1,856C-1992.1,856 -1990.9,855.2 -1989.5,855.3C-1990.3,855.4 -1991.2,855.9 -1991.5,856.7L-1991.5,856.8C-1991.8,857.6 -1991.6,858.5 -1991,859.3C-1990.6,859.9 -1990.1,860.4 -1989.9,861.2C-1990.2,861.1 -1990.4,861.2 -1990.6,861.4C-1990.8,861.6 -1990.9,862 -1990.8,862.3C-1990.7,862.5 -1990.5,862.7 -1990.3,862.7L-1990,862.7C-1989.7,862.6 -1989.5,862.2 -1989.6,861.9C-1989.4,862.1 -1989.3,862.6 -1989.4,862.9C-1989.4,863.2 -1989.6,863.5 -1989.7,863.7C-1989.8,863.9 -1990,864.1 -1990.1,864.3C-1990.2,864.5 -1990.3,864.7 -1990.3,864.9C-1990.3,865.1 -1990.3,865.4 -1990.2,865.6C-1989.8,866.2 -1989,865.6 -1988.8,865.1C-1988.5,864.5 -1988.6,863.8 -1989,863.2C-1989,863.2 -1988.3,863.6 -1987.8,865C-1987.4,866.2 -1988.1,867.6 -1988.9,868.1Z" style="fill:rgb(241,100,54);fill-rule:nonzero;"/>
    </g>
</svg>
