<?xml version="1.0" encoding="UTF-8" standalone="no"?>
<!DOCTYPE svg PUBLIC "-//W3C//DTD SVG 1.1//EN" "http://www.w3.org/Graphics/SVG/1.1/DTD/svg11.dtd">
<svg width="100%" height="100%" viewBox="0 0 429 429" version="1.1" xmlns="http://www.w3.org/2000/svg" xmlns:xlink="http://www.w3.org/1999/xlink" xml:space="preserve" xmlns:serif="http://www.serif.com/" style="fill-rule:evenodd;clip-rule:evenodd;stroke-linejoin:round;stroke-miterlimit:2;">
    <g transform="matrix(1.48243,0,0,1.48243,-104.869,-5.07674)">
        <g transform="matrix(1,0,0,1,97.3252,0)">
            <path d="M79.937,226.795C79.937,226.795 68.899,233.214 87.792,235.386C110.68,237.997 122.378,237.623 147.6,232.849C147.6,232.849 154.232,237.007 163.493,240.608C106.95,264.841 35.526,239.205 79.937,226.795" style="fill:rgb(83,130,161);fill-rule:nonzero;"/>
        </g>
        <g transform="matrix(1,0,0,1,97.3252,0)">
            <path d="M73.028,195.173C73.028,195.173 60.648,204.337 79.555,206.292C104.004,208.814 123.313,209.021 156.724,202.587C156.724,202.587 161.345,207.272 168.611,209.834C100.248,229.825 24.104,211.411 73.028,195.173" style="fill:rgb(83,130,161);fill-rule:nonzero;"/>
        </g>
        <g transform="matrix(1,0,0,1,97.3252,0)">
            <path d="M131.274,141.53C145.206,157.571 127.614,172.005 127.614,172.005C127.614,172.005 162.99,153.743 146.743,130.874C131.569,109.548 119.933,98.952 182.927,62.418C182.927,62.418 84.048,87.113 131.274,141.53" style="fill:rgb(248,152,29);fill-rule:nonzero;"/>
        </g>
        <g transform="matrix(1,0,0,1,97.3252,0)">
            <path d="M206.056,250.185C206.056,250.185 214.224,256.916 197.061,262.122C164.424,272.009 61.222,274.995 32.553,262.516C22.247,258.033 41.573,251.811 47.653,250.505C53.993,249.131 57.616,249.387 57.616,249.387C46.155,241.313 -16.464,265.24 25.809,272.092C141.092,290.788 235.959,263.674 206.056,250.185" style="fill:rgb(83,130,161);fill-rule:nonzero;"/>
        </g>
        <g transform="matrix(1,0,0,1,97.3252,0)">
            <path d="M85.245,162.408C85.245,162.408 32.75,174.877 66.655,179.404C80.971,181.321 109.509,180.887 136.092,178.66C157.817,176.827 179.631,172.931 179.631,172.931C179.631,172.931 171.97,176.212 166.428,179.996C113.121,194.016 10.14,187.494 39.787,173.153C64.859,161.033 85.245,162.408 85.245,162.408" style="fill:rgb(83,130,161);fill-rule:nonzero;"/>
        </g>
        <g transform="matrix(1,0,0,1,97.3252,0)">
            <path d="M179.414,215.046C233.604,186.886 208.549,159.826 191.061,163.472C186.774,164.364 184.863,165.137 184.863,165.137C184.863,165.137 186.454,162.644 189.494,161.565C224.091,149.402 250.698,197.439 178.325,216.465C178.325,216.466 179.164,215.716 179.414,215.046" style="fill:rgb(83,130,161);fill-rule:nonzero;"/>
        </g>
        <g transform="matrix(1,0,0,1,97.3252,0)">
            <path d="M146.743,3.425C146.743,3.425 176.754,33.446 118.279,79.61C71.388,116.642 107.586,137.756 118.259,161.88C90.888,137.185 70.801,115.445 84.277,95.212C104.057,65.511 158.852,51.112 146.743,3.425" style="fill:rgb(248,152,29);fill-rule:nonzero;"/>
        </g>
        <g transform="matrix(1,0,0,1,97.3252,0)">
            <path d="M90.57,291.35C142.585,294.68 222.461,289.503 224.352,264.89C224.352,264.89 220.716,274.221 181.365,281.631C136.968,289.985 82.212,289.01 49.735,283.655C49.736,283.655 56.384,289.158 90.57,291.35" style="fill:rgb(83,130,161);fill-rule:nonzero;"/>
        </g>
    </g>
</svg>
