<?xml version="1.0" encoding="UTF-8" standalone="no"?>
<!DOCTYPE svg PUBLIC "-//W3C//DTD SVG 1.1//EN" "http://www.w3.org/Graphics/SVG/1.1/DTD/svg11.dtd">
<svg width="100%" height="100%" viewBox="0 0 2087 914" version="1.1" xmlns="http://www.w3.org/2000/svg" xmlns:xlink="http://www.w3.org/1999/xlink" xml:space="preserve" xmlns:serif="http://www.serif.com/" style="fill-rule:evenodd;clip-rule:evenodd;stroke-linejoin:round;stroke-miterlimit:2;">
    <g transform="matrix(1,0,0,1,1112.3,0)">
        <path d="M249.16,128.54C249.165,136.911 256.049,143.799 264.42,143.81L290.42,143.81L290.42,201.81L264.42,201.81C256.193,202.021 249.541,208.846 249.541,217.075C249.541,225.304 256.193,232.129 264.42,232.34L290.42,232.34L290.42,276.85C290.42,284.267 284.317,290.37 276.9,290.37L232.4,290.37L232.4,264.37C232.4,255.993 225.507,249.1 217.13,249.1C208.753,249.1 201.86,255.993 201.86,264.37L201.86,290.37L143.86,290.37L143.86,264.37C143.863,264.24 143.865,264.11 143.865,263.979C143.865,255.602 136.972,248.709 128.595,248.709C120.218,248.709 113.325,255.602 113.325,263.979C113.325,264.11 113.327,264.24 113.33,264.37L113.33,290.37L68.77,290.37C61.35,290.365 55.245,284.26 55.24,276.84L55.24,68.78C55.24,61.358 61.348,55.25 68.77,55.25L276.86,55.25C284.277,55.25 290.38,61.353 290.38,68.77L290.38,113.26L264.38,113.26C256.018,113.287 249.154,120.178 249.16,128.54Z" style="fill:rgb(151,34,255);fill-rule:nonzero;"/>
        <path d="M514.84,128.54C514.84,136.913 521.727,143.805 530.1,143.81L556.1,143.81L556.1,201.81L530.1,201.81C521.873,202.021 515.221,208.846 515.221,217.075C515.221,225.304 521.873,232.129 530.1,232.34L556.1,232.34L556.1,276.84C556.1,284.259 549.999,290.365 542.58,290.37L334.45,290.37C327.033,290.37 320.93,284.267 320.93,276.85L320.93,232.34L346.87,232.34C347,232.343 347.13,232.345 347.261,232.345C355.638,232.345 362.531,225.452 362.531,217.075C362.531,208.698 355.638,201.805 347.261,201.805C347.13,201.805 347,201.807 346.87,201.81L320.93,201.81L320.93,143.81L346.87,143.81C347,143.813 347.131,143.815 347.261,143.815C355.643,143.815 362.541,136.917 362.541,128.535C362.541,120.153 355.643,113.255 347.261,113.255C347.131,113.255 347,113.257 346.87,113.26L320.93,113.26L320.93,68.76C320.93,61.349 327.029,55.25 334.44,55.25L542.54,55.25C549.957,55.25 556.06,61.353 556.06,68.77L556.06,113.26L530.06,113.26C521.698,113.287 514.834,120.178 514.84,128.54Z" style="fill:rgb(220,41,221);fill-rule:nonzero;"/>
        <path d="M821.73,68.77L821.73,276.87C821.73,284.287 815.627,290.39 808.21,290.39L763.71,290.39L763.71,264.39C763.713,264.26 763.715,264.13 763.715,263.999C763.715,255.622 756.822,248.729 748.445,248.729C740.068,248.729 733.175,255.622 733.175,263.999C733.175,264.13 733.177,264.26 733.18,264.39L733.18,290.39L675.18,290.39L675.18,264.39C675.183,264.26 675.185,264.13 675.185,263.999C675.185,255.622 668.292,248.729 659.915,248.729C651.538,248.729 644.645,255.622 644.645,263.999C644.645,264.13 644.647,264.26 644.65,264.39L644.65,290.39L600.15,290.39C592.73,290.385 586.625,284.28 586.62,276.86L586.62,232.36L612.62,232.36C612.75,232.363 612.88,232.365 613.011,232.365C621.388,232.365 628.281,225.472 628.281,217.095C628.281,208.718 621.388,201.825 613.011,201.825C612.88,201.825 612.75,201.827 612.62,201.83L586.62,201.83L586.62,143.83L612.62,143.83C620.852,143.619 627.509,136.79 627.509,128.555C627.509,120.32 620.852,113.491 612.62,113.28L586.62,113.28L586.62,68.78C586.62,61.358 592.728,55.25 600.15,55.25L808.21,55.25C815.627,55.25 821.73,61.353 821.73,68.77Z" style="fill:rgb(39,162,253);fill-rule:nonzero;"/>
        <path d="M290.38,334.44L290.38,542.54C290.38,549.957 284.277,556.06 276.86,556.06L232.36,556.06L232.36,530.06C232.36,521.683 225.467,514.79 217.09,514.79C208.713,514.79 201.82,521.683 201.82,530.06L201.82,556.06L143.82,556.06L143.82,530.06C143.823,529.93 143.825,529.8 143.825,529.669C143.825,521.292 136.932,514.399 128.555,514.399C120.178,514.399 113.285,521.292 113.285,529.669C113.285,529.8 113.287,529.93 113.29,530.06L113.29,556.06L68.77,556.06C61.348,556.06 55.24,549.952 55.24,542.53L55.24,334.44C55.251,327.024 61.354,320.925 68.77,320.92L113.27,320.92L113.27,346.92C113.481,355.147 120.306,361.799 128.535,361.799C136.764,361.799 143.589,355.147 143.8,346.92L143.8,320.92L201.8,320.92L201.8,346.92C201.8,355.297 208.693,362.19 217.07,362.19C225.447,362.19 232.34,355.297 232.34,346.92L232.34,320.92L276.86,320.92C284.277,320.92 290.38,327.023 290.38,334.44Z" style="fill:rgb(220,41,221);fill-rule:nonzero;"/>
        <path d="M514.84,394.21L514.84,394.22C514.84,402.586 521.724,409.47 530.09,409.47L556.1,409.47L556.1,467.47L530.1,467.47C521.873,467.681 515.221,474.506 515.221,482.735C515.221,490.964 521.873,497.789 530.1,498L556.1,498L556.1,542.51C556.1,549.927 549.997,556.03 542.58,556.03L498,556.03L498,530.03C498.003,529.9 498.005,529.77 498.005,529.639C498.005,521.262 491.112,514.369 482.735,514.369C474.358,514.369 467.465,521.262 467.465,529.639C467.465,529.77 467.467,529.9 467.47,530.03L467.47,556.03L409.47,556.03L409.47,530.03C409.47,521.653 402.577,514.76 394.2,514.76C385.823,514.76 378.93,521.653 378.93,530.03L378.93,556.03L334.44,556.03C327.029,556.03 320.93,549.931 320.93,542.52L320.93,334.44C320.93,327.023 327.033,320.92 334.45,320.92L542.54,320.92C549.955,320.925 556.055,327.025 556.06,334.44L556.06,378.94L530.06,378.94C521.7,378.962 514.834,385.85 514.84,394.21Z" style="fill:rgb(39,162,253);fill-rule:nonzero;"/>
        <path d="M821.73,334.44L821.73,542.54C821.73,549.957 815.627,556.06 808.21,556.06L600.12,556.06C592.698,556.06 586.59,549.952 586.59,542.53L586.59,498L612.59,498C612.72,498.003 612.85,498.005 612.981,498.005C621.358,498.005 628.251,491.112 628.251,482.735C628.251,474.358 621.358,467.465 612.981,467.465C612.85,467.465 612.72,467.467 612.59,467.47L586.59,467.47L586.59,409.47L612.59,409.47C612.72,409.473 612.85,409.475 612.981,409.475C621.358,409.475 628.251,402.582 628.251,394.205C628.251,385.828 621.358,378.935 612.981,378.935C612.85,378.935 612.72,378.937 612.59,378.94L586.59,378.94L586.59,334.44C586.601,327.024 592.704,320.925 600.12,320.92L644.62,320.92L644.62,346.92C644.831,355.147 651.656,361.799 659.885,361.799C668.114,361.799 674.939,355.147 675.15,346.92L675.15,320.92L733.15,320.92L733.15,346.92C733.361,355.147 740.186,361.799 748.415,361.799C756.644,361.799 763.469,355.147 763.68,346.92L763.68,320.92L808.21,320.92C815.627,320.92 821.73,327.023 821.73,334.44Z" style="fill:rgb(51,68,255);fill-rule:nonzero;"/>
        <path d="M249.16,659.89C249.165,668.261 256.049,675.149 264.42,675.16L290.42,675.16L290.42,733.16L264.42,733.16C256.043,733.16 249.15,740.053 249.15,748.43C249.15,756.807 256.043,763.7 264.42,763.7L290.42,763.7L290.42,808.21C290.42,815.627 284.317,821.73 276.9,821.73L68.77,821.73C61.35,821.725 55.245,815.62 55.24,808.2L55.24,600.13C55.24,592.708 61.348,586.6 68.77,586.6L113.27,586.6L113.27,612.55C113.267,612.68 113.265,612.81 113.265,612.941C113.265,621.318 120.158,628.211 128.535,628.211C136.912,628.211 143.805,621.318 143.805,612.941C143.805,612.81 143.803,612.68 143.8,612.55L143.8,586.6L201.8,586.6L201.8,612.55C201.8,620.927 208.693,627.82 217.07,627.82C225.447,627.82 232.34,620.927 232.34,612.55L232.34,586.6L276.84,586.6C284.257,586.6 290.36,592.703 290.36,600.12L290.36,644.61L264.36,644.61C256.008,644.654 249.16,651.538 249.16,659.89Z" style="fill:rgb(151,34,255);fill-rule:nonzero;"/>
        <path d="M556.06,600.12L556.06,808.21C556.06,815.629 549.959,821.735 542.54,821.74L334.45,821.74C327.033,821.74 320.93,815.637 320.93,808.22L320.93,763.71L346.87,763.71C355.247,763.71 362.14,756.817 362.14,748.44C362.14,740.063 355.247,733.17 346.87,733.17L320.93,733.17L320.93,675.17L346.87,675.17C347,675.173 347.131,675.175 347.261,675.175C355.643,675.175 362.541,668.277 362.541,659.895C362.541,651.513 355.643,644.615 347.261,644.615C347.131,644.615 347,644.617 346.87,644.62L320.93,644.62L320.93,600.11C320.93,592.699 327.029,586.6 334.44,586.6L378.94,586.6L378.94,612.55C378.94,620.927 385.833,627.82 394.21,627.82C402.587,627.82 409.48,620.927 409.48,612.55L409.48,586.6L467.48,586.6L467.48,612.55C467.477,612.68 467.475,612.81 467.475,612.941C467.475,621.318 474.368,628.211 482.745,628.211C491.122,628.211 498.015,621.318 498.015,612.941C498.015,612.81 498.013,612.68 498.01,612.55L498.01,586.6L542.54,586.6C549.957,586.6 556.06,592.703 556.06,600.12Z" style="fill:rgb(51,68,255);fill-rule:nonzero;"/>
        <g transform="matrix(0.707107,-0.707107,0.707107,0.707107,-311.85,752.86)">
            <path d="M870.44,648.82C870.44,641.353 864.377,635.29 856.91,635.29L648.83,635.29C641.363,635.29 635.3,641.353 635.3,648.82L635.3,856.9C635.3,864.367 641.363,870.43 648.83,870.43L856.91,870.43C864.377,870.43 870.44,864.367 870.44,856.9L870.44,648.82Z" style="fill:rgb(151,34,255);"/>
        </g>
    </g>
    <g transform="matrix(1,0,0,1,-447.737,0)">
        <path d="M1156.8,66.22L1156.8,105.78L1103.1,105.78L1103.1,268.9L1053.73,268.9L1053.73,105.78L1000,105.78L1000,66.22L1156.8,66.22Z" style="fill-rule:nonzero;"/>
    </g>
    <g transform="matrix(1,0,0,1,-447.737,0)">
        <path d="M1325.12,124.4C1336.28,136.62 1341.86,153.413 1341.86,174.78L1341.86,268.9L1292.78,268.9L1292.78,181.42C1292.78,170.64 1289.99,162.267 1284.41,156.3C1278.83,150.333 1271.32,147.333 1261.89,147.3C1252.46,147.3 1244.95,150.3 1239.37,156.3C1233.79,162.3 1231,170.673 1231,181.42L1231,268.9L1181.63,268.9L1181.63,55.25L1231,55.25L1231,129.45C1236.26,122.123 1243.32,116.269 1251.49,112.45C1260.59,108.121 1270.57,105.948 1280.65,106.1C1299.13,106.08 1313.95,112.18 1325.12,124.4Z" style="fill-rule:nonzero;"/>
    </g>
    <g transform="matrix(1,0,0,1,-447.737,0)">
        <path d="M1527.22,200.19L1415.48,200.19C1416.25,210.19 1419.47,217.84 1425.15,223.14C1430.82,228.427 1438.34,231.28 1446.09,231.08C1458.4,231.08 1466.97,225.883 1471.78,215.49L1524.33,215.49C1521.67,225.989 1516.69,235.757 1509.75,244.07C1502.58,252.646 1493.55,259.465 1483.33,264C1472.74,268.813 1460.91,271.22 1447.82,271.22C1432.03,271.22 1417.98,267.85 1405.67,261.11C1393.45,254.488 1383.42,244.456 1376.8,232.24C1369.87,219.733 1366.4,205.107 1366.4,188.36C1366.4,171.613 1369.82,156.983 1376.65,144.47C1383.2,132.249 1393.19,122.21 1405.38,115.6C1417.69,108.873 1431.83,105.507 1447.82,105.5C1463.41,105.5 1477.27,108.77 1489.39,115.31C1501.37,121.707 1511.25,131.432 1517.83,143.31C1524.66,155.43 1528.08,169.577 1528.08,185.75C1528.07,190.576 1527.78,195.397 1527.22,200.19ZM1477.56,172.76C1477.56,164.293 1474.67,157.557 1468.89,152.55C1463.11,147.543 1455.89,145.027 1447.24,145C1438.96,145 1431.98,147.407 1426.31,152.22C1420.64,157.033 1417.12,163.867 1415.77,172.72L1477.56,172.76Z" style="fill-rule:nonzero;"/>
    </g>
    <g transform="matrix(1,0,0,1,-612.17,0)">
        <path d="M1155.36,578.47L1129.36,543.54C1121.95,545.051 1114.4,545.825 1106.84,545.85C1088.52,546.034 1070.46,541.457 1054.44,532.57C1038.7,523.861 1025.63,511.035 1016.62,495.47C1007.29,479.59 1002.62,461.737 1002.62,441.91C1002.62,422.083 1007.29,404.28 1016.62,388.5C1025.66,372.985 1038.73,360.199 1054.44,351.5C1087.1,333.807 1126.58,333.807 1159.24,351.5C1174.91,360.158 1187.9,372.96 1196.78,388.5C1205.92,404.28 1210.49,422.083 1210.49,441.91C1210.49,459.243 1206.98,475.073 1199.95,489.4C1193.16,503.449 1183.12,515.676 1170.65,525.06L1215.11,578.47L1155.36,578.47ZM1067.73,484.78C1077.45,495.447 1090.49,500.78 1106.85,500.78C1123.02,500.78 1135.97,495.39 1145.68,484.61C1155.39,473.83 1160.25,459.587 1160.26,441.88C1160.26,423.98 1155.4,409.69 1145.68,399.01C1135.96,388.33 1123.02,382.997 1106.85,383.01C1090.49,383.01 1077.45,388.303 1067.73,398.89C1058.01,409.477 1053.15,423.81 1053.15,441.89C1053.15,459.803 1058.01,474.1 1067.73,484.78Z" style="fill-rule:nonzero;"/>
    </g>
    <g transform="matrix(1,0,0,1,-612.17,0)">
        <path d="M1397.59,382.72L1397.59,543.83L1348.22,543.83L1348.22,521.83C1342.97,529.161 1335.97,535.067 1327.86,539.01C1319.03,543.403 1309.28,545.631 1299.42,545.51C1287.1,545.51 1276.23,542.767 1266.8,537.28C1257.28,531.699 1249.64,523.404 1244.86,513.46C1239.66,503.073 1237.06,490.85 1237.06,476.79L1237.06,382.72L1286.14,382.72L1286.14,470.2C1286.14,480.993 1288.93,489.367 1294.51,495.32C1300.09,501.273 1307.6,504.257 1317.03,504.27C1326.66,504.27 1334.27,501.287 1339.84,495.32C1345.41,489.353 1348.21,480.98 1348.22,470.2L1348.22,382.72L1397.59,382.72Z" style="fill-rule:nonzero;"/>
    </g>
    <g transform="matrix(1,0,0,1,-612.17,0)">
        <path d="M1436.7,358.33C1431.35,353.52 1428.35,346.613 1428.48,339.42C1428.3,332.134 1431.31,325.121 1436.7,320.22C1442.19,315.12 1449.26,312.57 1457.93,312.57C1466.39,312.57 1473.37,315.12 1478.86,320.22C1484.26,325.12 1487.26,332.133 1487.09,339.42C1487.22,346.615 1484.21,353.521 1478.86,358.33C1473.37,363.43 1466.4,365.98 1457.93,365.98C1449.26,365.993 1442.19,363.443 1436.7,358.33ZM1482.47,382.72L1482.47,543.83L1433.1,543.83L1433.1,382.72L1482.47,382.72Z" style="fill-rule:nonzero;"/>
    </g>
    <g transform="matrix(1,0,0,1,-612.17,0)">
        <rect x="1518.27" y="330.18" width="49.37" height="213.65"/>
    </g>
    <g transform="matrix(1,0,0,1,-612.17,0)">
        <path d="M1693.23,502L1693.23,543.87L1668.11,543.87C1650.21,543.87 1636.25,539.49 1626.24,530.73C1616.23,521.97 1611.23,507.68 1611.24,487.86L1611.24,423.76L1591.6,423.76L1591.6,382.76L1611.23,382.76L1611.23,343.46L1660.6,343.46L1660.6,382.72L1692.94,382.72L1692.94,423.72L1660.6,423.72L1660.6,488.39C1660.6,493.21 1661.76,496.677 1664.07,498.79C1666.38,500.903 1670.23,501.96 1675.61,501.96L1693.23,502Z" style="fill-rule:nonzero;"/>
    </g>
    <g transform="matrix(1,0,0,1,-944.76,0)">
        <path d="M1157.38,713.52C1151.99,723.24 1143.71,731.083 1132.55,737.05C1121.39,743.017 1107.54,746 1091,746L1060.4,746L1060.4,818.75L1011,818.75L1011,616.08L1091,616.08C1107.17,616.08 1120.84,618.87 1132,624.45C1143.16,630.03 1151.53,637.73 1157.12,647.55C1162.7,657.363 1165.49,668.623 1165.49,681.33C1165.6,692.578 1162.81,703.667 1157.38,713.52ZM1108.3,700.09C1112.92,695.67 1115.23,689.417 1115.23,681.33C1115.23,673.243 1112.92,666.987 1108.3,662.56C1103.68,658.133 1096.65,655.92 1087.22,655.92L1060.37,655.92L1060.37,706.73L1087.22,706.73C1096.65,706.73 1103.68,704.517 1108.3,700.09Z" style="fill-rule:nonzero;"/>
    </g>
    <g transform="matrix(1,0,0,1,-944.76,0)">
        <path d="M1262.18,663.57C1270.93,658.446 1280.91,655.8 1291.05,655.92L1291.05,708.18L1277.48,708.18C1265.16,708.18 1255.92,710.827 1249.76,716.12C1243.6,721.413 1240.52,730.707 1240.53,744L1240.53,818.77L1191.15,818.77L1191.15,657.65L1240.53,657.65L1240.53,684.5C1246.01,675.928 1253.43,668.759 1262.18,663.57Z" style="fill-rule:nonzero;"/>
    </g>
    <g transform="matrix(1,0,0,1,-944.76,0)">
        <path d="M1345.47,811C1333.01,804.407 1322.69,794.389 1315.73,782.13C1308.52,769.623 1304.91,754.993 1304.91,738.24C1304.91,721.687 1308.58,707.107 1315.91,694.5C1322.94,682.174 1333.35,672.11 1345.91,665.5C1358.62,658.76 1372.86,655.39 1388.64,655.39C1404.42,655.39 1418.66,658.76 1431.37,665.5C1443.93,672.111 1454.34,682.174 1461.37,694.5C1468.7,707.107 1472.37,721.687 1472.37,738.24C1472.37,754.793 1468.66,769.373 1461.25,781.98C1454.1,794.326 1443.59,804.387 1430.94,810.98C1418.14,817.72 1403.85,821.087 1388.07,821.08C1372.29,821.073 1358.09,817.713 1345.47,811ZM1412.16,768C1418.83,761.067 1422.16,751.153 1422.16,738.26C1422.16,725.367 1418.94,715.453 1412.49,708.52C1406.29,701.894 1397.61,698.129 1388.53,698.129C1379.53,698.129 1370.9,701.839 1364.71,708.38C1358.36,715.207 1355.18,725.167 1355.18,738.26C1355.18,751.16 1358.31,761.073 1364.57,768C1370.48,774.777 1379.11,778.587 1388.1,778.39C1397.24,778.484 1405.99,774.681 1412.16,767.94L1412.16,768Z" style="fill-rule:nonzero;"/>
    </g>
    <g transform="matrix(1,0,0,1,-944.76,0)">
        <path d="M1734.51,750L1622.78,750C1623.54,760 1626.76,767.667 1632.45,773C1638.14,778.333 1645.11,780.98 1653.38,780.94C1665.69,780.94 1674.25,775.743 1679.07,765.35L1731.62,765.35C1726.13,786.943 1711,804.848 1690.62,813.85C1680.04,818.67 1668.2,821.077 1655.11,821.07C1639.33,821.07 1625.28,817.703 1612.96,810.97C1600.75,804.34 1590.72,794.31 1584.09,782.1C1577.16,769.593 1573.7,754.963 1573.69,738.21C1573.68,721.457 1577.1,706.83 1583.94,694.33C1590.49,682.109 1600.48,672.07 1612.67,665.46C1624.99,658.72 1639.14,655.35 1655.11,655.35C1670.7,655.35 1684.56,658.623 1696.69,665.17C1708.66,671.569 1718.54,681.294 1725.12,693.17C1731.95,705.303 1735.37,719.45 1735.37,735.61C1735.36,740.419 1735.07,745.224 1734.51,750ZM1684.85,722.57C1684.85,714.097 1681.96,707.36 1676.19,702.36C1670.42,697.36 1663.2,694.86 1654.53,694.86C1646.26,694.86 1639.29,697.263 1633.6,702.07C1627.91,706.877 1624.4,713.71 1623.06,722.57L1684.85,722.57Z" style="fill-rule:nonzero;"/>
    </g>
    <g transform="matrix(1,0,0,1,-944.76,0)">
        <path d="M1761.79,694.32C1768.31,682.127 1778.24,672.093 1790.37,665.45C1802.59,658.71 1816.59,655.34 1832.37,655.34C1852.58,655.34 1869.47,660.633 1883.04,671.22C1896.61,681.807 1905.52,696.733 1909.76,716L1857.21,716C1852.78,703.687 1844.22,697.527 1831.51,697.52C1822.47,697.52 1815.25,701.033 1809.86,708.06C1804.47,715.087 1801.77,725.143 1801.78,738.23C1801.78,751.317 1804.47,761.373 1809.86,768.4C1815.25,775.427 1822.46,778.94 1831.51,778.94C1844.22,778.94 1852.79,772.78 1857.21,760.46L1909.76,760.46C1905.52,779.327 1896.57,794.147 1882.91,804.92C1869.25,815.693 1852.41,821.083 1832.38,821.09C1816.6,821.09 1802.6,817.723 1790.38,810.99C1778.25,804.347 1768.32,794.313 1761.8,782.12C1754.97,769.613 1751.56,754.983 1751.55,738.23C1751.54,721.477 1754.96,706.84 1761.79,694.32Z" style="fill-rule:nonzero;"/>
    </g>
    <g transform="matrix(1,0,0,1,-944.76,0)">
        <path d="M2025.82,776.89L2025.82,818.75L2000.7,818.75C1982.8,818.75 1968.85,814.373 1958.84,805.62C1948.83,796.867 1943.83,782.573 1943.84,762.74L1943.84,698.65L1924.21,698.65L1924.21,657.65L1943.84,657.65L1943.84,618.39L1993.21,618.39L1993.21,657.65L2025.55,657.65L2025.55,698.65L1993.21,698.65L1993.21,763.32C1993.21,768.127 1994.37,771.59 1996.68,773.71C1998.99,775.83 2002.84,776.89 2008.23,776.89L2025.82,776.89Z" style="fill-rule:nonzero;"/>
    </g>
    <g transform="matrix(1,0,0,1,-944.76,0)">
        <path d="M1548,839.54C1548,859.36 1543,873.65 1533,882.41C1523,891.17 1509.04,895.55 1491.13,895.55L1471.79,895.55L1471.79,853.69L1483.63,853.69C1489.01,853.69 1492.87,852.63 1495.18,850.51C1497.49,848.39 1498.64,844.93 1498.64,840.12L1498.64,657.65L1548,657.65L1548,839.54ZM1502,633.25C1496.64,628.444 1493.64,621.536 1493.77,614.34C1493.6,607.054 1496.61,600.042 1502,595.14C1507.49,590.047 1514.56,587.497 1523.22,587.49C1531.69,587.49 1538.66,590.04 1544.15,595.14C1549.55,600.04 1552.55,607.053 1552.38,614.34C1552.52,621.536 1549.51,628.446 1544.15,633.25C1538.67,638.357 1531.69,640.91 1523.22,640.91C1514.53,640.91 1507.45,638.357 1502,633.25Z" style="fill-rule:nonzero;"/>
    </g>
</svg>
