<svg xmlns="http://www.w3.org/2000/svg" viewBox="0 0 576 512"><path fill="currentColor" d="M413.5 72c-21.3 0-42.6 5.7-61.5 17l0-53.3c0-6-3.4-11.5-8.9-14.3l-39.6-19.8a15.5 15.5 0 0 0 -7.1-1.7 16 16 0 0 0 -14.9 10.1L254.9 76.7c-10.3 3-20 7.4-28.9 13.3-19.2-12.1-41.2-18.1-63.2-18.1C67 71.9 0 193.5 0 291.1c0 71 28.9 137.8 81.4 187.8 22.4 21.2 51.8 32.2 81.5 32.2 38.1 0 57.5-16.7 62.7-16.7 1.4 0 2.9 .4 4.3 1.2 17.1 10.4 36.8 15.6 58.1 15.6 21.4 0 41-5.2 58.1-15.6 1.4-.8 2.9-1.2 4.3-1.2 5.6 0 23.8 16.7 62.7 16.7 29.7 0 59.1-11 81.5-32.2C547.1 429.7 576 362.1 576 291.1c0-97.2-67.9-219.1-162.5-219.1zM380.1 293.6c0 87.5-30.3 174.4-92.1 174.4-60.1 0-92.1-89.1-92.1-177.6 0-87.5 30.3-174.4 92.1-174.4 60.1-.9 92.1 89.1 92.1 177.6zM162.7 464.4C96.5 464.4 48 360.2 48 291.1c0-67.3 48.3-172.3 114.7-172.3 10.7 0 21.9 2.7 33.4 8.8-26.6 40.4-39.9 101.9-39.9 163.4 0 61.6 13.3 123.2 40.1 163.6-11.5 7-22.8 9.8-33.5 9.8zm250.5 0c-10.7 0-21.9-2.8-33.5-8.9 26.4-39.9 40.1-100.9 40.1-163 0-45.5-7.3-91.5-22.3-130.2-.9-1.6-5-14.5-17.6-33.6 11.6-6.1 22.9-8.8 33.6-8.8C479.9 119.8 528 224.5 528 291.1c0 68.3-48.6 173.3-114.8 173.3zm-52.1-144.6h-.3c-3.1 0-6.2 1.3-8.4 3.9-5.7 6.5-13.1 13.2-22.4 18.6l-.2 .1c-11.3 6.5-25.3 11-42.1 11.1h-.4c-29.8 0-51.3-15.3-63.8-29.8-4.1-4.7-11.2-5.2-15.9-1.1-3.9 3.4-4.9 8.9-2.8 13.4 .4 .9 1 1.7 1.6 2.5 15.6 18 42.8 37.5 80.8 37.5l.5 0c39-.2 66-19.6 81.6-37.5 4.1-4.7 3.6-11.8-1.1-15.9a11.2 11.2 0 0 0 -7.2-2.8zM232.2 218.8c-12.4 0-22.4 10-22.4 22.4a22.4 22.4 0 0 0 6.7 16l.1 .1c.8 .8 1.6 1.4 2.5 2.1l.1 .1a22.3 22.3 0 0 0 8.3 3.7l.4 .1c1 .2 1.9 .3 2.9 .4l.2 0c.4 0 .8 0 1.3 0 12.3 0 22.4-10 22.4-22.4 0-12.4-10.1-22.4-22.4-22.4zm112.4 0h-.3c-12.4 .1-22.3 10.1-22.3 22.4 0 12.4 10 22.4 22.4 22.4 12.3 0 22.4-10 22.4-22.4 0-12.4-10-22.4-22.3-22.4z"/></svg>
