<?xml version="1.0" encoding="UTF-8" standalone="no"?>
<!DOCTYPE svg PUBLIC "-//W3C//DTD SVG 1.1//EN" "http://www.w3.org/Graphics/SVG/1.1/DTD/svg11.dtd">
<svg width="100%" height="100%" viewBox="0 0 3000 2000" version="1.1" xmlns="http://www.w3.org/2000/svg" xmlns:xlink="http://www.w3.org/1999/xlink" xml:space="preserve" xmlns:serif="http://www.serif.com/" style="fill-rule:evenodd;clip-rule:evenodd;stroke-linejoin:round;stroke-miterlimit:2;">
    <g transform="matrix(4.24671,0.00407423,-0.00410647,4.28031,150.451,220.296)">
        <path d="M201.869,80.233C223.432,37.165 268.496,7.507 320.545,7.507C372.543,7.507 417.57,37.107 439.159,80.11C463.917,71.948 488.396,73.781 506.56,87.543C521.021,98.498 529.287,115.353 531.473,134.92C534.671,135.125 537.888,135.472 541.118,135.963C601.473,145.142 637.115,195.788 635,258.812C633.573,301.35 595.784,355.248 524.53,356.01L123.923,356.01C115.94,355.598 52.662,352.568 22.227,315.436C-12.915,272.562 -4.571,197.598 47.967,152.816C65.841,137.582 86.172,127.547 106.726,122.71C110.348,106.848 118.355,93.419 130.788,84.405C150.036,70.452 176.042,69.872 201.869,80.233Z" style="fill:rgb(236,236,236);"/>
        <clipPath id="_clip1">
            <path d="M201.869,80.233C223.432,37.165 268.496,7.507 320.545,7.507C372.543,7.507 417.57,37.107 439.159,80.11C463.917,71.948 488.396,73.781 506.56,87.543C521.021,98.498 529.287,115.353 531.473,134.92C534.671,135.125 537.888,135.472 541.118,135.963C601.473,145.142 637.115,195.788 635,258.812C633.573,301.35 595.784,355.248 524.53,356.01L123.923,356.01C115.94,355.598 52.662,352.568 22.227,315.436C-12.915,272.562 -4.571,197.598 47.967,152.816C65.841,137.582 86.172,127.547 106.726,122.71C110.348,106.848 118.355,93.419 130.788,84.405C150.036,70.452 176.042,69.872 201.869,80.233Z"/>
        </clipPath>
        <g clip-path="url(#_clip1)">
            <g transform="matrix(2.00411,1.22661,-2.31214,3.71862,203.383,-308.346)">
                <rect x="59.671" y="-3.908" width="42.618" height="206.24" style="fill:rgb(46,196,182);"/>
            </g>
            <g transform="matrix(2.00411,1.22661,-2.31214,3.71862,410.75,-180.449)">
                <rect x="59.671" y="-3.908" width="42.618" height="206.24" style="fill:rgb(255,159,28);"/>
            </g>
            <g transform="matrix(2.00411,1.22661,-2.31214,3.71862,306.486,-245.242)">
                <rect x="59.671" y="-3.908" width="42.618" height="206.24" style="fill:rgb(231,29,54);"/>
            </g>
        </g>
    </g>
</svg>
