<?xml version="1.0" encoding="UTF-8" standalone="no"?>
<!DOCTYPE svg PUBLIC "-//W3C//DTD SVG 1.1//EN" "http://www.w3.org/Graphics/SVG/1.1/DTD/svg11.dtd">
<svg width="100%" height="100%" viewBox="0 0 3000 2600" version="1.1" xmlns="http://www.w3.org/2000/svg" xmlns:xlink="http://www.w3.org/1999/xlink" xml:space="preserve" xmlns:serif="http://www.serif.com/" style="fill-rule:evenodd;clip-rule:evenodd;stroke-linejoin:round;stroke-miterlimit:2;">
    <g transform="matrix(4.24671,0.00407423,-0.00410647,4.28031,150.451,-20.1532)">
        <path d="M201.869,80.233C223.432,37.165 268.496,7.507 320.545,7.507C372.543,7.507 417.57,37.107 439.159,80.11C463.917,71.948 488.396,73.781 506.56,87.543C521.021,98.498 529.287,115.353 531.473,134.92C534.671,135.125 537.888,135.472 541.118,135.963C601.473,145.142 637.115,195.788 635,258.812C633.573,301.35 595.784,355.248 524.53,356.01L123.923,356.01C115.94,355.598 52.662,352.568 22.227,315.436C-12.915,272.562 -4.571,197.598 47.967,152.816C65.841,137.582 86.172,127.547 106.726,122.71C110.348,106.848 118.355,93.419 130.788,84.405C150.036,70.452 176.042,69.872 201.869,80.233Z" style="fill:rgb(71,71,71);"/>
        <clipPath id="_clip1">
            <path d="M201.869,80.233C223.432,37.165 268.496,7.507 320.545,7.507C372.543,7.507 417.57,37.107 439.159,80.11C463.917,71.948 488.396,73.781 506.56,87.543C521.021,98.498 529.287,115.353 531.473,134.92C534.671,135.125 537.888,135.472 541.118,135.963C601.473,145.142 637.115,195.788 635,258.812C633.573,301.35 595.784,355.248 524.53,356.01L123.923,356.01C115.94,355.598 52.662,352.568 22.227,315.436C-12.915,272.562 -4.571,197.598 47.967,152.816C65.841,137.582 86.172,127.547 106.726,122.71C110.348,106.848 118.355,93.419 130.788,84.405C150.036,70.452 176.042,69.872 201.869,80.233Z"/>
        </clipPath>
        <g clip-path="url(#_clip1)">
            <g transform="matrix(2.00411,1.22661,-2.31214,3.71862,203.383,-308.346)">
                <rect x="59.671" y="-3.908" width="42.618" height="206.24" style="fill:rgb(46,196,182);"/>
            </g>
            <g transform="matrix(2.00411,1.22661,-2.31214,3.71862,410.75,-180.449)">
                <rect x="59.671" y="-3.908" width="42.618" height="206.24" style="fill:rgb(255,159,28);"/>
            </g>
            <g transform="matrix(2.00411,1.22661,-2.31214,3.71862,306.486,-245.242)">
                <rect x="59.671" y="-3.908" width="42.618" height="206.24" style="fill:rgb(231,29,54);"/>
            </g>
        </g>
    </g>
    <g transform="matrix(0.912173,0,0,0.912173,86.0653,271.958)">
        <g transform="matrix(266.666,0,0,266.666,1521.84,2387.91)">
            <path d="M0.298,0.007C0.252,0.007 0.211,-0.001 0.174,-0.018C0.138,-0.034 0.11,-0.057 0.089,-0.086C0.068,-0.115 0.058,-0.148 0.057,-0.186L0.154,-0.186C0.157,-0.153 0.171,-0.126 0.195,-0.103C0.218,-0.081 0.253,-0.07 0.298,-0.07C0.341,-0.07 0.376,-0.081 0.401,-0.102C0.426,-0.124 0.438,-0.152 0.438,-0.186C0.438,-0.213 0.431,-0.234 0.416,-0.251C0.401,-0.268 0.383,-0.28 0.361,-0.289C0.339,-0.298 0.309,-0.307 0.272,-0.317C0.226,-0.329 0.189,-0.341 0.162,-0.353C0.134,-0.365 0.11,-0.384 0.091,-0.409C0.071,-0.435 0.061,-0.47 0.061,-0.513C0.061,-0.551 0.071,-0.585 0.09,-0.614C0.109,-0.643 0.137,-0.666 0.172,-0.682C0.206,-0.698 0.247,-0.706 0.292,-0.706C0.357,-0.706 0.411,-0.69 0.453,-0.657C0.494,-0.624 0.518,-0.581 0.523,-0.527L0.423,-0.527C0.42,-0.554 0.406,-0.577 0.381,-0.598C0.356,-0.618 0.324,-0.628 0.283,-0.628C0.245,-0.628 0.214,-0.618 0.19,-0.599C0.166,-0.579 0.154,-0.551 0.154,-0.516C0.154,-0.491 0.161,-0.47 0.175,-0.454C0.19,-0.438 0.207,-0.426 0.229,-0.418C0.25,-0.409 0.279,-0.4 0.317,-0.389C0.363,-0.376 0.4,-0.364 0.428,-0.352C0.456,-0.339 0.48,-0.32 0.5,-0.295C0.52,-0.269 0.53,-0.234 0.53,-0.19C0.53,-0.156 0.521,-0.124 0.503,-0.094C0.485,-0.064 0.458,-0.04 0.423,-0.021C0.388,-0.002 0.346,0.007 0.298,0.007Z" style="fill:rgb(71,71,71);fill-rule:nonzero;"/>
        </g>
        <g transform="matrix(266.666,0,0,266.666,1678.37,2387.91)">
            <path d="M0.316,0.009C0.265,0.009 0.218,-0.003 0.177,-0.026C0.135,-0.049 0.102,-0.083 0.079,-0.126C0.055,-0.169 0.043,-0.218 0.043,-0.275C0.043,-0.331 0.055,-0.381 0.08,-0.424C0.104,-0.467 0.137,-0.5 0.179,-0.523C0.221,-0.546 0.268,-0.557 0.32,-0.557C0.372,-0.557 0.419,-0.546 0.461,-0.523C0.503,-0.5 0.536,-0.467 0.561,-0.424C0.585,-0.381 0.597,-0.332 0.597,-0.275C0.597,-0.218 0.585,-0.169 0.56,-0.126C0.535,-0.083 0.501,-0.049 0.458,-0.026C0.415,-0.003 0.368,0.009 0.316,0.009ZM0.316,-0.071C0.349,-0.071 0.379,-0.079 0.408,-0.094C0.437,-0.109 0.46,-0.132 0.477,-0.163C0.495,-0.194 0.504,-0.231 0.504,-0.275C0.504,-0.319 0.495,-0.356 0.478,-0.387C0.461,-0.418 0.438,-0.441 0.41,-0.456C0.382,-0.47 0.352,-0.478 0.319,-0.478C0.286,-0.478 0.255,-0.47 0.228,-0.456C0.2,-0.441 0.178,-0.418 0.161,-0.387C0.144,-0.356 0.136,-0.319 0.136,-0.275C0.136,-0.23 0.144,-0.193 0.161,-0.162C0.177,-0.131 0.199,-0.109 0.226,-0.094C0.253,-0.079 0.283,-0.071 0.316,-0.071Z" style="fill:rgb(71,71,71);fill-rule:nonzero;"/>
        </g>
        <g transform="matrix(266.666,0,0,266.666,1849.04,2387.91)">
            <rect x="0.077" y="-0.74" width="0.091" height="0.74" style="fill:rgb(71,71,71);fill-rule:nonzero;"/>
        </g>
        <g transform="matrix(266.666,0,0,266.666,1914.64,2387.91)">
            <path d="M0.563,-0.548L0.563,-0L0.472,-0L0.472,-0.081C0.455,-0.053 0.431,-0.031 0.4,-0.016C0.369,0 0.334,0.008 0.297,0.008C0.254,0.008 0.216,-0.001 0.182,-0.019C0.148,-0.036 0.121,-0.063 0.102,-0.098C0.082,-0.133 0.072,-0.176 0.072,-0.227L0.072,-0.548L0.162,-0.548L0.162,-0.239C0.162,-0.185 0.176,-0.143 0.203,-0.115C0.23,-0.086 0.268,-0.071 0.315,-0.071C0.364,-0.071 0.402,-0.086 0.43,-0.116C0.458,-0.146 0.472,-0.19 0.472,-0.247L0.472,-0.548L0.563,-0.548Z" style="fill:rgb(71,71,71);fill-rule:nonzero;"/>
        </g>
        <g transform="matrix(266.666,0,0,266.666,2085.3,2387.91)">
            <path d="M0.188,-0.473L0.188,-0.15C0.188,-0.123 0.194,-0.105 0.205,-0.094C0.216,-0.083 0.236,-0.077 0.264,-0.077L0.331,-0.077L0.331,-0L0.249,-0C0.198,-0 0.16,-0.012 0.135,-0.035C0.11,-0.058 0.097,-0.097 0.097,-0.15L0.097,-0.473L0.026,-0.473L0.026,-0.548L0.097,-0.548L0.097,-0.686L0.188,-0.686L0.188,-0.548L0.331,-0.548L0.331,-0.473L0.188,-0.473Z" style="fill:rgb(71,71,71);fill-rule:nonzero;"/>
        </g>
        <g transform="matrix(266.666,0,0,266.666,2182.37,2387.91)">
            <path d="M0.124,-0.637C0.107,-0.637 0.092,-0.643 0.08,-0.655C0.068,-0.667 0.062,-0.682 0.062,-0.699C0.062,-0.716 0.068,-0.731 0.08,-0.743C0.092,-0.755 0.107,-0.761 0.124,-0.761C0.141,-0.761 0.155,-0.755 0.167,-0.743C0.178,-0.731 0.184,-0.716 0.184,-0.699C0.184,-0.682 0.178,-0.667 0.167,-0.655C0.155,-0.643 0.141,-0.637 0.124,-0.637ZM0.168,-0.548L0.168,-0L0.077,-0L0.077,-0.548L0.168,-0.548Z" style="fill:rgb(71,71,71);fill-rule:nonzero;"/>
        </g>
        <g transform="matrix(266.666,0,0,266.666,2247.97,2387.91)">
            <path d="M0.316,0.009C0.265,0.009 0.218,-0.003 0.177,-0.026C0.135,-0.049 0.102,-0.083 0.079,-0.126C0.055,-0.169 0.043,-0.218 0.043,-0.275C0.043,-0.331 0.055,-0.381 0.08,-0.424C0.104,-0.467 0.137,-0.5 0.179,-0.523C0.221,-0.546 0.268,-0.557 0.32,-0.557C0.372,-0.557 0.419,-0.546 0.461,-0.523C0.503,-0.5 0.536,-0.467 0.561,-0.424C0.585,-0.381 0.597,-0.332 0.597,-0.275C0.597,-0.218 0.585,-0.169 0.56,-0.126C0.535,-0.083 0.501,-0.049 0.458,-0.026C0.415,-0.003 0.368,0.009 0.316,0.009ZM0.316,-0.071C0.349,-0.071 0.379,-0.079 0.408,-0.094C0.437,-0.109 0.46,-0.132 0.477,-0.163C0.495,-0.194 0.504,-0.231 0.504,-0.275C0.504,-0.319 0.495,-0.356 0.478,-0.387C0.461,-0.418 0.438,-0.441 0.41,-0.456C0.382,-0.47 0.352,-0.478 0.319,-0.478C0.286,-0.478 0.255,-0.47 0.228,-0.456C0.2,-0.441 0.178,-0.418 0.161,-0.387C0.144,-0.356 0.136,-0.319 0.136,-0.275C0.136,-0.23 0.144,-0.193 0.161,-0.162C0.177,-0.131 0.199,-0.109 0.226,-0.094C0.253,-0.079 0.283,-0.071 0.316,-0.071Z" style="fill:rgb(71,71,71);fill-rule:nonzero;"/>
        </g>
        <g transform="matrix(266.666,0,0,266.666,2418.64,2387.91)">
            <path d="M0.344,-0.558C0.411,-0.558 0.465,-0.538 0.506,-0.498C0.547,-0.457 0.568,-0.399 0.568,-0.323L0.568,-0L0.478,-0L0.478,-0.31C0.478,-0.365 0.464,-0.406 0.437,-0.436C0.41,-0.465 0.372,-0.479 0.325,-0.479C0.277,-0.479 0.239,-0.464 0.211,-0.434C0.182,-0.404 0.168,-0.36 0.168,-0.303L0.168,-0L0.077,-0L0.077,-0.548L0.168,-0.548L0.168,-0.47C0.186,-0.498 0.211,-0.52 0.242,-0.535C0.273,-0.55 0.307,-0.558 0.344,-0.558Z" style="fill:rgb(71,71,71);fill-rule:nonzero;"/>
        </g>
        <g transform="matrix(266.666,0,0,266.666,2589.3,2387.91)">
            <path d="M0.271,0.009C0.229,0.009 0.191,0.002 0.158,-0.013C0.125,-0.027 0.098,-0.047 0.079,-0.073C0.06,-0.098 0.049,-0.128 0.047,-0.161L0.141,-0.161C0.144,-0.134 0.157,-0.111 0.18,-0.094C0.203,-0.077 0.233,-0.068 0.27,-0.068C0.305,-0.068 0.332,-0.076 0.352,-0.091C0.372,-0.106 0.382,-0.126 0.382,-0.149C0.382,-0.173 0.371,-0.191 0.35,-0.203C0.329,-0.214 0.296,-0.226 0.251,-0.237C0.21,-0.248 0.177,-0.259 0.152,-0.27C0.126,-0.281 0.104,-0.297 0.086,-0.319C0.067,-0.34 0.058,-0.369 0.058,-0.404C0.058,-0.432 0.066,-0.458 0.083,-0.481C0.1,-0.504 0.123,-0.523 0.154,-0.537C0.185,-0.55 0.22,-0.557 0.259,-0.557C0.32,-0.557 0.369,-0.542 0.406,-0.511C0.443,-0.48 0.463,-0.438 0.466,-0.385L0.375,-0.385C0.373,-0.414 0.362,-0.437 0.341,-0.454C0.32,-0.471 0.291,-0.48 0.256,-0.48C0.223,-0.48 0.197,-0.473 0.178,-0.459C0.159,-0.445 0.149,-0.427 0.149,-0.404C0.149,-0.386 0.155,-0.371 0.167,-0.36C0.178,-0.348 0.193,-0.339 0.211,-0.332C0.228,-0.325 0.253,-0.317 0.284,-0.308C0.323,-0.297 0.355,-0.287 0.38,-0.277C0.405,-0.266 0.426,-0.251 0.444,-0.23C0.461,-0.209 0.47,-0.182 0.471,-0.149C0.471,-0.119 0.463,-0.092 0.446,-0.068C0.429,-0.044 0.406,-0.025 0.376,-0.012C0.345,0.002 0.31,0.009 0.271,0.009Z" style="fill:rgb(71,71,71);fill-rule:nonzero;"/>
        </g>
    </g>
    <g transform="matrix(0.911519,0,0,0.909804,-392.029,293.508)">
        <g transform="matrix(266.666,0,0,266.666,748.998,2363.51)">
            <path d="M0.614,-0.697L0.614,-0L0.523,-0L0.523,-0.316L0.168,-0.316L0.168,-0L0.077,-0L0.077,-0.697L0.168,-0.697L0.168,-0.391L0.523,-0.391L0.523,-0.697L0.614,-0.697Z" style="fill:rgb(71,71,71);fill-rule:nonzero;"/>
        </g>
        <g transform="matrix(266.666,0,0,266.666,933.531,2363.51)">
            <path d="M0.316,0.009C0.265,0.009 0.218,-0.003 0.177,-0.026C0.135,-0.049 0.102,-0.083 0.079,-0.126C0.055,-0.169 0.043,-0.218 0.043,-0.275C0.043,-0.331 0.055,-0.381 0.08,-0.424C0.104,-0.467 0.137,-0.5 0.179,-0.523C0.221,-0.546 0.268,-0.557 0.32,-0.557C0.372,-0.557 0.419,-0.546 0.461,-0.523C0.503,-0.5 0.536,-0.467 0.561,-0.424C0.585,-0.381 0.597,-0.332 0.597,-0.275C0.597,-0.218 0.585,-0.169 0.56,-0.126C0.535,-0.083 0.501,-0.049 0.458,-0.026C0.415,-0.003 0.368,0.009 0.316,0.009ZM0.316,-0.071C0.349,-0.071 0.379,-0.079 0.408,-0.094C0.437,-0.109 0.46,-0.132 0.477,-0.163C0.495,-0.194 0.504,-0.231 0.504,-0.275C0.504,-0.319 0.495,-0.356 0.478,-0.387C0.461,-0.418 0.438,-0.441 0.41,-0.456C0.382,-0.47 0.352,-0.478 0.319,-0.478C0.286,-0.478 0.255,-0.47 0.228,-0.456C0.2,-0.441 0.178,-0.418 0.161,-0.387C0.144,-0.356 0.136,-0.319 0.136,-0.275C0.136,-0.23 0.144,-0.193 0.161,-0.162C0.177,-0.131 0.199,-0.109 0.226,-0.094C0.253,-0.079 0.283,-0.071 0.316,-0.071Z" style="fill:rgb(71,71,71);fill-rule:nonzero;"/>
        </g>
        <g transform="matrix(266.666,0,0,266.666,1104.2,2363.51)">
            <path d="M0.271,0.009C0.229,0.009 0.191,0.002 0.158,-0.013C0.125,-0.027 0.098,-0.047 0.079,-0.073C0.06,-0.098 0.049,-0.128 0.047,-0.161L0.141,-0.161C0.144,-0.134 0.157,-0.111 0.18,-0.094C0.203,-0.077 0.233,-0.068 0.27,-0.068C0.305,-0.068 0.332,-0.076 0.352,-0.091C0.372,-0.106 0.382,-0.126 0.382,-0.149C0.382,-0.173 0.371,-0.191 0.35,-0.203C0.329,-0.214 0.296,-0.226 0.251,-0.237C0.21,-0.248 0.177,-0.259 0.152,-0.27C0.126,-0.281 0.104,-0.297 0.086,-0.319C0.067,-0.34 0.058,-0.369 0.058,-0.404C0.058,-0.432 0.066,-0.458 0.083,-0.481C0.1,-0.504 0.123,-0.523 0.154,-0.537C0.185,-0.55 0.22,-0.557 0.259,-0.557C0.32,-0.557 0.369,-0.542 0.406,-0.511C0.443,-0.48 0.463,-0.438 0.466,-0.385L0.375,-0.385C0.373,-0.414 0.362,-0.437 0.341,-0.454C0.32,-0.471 0.291,-0.48 0.256,-0.48C0.223,-0.48 0.197,-0.473 0.178,-0.459C0.159,-0.445 0.149,-0.427 0.149,-0.404C0.149,-0.386 0.155,-0.371 0.167,-0.36C0.178,-0.348 0.193,-0.339 0.211,-0.332C0.228,-0.325 0.253,-0.317 0.284,-0.308C0.323,-0.297 0.355,-0.287 0.38,-0.277C0.405,-0.266 0.426,-0.251 0.444,-0.23C0.461,-0.209 0.47,-0.182 0.471,-0.149C0.471,-0.119 0.463,-0.092 0.446,-0.068C0.429,-0.044 0.406,-0.025 0.376,-0.012C0.345,0.002 0.31,0.009 0.271,0.009Z" style="fill:rgb(71,71,71);fill-rule:nonzero;"/>
        </g>
        <g transform="matrix(266.666,0,0,266.666,1243.4,2363.51)">
            <path d="M0.188,-0.473L0.188,-0.15C0.188,-0.123 0.194,-0.105 0.205,-0.094C0.216,-0.083 0.236,-0.077 0.264,-0.077L0.331,-0.077L0.331,-0L0.249,-0C0.198,-0 0.16,-0.012 0.135,-0.035C0.11,-0.058 0.097,-0.097 0.097,-0.15L0.097,-0.473L0.026,-0.473L0.026,-0.548L0.097,-0.548L0.097,-0.686L0.188,-0.686L0.188,-0.548L0.331,-0.548L0.331,-0.473L0.188,-0.473Z" style="fill:rgb(71,71,71);fill-rule:nonzero;"/>
        </g>
        <g transform="matrix(266.666,0,0,266.666,1340.46,2363.51)">
            <path d="M0.124,-0.637C0.107,-0.637 0.092,-0.643 0.08,-0.655C0.068,-0.667 0.062,-0.682 0.062,-0.699C0.062,-0.716 0.068,-0.731 0.08,-0.743C0.092,-0.755 0.107,-0.761 0.124,-0.761C0.141,-0.761 0.155,-0.755 0.167,-0.743C0.178,-0.731 0.184,-0.716 0.184,-0.699C0.184,-0.682 0.178,-0.667 0.167,-0.655C0.155,-0.643 0.141,-0.637 0.124,-0.637ZM0.168,-0.548L0.168,-0L0.077,-0L0.077,-0.548L0.168,-0.548Z" style="fill:rgb(71,71,71);fill-rule:nonzero;"/>
        </g>
        <g transform="matrix(266.666,0,0,266.666,1406.06,2363.51)">
            <path d="M0.344,-0.558C0.411,-0.558 0.465,-0.538 0.506,-0.498C0.547,-0.457 0.568,-0.399 0.568,-0.323L0.568,-0L0.478,-0L0.478,-0.31C0.478,-0.365 0.464,-0.406 0.437,-0.436C0.41,-0.465 0.372,-0.479 0.325,-0.479C0.277,-0.479 0.239,-0.464 0.211,-0.434C0.182,-0.404 0.168,-0.36 0.168,-0.303L0.168,-0L0.077,-0L0.077,-0.548L0.168,-0.548L0.168,-0.47C0.186,-0.498 0.211,-0.52 0.242,-0.535C0.273,-0.55 0.307,-0.558 0.344,-0.558Z" style="fill:rgb(71,71,71);fill-rule:nonzero;"/>
        </g>
        <g transform="matrix(266.666,0,0,266.666,1576.73,2363.51)">
            <path d="M0.303,-0.557C0.35,-0.557 0.392,-0.547 0.428,-0.526C0.463,-0.505 0.49,-0.479 0.507,-0.448L0.507,-0.548L0.599,-0.548L0.599,0.012C0.599,0.062 0.588,0.106 0.567,0.145C0.546,0.184 0.515,0.215 0.475,0.237C0.436,0.259 0.39,0.27 0.337,0.27C0.265,0.27 0.205,0.253 0.157,0.219C0.109,0.185 0.081,0.139 0.072,0.08L0.162,0.08C0.172,0.113 0.193,0.14 0.224,0.16C0.255,0.181 0.293,0.191 0.337,0.191C0.387,0.191 0.428,0.175 0.46,0.144C0.491,0.113 0.507,0.069 0.507,0.012L0.507,-0.103C0.489,-0.071 0.462,-0.044 0.427,-0.023C0.392,-0.002 0.35,0.009 0.303,0.009C0.254,0.009 0.21,-0.003 0.171,-0.027C0.131,-0.051 0.1,-0.085 0.077,-0.128C0.054,-0.171 0.043,-0.221 0.043,-0.276C0.043,-0.332 0.054,-0.381 0.077,-0.424C0.1,-0.466 0.131,-0.499 0.171,-0.522C0.21,-0.545 0.254,-0.557 0.303,-0.557ZM0.507,-0.275C0.507,-0.316 0.499,-0.352 0.482,-0.383C0.465,-0.414 0.443,-0.437 0.414,-0.454C0.386,-0.47 0.355,-0.478 0.321,-0.478C0.287,-0.478 0.256,-0.47 0.228,-0.454C0.2,-0.438 0.178,-0.415 0.161,-0.384C0.144,-0.353 0.136,-0.317 0.136,-0.276C0.136,-0.234 0.144,-0.198 0.161,-0.167C0.178,-0.136 0.2,-0.112 0.228,-0.096C0.256,-0.079 0.287,-0.071 0.321,-0.071C0.355,-0.071 0.386,-0.079 0.414,-0.096C0.443,-0.112 0.465,-0.136 0.482,-0.167C0.499,-0.198 0.507,-0.234 0.507,-0.275Z" style="fill:rgb(71,71,71);fill-rule:nonzero;"/>
        </g>
    </g>
    <g transform="matrix(0.979691,0,0,0.988317,-939.213,207.46)">
        <g transform="matrix(746.216,0,0,746.216,1158.79,1966.54)">
            <path d="M0.043,-0.349C0.043,-0.417 0.058,-0.478 0.089,-0.533C0.12,-0.587 0.162,-0.629 0.215,-0.66C0.268,-0.691 0.326,-0.706 0.391,-0.706C0.467,-0.706 0.533,-0.688 0.59,-0.651C0.647,-0.614 0.688,-0.562 0.714,-0.495L0.605,-0.495C0.586,-0.537 0.558,-0.569 0.522,-0.592C0.485,-0.615 0.442,-0.626 0.391,-0.626C0.342,-0.626 0.299,-0.615 0.26,-0.592C0.221,-0.569 0.191,-0.537 0.169,-0.496C0.147,-0.454 0.136,-0.405 0.136,-0.349C0.136,-0.294 0.147,-0.245 0.169,-0.203C0.191,-0.162 0.221,-0.13 0.26,-0.107C0.299,-0.084 0.342,-0.073 0.391,-0.073C0.442,-0.073 0.485,-0.084 0.522,-0.107C0.558,-0.129 0.586,-0.161 0.605,-0.203L0.714,-0.203C0.688,-0.136 0.647,-0.085 0.59,-0.049C0.533,-0.012 0.467,0.006 0.391,0.006C0.326,0.006 0.268,-0.009 0.215,-0.04C0.162,-0.07 0.12,-0.112 0.089,-0.166C0.058,-0.22 0.043,-0.281 0.043,-0.349Z" style="fill:rgb(71,71,71);fill-rule:nonzero;"/>
        </g>
        <g transform="matrix(746.216,0,0,746.216,1734.87,1966.54)">
            <path d="M0.043,-0.276C0.043,-0.332 0.054,-0.381 0.077,-0.424C0.1,-0.466 0.131,-0.499 0.171,-0.522C0.21,-0.545 0.254,-0.557 0.303,-0.557C0.351,-0.557 0.393,-0.547 0.428,-0.526C0.463,-0.505 0.49,-0.479 0.507,-0.448L0.507,-0.548L0.599,-0.548L0.599,-0L0.507,-0L0.507,-0.102C0.489,-0.07 0.462,-0.043 0.427,-0.023C0.391,-0.002 0.349,0.009 0.302,0.009C0.253,0.009 0.209,-0.003 0.17,-0.027C0.131,-0.051 0.1,-0.085 0.077,-0.128C0.054,-0.171 0.043,-0.221 0.043,-0.276ZM0.507,-0.275C0.507,-0.316 0.499,-0.352 0.482,-0.383C0.465,-0.414 0.443,-0.437 0.414,-0.454C0.386,-0.47 0.355,-0.478 0.321,-0.478C0.287,-0.478 0.256,-0.47 0.228,-0.454C0.2,-0.438 0.178,-0.415 0.161,-0.384C0.144,-0.353 0.136,-0.317 0.136,-0.276C0.136,-0.234 0.144,-0.198 0.161,-0.167C0.178,-0.136 0.2,-0.112 0.228,-0.096C0.256,-0.079 0.287,-0.071 0.321,-0.071C0.355,-0.071 0.386,-0.079 0.414,-0.096C0.443,-0.112 0.465,-0.136 0.482,-0.167C0.499,-0.198 0.507,-0.234 0.507,-0.275Z" style="fill:rgb(71,71,71);fill-rule:nonzero;"/>
        </g>
        <g transform="matrix(746.216,0,0,746.216,2239.31,1966.54)">
            <path d="M0.168,-0.447C0.186,-0.478 0.213,-0.504 0.249,-0.526C0.284,-0.547 0.326,-0.557 0.373,-0.557C0.422,-0.557 0.466,-0.545 0.505,-0.522C0.545,-0.499 0.576,-0.466 0.599,-0.424C0.622,-0.381 0.633,-0.332 0.633,-0.276C0.633,-0.221 0.622,-0.171 0.599,-0.128C0.576,-0.085 0.545,-0.051 0.505,-0.027C0.466,-0.003 0.422,0.009 0.373,0.009C0.326,0.009 0.285,-0.002 0.25,-0.023C0.214,-0.043 0.187,-0.07 0.168,-0.101L0.168,0.26L0.077,0.26L0.077,-0.548L0.168,-0.548L0.168,-0.447ZM0.54,-0.276C0.54,-0.317 0.532,-0.353 0.515,-0.384C0.498,-0.415 0.476,-0.438 0.448,-0.454C0.419,-0.47 0.388,-0.478 0.354,-0.478C0.321,-0.478 0.29,-0.47 0.262,-0.454C0.233,-0.437 0.211,-0.413 0.194,-0.383C0.177,-0.352 0.168,-0.316 0.168,-0.275C0.168,-0.234 0.177,-0.198 0.194,-0.167C0.211,-0.136 0.233,-0.112 0.262,-0.096C0.29,-0.079 0.321,-0.071 0.354,-0.071C0.388,-0.071 0.419,-0.079 0.448,-0.096C0.476,-0.112 0.498,-0.136 0.515,-0.167C0.532,-0.198 0.54,-0.234 0.54,-0.276Z" style="fill:rgb(71,71,71);fill-rule:nonzero;"/>
        </g>
        <g transform="matrix(746.216,0,0,746.216,2743.75,1966.54)">
            <path d="M0.124,-0.637C0.107,-0.637 0.092,-0.643 0.08,-0.655C0.068,-0.667 0.062,-0.682 0.062,-0.699C0.062,-0.716 0.068,-0.731 0.08,-0.743C0.092,-0.755 0.107,-0.761 0.124,-0.761C0.141,-0.761 0.155,-0.755 0.167,-0.743C0.178,-0.731 0.184,-0.716 0.184,-0.699C0.184,-0.682 0.178,-0.667 0.167,-0.655C0.155,-0.643 0.141,-0.637 0.124,-0.637ZM0.168,-0.548L0.168,-0L0.077,-0L0.077,-0.548L0.168,-0.548Z" style="fill:rgb(71,71,71);fill-rule:nonzero;"/>
        </g>
        <g transform="matrix(746.216,0,0,746.216,2927.32,1966.54)">
            <path d="M0.188,-0.473L0.188,-0.15C0.188,-0.123 0.194,-0.105 0.205,-0.094C0.216,-0.083 0.236,-0.077 0.264,-0.077L0.331,-0.077L0.331,-0L0.249,-0C0.198,-0 0.16,-0.012 0.135,-0.035C0.11,-0.058 0.097,-0.097 0.097,-0.15L0.097,-0.473L0.026,-0.473L0.026,-0.548L0.097,-0.548L0.097,-0.686L0.188,-0.686L0.188,-0.548L0.331,-0.548L0.331,-0.473L0.188,-0.473Z" style="fill:rgb(71,71,71);fill-rule:nonzero;"/>
        </g>
        <g transform="matrix(746.216,0,0,746.216,3198.95,1966.54)">
            <path d="M0.316,0.009C0.265,0.009 0.218,-0.003 0.177,-0.026C0.135,-0.049 0.102,-0.083 0.079,-0.126C0.055,-0.169 0.043,-0.218 0.043,-0.275C0.043,-0.331 0.055,-0.381 0.08,-0.424C0.104,-0.467 0.137,-0.5 0.179,-0.523C0.221,-0.546 0.268,-0.557 0.32,-0.557C0.372,-0.557 0.419,-0.546 0.461,-0.523C0.503,-0.5 0.536,-0.467 0.561,-0.424C0.585,-0.381 0.597,-0.332 0.597,-0.275C0.597,-0.218 0.585,-0.169 0.56,-0.126C0.535,-0.083 0.501,-0.049 0.458,-0.026C0.415,-0.003 0.368,0.009 0.316,0.009ZM0.316,-0.071C0.349,-0.071 0.379,-0.079 0.408,-0.094C0.437,-0.109 0.46,-0.132 0.477,-0.163C0.495,-0.194 0.504,-0.231 0.504,-0.275C0.504,-0.319 0.495,-0.356 0.478,-0.387C0.461,-0.418 0.438,-0.441 0.41,-0.456C0.382,-0.47 0.352,-0.478 0.319,-0.478C0.286,-0.478 0.255,-0.47 0.228,-0.456C0.2,-0.441 0.178,-0.418 0.161,-0.387C0.144,-0.356 0.136,-0.319 0.136,-0.275C0.136,-0.23 0.144,-0.193 0.161,-0.162C0.177,-0.131 0.199,-0.109 0.226,-0.094C0.253,-0.079 0.283,-0.071 0.316,-0.071Z" style="fill:rgb(71,71,71);fill-rule:nonzero;"/>
        </g>
        <g transform="matrix(746.216,0,0,746.216,3676.52,1966.54)">
            <rect x="0.077" y="-0.74" width="0.091" height="0.74" style="fill:rgb(71,71,71);fill-rule:nonzero;"/>
        </g>
    </g>
</svg>
