<svg version="1.2" xmlns="http://www.w3.org/2000/svg" viewBox="0 0 426 144" width="426" height="144"><style>.a{fill:#fcad32}.b{fill:#f78100}path{fill:#fff}</style><path  d="m47.3 108.5h9.6v26.1h16.6v8.3h-26.2v-34.4z"/><path fill-rule="evenodd" d="m83.4 125.8v-0.1c0-9.8 8-17.9 18.6-17.9 10.6 0 18.5 8 18.5 17.8v0.1c0 9.9-8 17.9-18.6 17.9-10.6 0-18.5-7.9-18.5-17.8zm27.3 0v-0.1c0-5-3.5-9.2-8.8-9.2-5.3 0-8.7 4.2-8.7 9.1v0.1c0 5 3.6 9.3 8.8 9.3 5.2 0 8.7-4.2 8.7-9.2z"/><path  d="m132.2 127.8v-19.3h9.6v19.2c0 5 2.6 7.3 6.4 7.3 3.8 0 6.3-2.3 6.3-7.1v-19.4h9.7v19.1c0 11.1-6.3 16-16.1 16-9.8 0-15.9-5-15.9-15.7"/><path fill-rule="evenodd" d="m178.8 108.5h13.3c12.3 0 19.4 7.1 19.4 17v0.1c0 10-7.2 17.3-19.6 17.3h-13.1zm13.4 26c5.7 0 9.5-3.1 9.5-8.7v-0.1c0-5.5-3.8-8.7-9.5-8.7h-3.9v17.5z"/><path  d="m225.3 108.5h27.6v8.4h-18v5.8h16.3v8h-16.3v12.2h-9.6v-34.4z"/><path  d="m266.1 108.5h9.6v26.1h16.6v8.3h-26.2v-34.4z"/><path fill-rule="evenodd" d="m317.3 108.3h9.2l14.6 34.6h-10.2l-2.5-6.1h-13.3l-2.4 6.1h-10zm8.3 21.1l-3.8-9.8-3.9 9.8z"/><path fill-rule="evenodd" d="m353.4 108.5h16.3c5.2 0 8.9 1.4 11.2 3.8q0.7 0.8 1.3 1.7 0.6 0.9 1 2 0.4 1 0.6 2.1 0.1 1.1 0.1 2.2v0.1q0 1.7-0.4 3.3-0.5 1.7-1.4 3.1-1 1.5-2.3 2.5-1.3 1.1-2.9 1.7l8.2 12h-11.1l-6.9-10.4h-4.2v10.4h-9.5zm15.8 16.5c3.3 0 5.1-1.5 5.1-4.1v-0.1c0-2.7-2-4-5.1-4h-6.3v8.2z"/><path  d="m397.7 108.5h27.7v8.1h-18.3v5.2h16.5v7.6h-16.5v5.4h18.5v8.1h-27.9v-34.4z"/><path  d="m26.5 129.9q-0.5 1.1-1.3 2.1-0.8 0.9-1.9 1.6-1.1 0.7-2.3 1.1-1.2 0.3-2.4 0.3c-5.2 0-8.8-4.3-8.8-9.3v-0.1c0-5 3.5-9.2 8.7-9.2q1.3 0 2.6 0.4 1.3 0.4 2.4 1.2 1.1 0.7 1.9 1.8 0.8 1.1 1.3 2.3h10c-1.6-8.2-8.8-14.3-18.1-14.3-10.6 0-18.6 8.1-18.6 17.9v0.1c0 9.9 7.9 17.8 18.5 17.8 9.1 0 16.2-5.9 18-13.7z"/><path class="a" d="m385.2 40q-1 0-2 0 0 0 0 0-0.1 0-0.1 0-0.1 0-0.1 0 0 0.1-0.1 0.1-0.1 0-0.2 0.1-0.1 0.1-0.2 0.2-0.1 0.1-0.2 0.2-0.1 0.1-0.1 0.3l-2.9 10c-1.2 4.2-0.8 8.2 1.3 11.1q0.8 1 1.8 1.9 1 0.8 2.2 1.4 1.2 0.5 2.4 0.8 1.3 0.3 2.6 0.3l15.6 1q0.2 0 0.4 0 0.1 0.1 0.3 0.1 0.1 0.1 0.2 0.2 0.2 0.1 0.3 0.3 0.1 0.1 0.1 0.3 0.1 0.1 0.1 0.3 0 0.2 0 0.4 0 0.1-0.1 0.3-0.1 0.3-0.2 0.5-0.2 0.2-0.4 0.4-0.3 0.2-0.5 0.3-0.3 0.1-0.6 0.1l-16.2 0.9c-8.8 0.5-18.3 7.6-21.7 16.3l-1.1 3q-0.1 0.2-0.1 0.4 0 0.2 0.1 0.4 0.1 0.2 0.3 0.3 0.2 0.1 0.4 0.1h56q0.2 0 0.4-0.1 0.3 0 0.5-0.2 0.2-0.1 0.3-0.3 0.1-0.2 0.2-0.5c1.7-5.9 1.9-12.2 0.8-18.3-1.2-6.1-3.7-11.8-7.5-16.7-3.7-5-8.6-9-14.1-11.7-5.6-2.8-11.7-4.2-17.9-4.2z"/><path class="b" d="m360.8 90.7l1-3.6c1.2-4.3 0.8-8.2-1.3-11.2q-0.8-1-1.8-1.8-1-0.8-2.2-1.4-1.2-0.6-2.4-0.9-1.3-0.3-2.6-0.3l-73.4-0.9q-0.1 0-0.3-0.1-0.1 0-0.3-0.1-0.2-0.1-0.3-0.2-0.1-0.1-0.2-0.2-0.1-0.2-0.2-0.4 0-0.1 0-0.3-0.1-0.2 0-0.3 0-0.2 0-0.4 0.1-0.2 0.3-0.5 0.2-0.2 0.4-0.4 0.2-0.1 0.5-0.2 0.3-0.1 0.5-0.2l74-0.9c8.8-0.4 18.3-7.5 21.7-16.2l4.2-11q0-0.1 0.1-0.3 0-0.1 0-0.2 0-0.1 0-0.2 0-0.2 0-0.3 0 0 0-0.1 0-0.1 0-0.1 0-0.1 0-0.2 0 0 0-0.1c-2.3-10.3-7.9-19.5-15.9-26.3-8-6.8-18.1-10.8-28.6-11.3-10.5-0.6-20.9 2.3-29.6 8.2-8.7 5.9-15.2 14.5-18.6 24.4-3.1-2.3-6.7-3.7-10.5-4.2-3.8-0.4-7.7 0.2-11.2 1.7-3.5 1.5-6.6 4-8.8 7.1-2.3 3.1-3.7 6.7-4.1 10.6q-0.1 0.9-0.1 1.9 0 0.9 0.1 1.9 0 0.9 0.2 1.9 0.1 0.9 0.4 1.8c-4 0.2-7.9 1-11.5 2.6-3.7 1.6-7 3.9-9.7 6.8-2.8 2.8-5 6.2-6.5 9.9-1.5 3.7-2.3 7.6-2.3 11.6q0 0.5 0.1 1.1 0 0.5 0 1.1 0.1 0.6 0.1 1.1 0.1 0.6 0.2 1.1 0 0.3 0.1 0.5 0.2 0.3 0.4 0.5 0.2 0.1 0.4 0.2 0.3 0.1 0.6 0.1h135.4q0.3 0 0.6-0.1 0.3-0.1 0.5-0.3 0.2-0.2 0.4-0.4 0.1-0.2 0.2-0.5z"/></svg>
