<?xml version="1.0" encoding="UTF-8" standalone="no"?>
<!DOCTYPE svg PUBLIC "-//W3C//DTD SVG 1.1//EN" "http://www.w3.org/Graphics/SVG/1.1/DTD/svg11.dtd">
<svg width="100%" height="100%" viewBox="0 0 512 512" version="1.1" xmlns="http://www.w3.org/2000/svg" xmlns:xlink="http://www.w3.org/1999/xlink" xml:space="preserve" xmlns:serif="http://www.serif.com/" style="fill-rule:evenodd;clip-rule:evenodd;stroke-linejoin:round;stroke-miterlimit:2;">
    <g>
        <g id="Container" transform="matrix(0.804597,-0.215591,0.216752,0.808928,0.903596,106.963)">
            <path d="M480,113.178C480,62.564 438.687,21.473 387.801,21.473L111.204,21.473C60.318,21.473 19.005,62.564 19.005,113.178L19.005,388.295C19.005,438.908 60.318,480 111.204,480L387.801,480C438.687,480 480,438.908 480,388.295L480,113.178Z" style="fill:none;"/>
            <clipPath id="_clip1">
                <path d="M480,113.178C480,62.564 438.687,21.473 387.801,21.473L111.204,21.473C60.318,21.473 19.005,62.564 19.005,113.178L19.005,388.295C19.005,438.908 60.318,480 111.204,480L387.801,480C438.687,480 480,438.908 480,388.295L480,113.178Z"/>
            </clipPath>
            <g clip-path="url(#_clip1)">
                <g transform="matrix(0.426847,-1.65712e-17,1.66604e-17,0.424562,19.0048,21.4726)">
                    <rect x="0" y="0" width="1080" height="1080" style="fill:rgb(144,50,207);"/>
                </g>
                <g transform="matrix(0.995058,-2.77556e-17,-2.77556e-17,0.989731,23.8301,-41.9435)">
                    <g transform="matrix(428.968,0,0,428.968,64,448)">
                        <path d="M0.377,0.005C0.325,0.005 0.278,-0.005 0.235,-0.025C0.193,-0.045 0.157,-0.072 0.127,-0.107C0.096,-0.141 0.073,-0.18 0.056,-0.223C0.039,-0.266 0.031,-0.31 0.031,-0.355C0.031,-0.402 0.04,-0.448 0.058,-0.491C0.075,-0.534 0.1,-0.572 0.131,-0.606C0.162,-0.639 0.198,-0.666 0.241,-0.686C0.283,-0.705 0.329,-0.715 0.38,-0.715C0.431,-0.715 0.478,-0.705 0.521,-0.684C0.563,-0.663 0.599,-0.636 0.629,-0.601C0.659,-0.566 0.682,-0.528 0.699,-0.485C0.716,-0.442 0.724,-0.398 0.724,-0.353C0.724,-0.306 0.715,-0.262 0.698,-0.219C0.681,-0.175 0.657,-0.137 0.625,-0.103C0.595,-0.07 0.558,-0.043 0.516,-0.024C0.473,-0.005 0.427,0.005 0.377,0.005ZM0.171,-0.355C0.171,-0.324 0.176,-0.295 0.185,-0.266C0.194,-0.237 0.208,-0.212 0.226,-0.19C0.243,-0.167 0.265,-0.15 0.291,-0.137C0.316,-0.124 0.345,-0.117 0.378,-0.117C0.411,-0.117 0.441,-0.124 0.467,-0.138C0.493,-0.151 0.515,-0.17 0.532,-0.193C0.549,-0.216 0.563,-0.241 0.572,-0.27C0.581,-0.298 0.585,-0.326 0.585,-0.355C0.585,-0.386 0.58,-0.415 0.571,-0.444C0.561,-0.472 0.547,-0.497 0.53,-0.52C0.512,-0.542 0.49,-0.56 0.465,-0.573C0.439,-0.586 0.41,-0.592 0.378,-0.592C0.344,-0.592 0.314,-0.585 0.289,-0.572C0.263,-0.558 0.241,-0.54 0.224,-0.517C0.207,-0.494 0.194,-0.469 0.185,-0.441C0.175,-0.413 0.171,-0.384 0.171,-0.355Z" style="fill:white;fill-rule:nonzero;"/>
                    </g>
                </g>
                <g transform="matrix(1.1596,0.309051,-0.310714,1.15339,32.1871,-123.65)">
                    <path d="M269.903,286.139C268.001,286.648 266.575,288.227 266.261,290.172C265.947,292.116 266.804,294.063 268.449,295.145C290.494,309.648 345.158,345.609 359.962,355.348C362.346,356.917 365.288,357.392 368.044,356.654C374.819,354.84 388.123,351.278 397.593,348.742C399.496,348.232 400.922,346.654 401.236,344.709C401.55,342.765 400.694,340.817 399.048,339.735C377,325.23 322.337,289.266 307.53,279.524C305.145,277.955 302.203,277.48 299.445,278.219C292.67,280.036 279.37,283.601 269.903,286.139Z" style="fill:white;"/>
                </g>
            </g>
        </g>
        <g transform="matrix(0.965926,-0.258819,0.258819,0.965926,-57.5347,74.9807)">
            <g transform="matrix(1,0,0,1,32,384)">
                <path d="M128,48C128,39.169 120.831,32 112,32C103.169,32 96,39.169 96,48L96,80C96,88.831 103.169,96 112,96C120.831,96 128,88.831 128,80L128,48Z" style="fill:white;"/>
            </g>
            <g transform="matrix(1,0,0,1,32,2.84217e-13)">
                <path d="M128,48C128,39.169 120.831,32 112,32C103.169,32 96,39.169 96,48L96,80C96,88.831 103.169,96 112,96C120.831,96 128,88.831 128,80L128,48Z" style="fill:white;"/>
            </g>
            <g transform="matrix(6.12323e-17,-1,1,6.12323e-17,384,480)">
                <path d="M128,48C128,39.169 120.831,32 112,32C103.169,32 96,39.169 96,48L96,80C96,88.831 103.169,96 112,96C120.831,96 128,88.831 128,80L128,48Z" style="fill:white;"/>
            </g>
            <g transform="matrix(6.12323e-17,-1,1,6.12323e-17,1.13687e-13,480)">
                <path d="M128,48C128,39.169 120.831,32 112,32C103.169,32 96,39.169 96,48L96,80C96,88.831 103.169,96 112,96C120.831,96 128,88.831 128,80L128,48Z" style="fill:white;"/>
            </g>
            <g transform="matrix(1,0,0,1,106.667,384)">
                <path d="M128,48C128,39.169 120.831,32 112,32C103.169,32 96,39.169 96,48L96,80C96,88.831 103.169,96 112,96C120.831,96 128,88.831 128,80L128,48Z" style="fill:white;"/>
            </g>
            <g transform="matrix(1,0,0,1,106.667,2.84217e-13)">
                <path d="M128,48C128,39.169 120.831,32 112,32C103.169,32 96,39.169 96,48L96,80C96,88.831 103.169,96 112,96C120.831,96 128,88.831 128,80L128,48Z" style="fill:white;"/>
            </g>
            <g transform="matrix(6.12323e-17,-1,1,6.12323e-17,384,405.333)">
                <path d="M128,48C128,39.169 120.831,32 112,32C103.169,32 96,39.169 96,48L96,80C96,88.831 103.169,96 112,96C120.831,96 128,88.831 128,80L128,48Z" style="fill:white;"/>
            </g>
            <g transform="matrix(6.12323e-17,-1,1,6.12323e-17,1.13687e-13,405.333)">
                <path d="M128,48C128,39.169 120.831,32 112,32C103.169,32 96,39.169 96,48L96,80C96,88.831 103.169,96 112,96C120.831,96 128,88.831 128,80L128,48Z" style="fill:white;"/>
            </g>
            <g transform="matrix(1,0,0,1,181.333,384)">
                <path d="M128,48C128,39.169 120.831,32 112,32C103.169,32 96,39.169 96,48L96,80C96,88.831 103.169,96 112,96C120.831,96 128,88.831 128,80L128,48Z" style="fill:white;"/>
            </g>
            <g transform="matrix(1,0,0,1,181.333,1.13687e-13)">
                <path d="M128,48C128,39.169 120.831,32 112,32C103.169,32 96,39.169 96,48L96,80C96,88.831 103.169,96 112,96C120.831,96 128,88.831 128,80L128,48Z" style="fill:white;"/>
            </g>
            <g transform="matrix(6.12323e-17,-1,1,6.12323e-17,384,330.667)">
                <path d="M128,48C128,39.169 120.831,32 112,32C103.169,32 96,39.169 96,48L96,80C96,88.831 103.169,96 112,96C120.831,96 128,88.831 128,80L128,48Z" style="fill:white;"/>
            </g>
            <g transform="matrix(6.12323e-17,-1,1,6.12323e-17,-5.68434e-14,330.667)">
                <path d="M128,48C128,39.169 120.831,32 112,32C103.169,32 96,39.169 96,48L96,80C96,88.831 103.169,96 112,96C120.831,96 128,88.831 128,80L128,48Z" style="fill:white;"/>
            </g>
            <g transform="matrix(1,0,0,1,256,384)">
                <path d="M128,48C128,39.169 120.831,32 112,32C103.169,32 96,39.169 96,48L96,80C96,88.831 103.169,96 112,96C120.831,96 128,88.831 128,80L128,48Z" style="fill:white;"/>
            </g>
            <g transform="matrix(1,0,0,1,256,1.13687e-13)">
                <path d="M128,48C128,39.169 120.831,32 112,32C103.169,32 96,39.169 96,48L96,80C96,88.831 103.169,96 112,96C120.831,96 128,88.831 128,80L128,48Z" style="fill:white;"/>
            </g>
            <g transform="matrix(6.12323e-17,-1,1,6.12323e-17,384,256)">
                <path d="M128,48C128,39.169 120.831,32 112,32C103.169,32 96,39.169 96,48L96,80C96,88.831 103.169,96 112,96C120.831,96 128,88.831 128,80L128,48Z" style="fill:white;"/>
            </g>
            <g transform="matrix(6.12323e-17,-1,1,6.12323e-17,-5.68434e-14,256)">
                <path d="M128,48C128,39.169 120.831,32 112,32C103.169,32 96,39.169 96,48L96,80C96,88.831 103.169,96 112,96C120.831,96 128,88.831 128,80L128,48Z" style="fill:white;"/>
            </g>
        </g>
    </g>
</svg>
