<?xml version="1.0" standalone="no"?>
<!DOCTYPE svg PUBLIC "-//W3C//DTD SVG 20010904//EN"
 "http://www.w3.org/TR/2001/REC-SVG-20010904/DTD/svg10.dtd">
<svg version="1.0" xmlns="http://www.w3.org/2000/svg"
 width="700.000000pt" height="700.000000pt" viewBox="0 0 700.000000 700.000000"
 preserveAspectRatio="xMidYMid meet">
<metadata>
Created by potrace 1.11, written by Peter Selinger 2001-2013
</metadata>
<g transform="translate(0.000000,700.000000) scale(0.100000,-0.100000)"
fill="#000000" stroke="none">
<path d="M482 6565 c-61 -26 -60 2 -58 -900 1 -692 3 -823 15 -841 28 -43 65
-50 241 -48 91 1 171 2 178 3 9 1 12 31 12 114 0 69 5 121 13 136 30 60 114
82 165 44 46 -34 55 -66 54 -188 l0 -110 221 0 222 0 1 110 c1 61 6 122 12
137 14 34 67 68 106 68 33 0 90 -32 102 -58 5 -9 11 -71 14 -137 l5 -120 188
0 187 1 33 32 32 32 0 187 0 188 -120 5 c-100 4 -124 8 -146 25 -33 25 -53 76
-44 115 7 31 57 89 78 91 7 1 61 2 122 3 l110 1 0 220 0 220 -120 5 c-130 5
-156 14 -180 60 -19 37 -19 73 0 110 25 48 60 60 187 62 l113 3 0 182 c-1 127
-4 188 -13 205 -30 55 10 53 -879 54 -626 1 -828 -2 -851 -11z"/>
<path d="M2510 6559 c-16 -10 -34 -27 -39 -38 -7 -12 -11 -93 -11 -205 l0
-186 113 1 c68 0 124 -5 140 -12 53 -24 78 -97 53 -151 -27 -57 -58 -68 -190
-68 l-116 0 2 -222 3 -223 111 -1 c96 0 115 -3 147 -23 57 -35 69 -96 31 -161
-25 -41 -59 -50 -185 -50 l-109 0 0 -179 c0 -99 4 -191 10 -205 5 -14 21 -33
36 -43 26 -17 76 -18 848 -18 893 0 865 -2 893 55 9 17 13 82 13 208 l0 182
-110 0 c-126 0 -160 11 -186 62 -35 68 13 166 84 169 15 1 68 2 117 3 l90 1 3
223 2 222 -112 0 c-121 0 -149 8 -179 50 -38 51 -28 112 23 155 28 24 36 25
149 25 l119 0 0 179 c0 99 -4 191 -10 205 -5 14 -21 33 -37 43 -26 17 -75 18
-850 19 -772 1 -825 -1 -853 -17z"/>
<path d="M4552 6563 c-51 -25 -56 -43 -57 -233 -1 -96 1 -181 3 -188 3 -9 34
-12 112 -11 125 1 158 -11 184 -65 20 -42 20 -59 0 -101 -24 -51 -63 -65 -189
-68 l-110 -2 -1 -210 c0 -115 1 -215 3 -221 2 -6 41 -10 103 -10 55 1 112 -2
128 -6 62 -16 101 -96 76 -156 -22 -54 -54 -66 -188 -72 l-121 -5 0 -188 1
-187 32 -32 31 -32 191 -1 190 -1 0 116 c0 98 3 120 20 148 26 43 71 62 119
51 41 -9 91 -58 92 -92 1 -12 1 -66 2 -119 0 -61 4 -98 11 -101 10 -3 408 -1
429 2 5 0 8 11 7 24 -1 12 -2 66 -1 119 1 88 3 99 27 127 49 58 127 58 177 -1
26 -31 27 -36 27 -149 0 -85 3 -118 13 -121 6 -3 91 -4 188 -3 156 1 178 3
202 21 14 10 29 26 33 34 11 22 12 1650 2 1682 -5 15 -22 35 -36 45 -26 17
-72 18 -850 19 -667 0 -827 -2 -850 -13z"/>
<path d="M2715 4540 c-202 -5 -223 -10 -244 -57 -8 -17 -11 -282 -11 -844 0
-748 1 -823 17 -849 26 -45 50 -50 246 -50 l182 0 -1 110 c-1 116 7 146 48
181 11 11 30 19 42 20 108 6 144 -38 144 -176 0 -44 1 -92 1 -107 l1 -28 220
0 c203 0 220 1 221 18 0 9 1 61 1 114 0 76 5 103 19 127 45 75 149 77 196 4
13 -20 17 -50 18 -142 l1 -116 179 -3 c111 -1 190 2 205 8 53 22 60 51 60 252
l0 183 -102 -1 c-65 0 -116 5 -139 13 -88 34 -93 166 -7 206 20 9 61 15 103
15 39 0 87 1 108 1 l37 1 0 220 c0 169 -3 220 -12 221 -7 0 -60 1 -118 3 -58
1 -114 7 -126 13 -60 34 -75 123 -30 176 32 37 62 44 184 43 l102 -1 0 182 c0
113 -4 191 -11 207 -27 58 -16 57 -709 59 -349 1 -720 0 -825 -3z"/>
<path d="M4689 4540 c-196 -7 -195 -7 -195 -264 l1 -179 120 -1 c103 -2 125
-5 147 -21 50 -37 63 -97 33 -155 -23 -45 -50 -54 -165 -57 -58 -1 -112 -2
-120 -3 -14 0 -16 -29 -15 -220 l0 -220 33 -1 c17 0 67 -1 110 -1 42 0 91 -6
107 -13 79 -32 89 -147 17 -199 -22 -17 -43 -20 -136 -21 -61 0 -116 -3 -122
-7 -6 -4 -10 -72 -9 -193 l2 -186 27 -27 26 -27 837 -3 c925 -3 870 -6 897 61
10 25 13 212 12 847 -1 768 -2 817 -19 843 -10 16 -29 32 -43 37 -14 6 -106
10 -205 10 l-179 0 0 -112 c0 -95 -3 -118 -20 -146 -33 -55 -108 -69 -162 -31
-41 30 -49 59 -49 181 l-1 108 -114 1 c-63 0 -134 0 -159 0 -25 0 -74 0 -109
0 l-64 -1 0 -87 c0 -146 0 -151 -29 -183 -53 -59 -153 -48 -188 20 -11 21 -15
60 -15 139 l0 109 -57 4 c-32 1 -119 1 -194 -2z"/>
<path d="M472 4524 c-51 -35 -49 -11 -48 -889 1 -639 4 -825 14 -842 28 -50
44 -53 244 -53 l188 0 0 116 c0 144 14 176 86 195 50 14 98 -4 125 -47 19 -31
22 -50 21 -150 l0 -114 222 0 222 0 0 108 c0 133 11 164 68 191 50 25 99 16
137 -25 22 -24 24 -34 27 -150 l4 -125 194 3 c181 3 195 4 214 24 12 12 25 36
29 55 4 19 7 400 6 847 l0 814 -33 29 -32 29 -190 0 -190 0 0 -112 c0 -94 -3
-118 -20 -145 -32 -53 -91 -71 -146 -45 -54 25 -66 60 -67 188 l-1 114 -222 0
-221 0 -2 -109 c0 -60 -5 -120 -10 -133 -14 -37 -47 -60 -95 -65 -35 -4 -51
-1 -76 17 -43 31 -49 53 -51 180 l-1 110 -187 0 c-153 0 -191 -3 -209 -16z"/>
<path d="M510 2500 c-30 -6 -50 -19 -70 -44 -13 -17 -15 -127 -16 -840 -1
-634 1 -828 11 -852 26 -63 -5 -61 900 -60 676 1 824 4 841 15 44 29 48 47 49
244 l1 187 -114 0 c-127 0 -162 11 -187 60 -19 37 -19 73 0 110 26 49 65 62
186 62 73 0 109 4 111 11 3 7 4 107 4 222 l-1 210 -90 2 c-50 0 -104 2 -122 2
-47 1 -103 60 -103 107 0 19 7 48 15 64 25 49 60 60 187 60 l114 0 -1 190 -1
191 -32 32 -32 32 -190 0 -190 1 0 -116 c0 -97 -3 -120 -19 -144 -36 -54 -94
-70 -150 -42 -53 28 -64 58 -64 183 -1 72 -4 113 -11 114 -6 1 -106 2 -222 3
l-211 1 -1 -110 c0 -61 -5 -122 -10 -135 -32 -82 -143 -97 -196 -27 -23 30
-26 43 -28 152 l-3 120 -165 0 c-91 0 -176 -2 -190 -5z"/>
<path d="M2508 2488 c-16 -10 -33 -30 -38 -44 -6 -14 -10 -106 -10 -205 l0
-179 111 0 c130 0 169 -13 194 -66 27 -58 1 -131 -56 -155 -18 -7 -75 -12
-140 -12 l-109 0 0 -222 0 -222 109 0 c118 -1 151 -11 183 -53 35 -47 24 -115
-24 -155 -28 -24 -36 -25 -149 -25 l-119 0 0 -188 c0 -200 3 -216 53 -244 17
-10 213 -13 845 -13 774 -1 826 0 853 17 16 10 34 30 39 44 16 41 13 1652 -3
1684 -24 49 -58 56 -253 56 l-178 -1 -1 -120 c-1 -95 -5 -125 -18 -146 -51
-77 -183 -59 -206 28 -5 21 -10 76 -10 123 0 47 0 92 0 100 -1 13 -31 15 -215
15 -118 0 -217 -3 -221 -7 -4 -3 -7 -56 -8 -117 -2 -94 -5 -114 -23 -138 -46
-62 -111 -70 -169 -20 l-38 33 -3 120 c-1 65 -2 121 -3 124 -1 3 -83 5 -182 5
-156 0 -186 -3 -211 -17z"/>
<path d="M5134 1869 l-594 -594 0 -45 0 -44 587 -588 c614 -615 612 -612 675
-592 35 11 1185 1164 1193 1197 4 15 4 39 0 55 -4 18 -196 218 -589 611 l-583
583 -47 5 -48 6 -594 -594z"/>
</g>
</svg>
