<?xml version="1.0" encoding="utf-8"?>
<!-- Generator: Adobe Illustrator 25.2.0, SVG Export Plug-In . SVG Version: 6.00 Build 0)  -->
<svg version="1.1"
	 id="Layer_1" xmlns:cc="http://creativecommons.org/ns#" xmlns:dc="http://purl.org/dc/elements/1.1/" xmlns:rdf="http://www.w3.org/1999/02/22-rdf-syntax-ns#"
	 xmlns="http://www.w3.org/2000/svg" xmlns:xlink="http://www.w3.org/1999/xlink" x="0px" y="0px" viewBox="0 0 2546.7 2526"
	 style="enable-background:new 0 0 2546.7 2526;" xml:space="preserve">
<style type="text/css">
	.st0{fill:#1389D2;}
</style>
<path class="st0" d="M1123.9,32.4c271.5-32.6,553.4,25.2,788.6,165.2c244.6,143.7,437.7,373.5,535.2,640.1
	c106.4,287,100.1,614-17.8,896.6c-108.7,263.8-312,486.6-563.7,620.4c-255.6,137.8-559.7,180.7-843.9,122.9
	c-294.4-58.5-565.1-227.9-746.4-467.3C110.7,1795,20.1,1523.9,23.6,1252.5c0.9-286.7,107.7-571.1,294.2-788.7
	C519.3,225.3,813.5,67.8,1123.9,32.4 M917.9,342.2c-224.3,84.6-415.6,253.5-526.7,466c-103.5,195.5-136.6,426.7-93.7,643.6
	c42.8,222.2,166.6,427.1,341.7,570.2c173.7,143.8,397.6,225.2,623.2,226.6c-1.4-64.6-0.6-129-1.8-193.6c-1.4-53.6-52.7-91.7-102-100
	c-1.6,48.3,0.2,107.4-42.3,140.2c-40.5,27.8-95,27.2-140.8,15c-46.3-13-72.1-61.1-73.4-106.7c-2.8-69.2-0.4-138.6-1.2-208
	c-18.5-0.1-37.2-0.1-55.8-0.1c-0.1-60.5-0.1-121,0-181.4c18.6-0.1,37.3-0.2,55.9-0.2c0-20.6,0-41.1-0.1-61.7
	c-24-7.9-51.7-17.4-61.3-43.3c-24-56.7,5.8-120.3-17.4-177.4c-23.7-60.1-47.4-126.5-25.3-191c13.6-45.4,58.1-74.4,104.1-78
	c-0.1-131.1,0-262.1-0.1-393.2c-0.7-69.6,27.8-141.2,83.5-184.6c63.5-50.4,147.8-63.3,226.7-62.8c175.7,0.1,347.7,83.4,461.3,216.6
	c-0.2,31.3,0,62.7-0.2,94.1c-157.4,0.1-314.7-0.1-472.1,0c-17.1-3.1-33.3,12.8-30.3,30c0.5,100.4-0.9,200.9-0.5,301.3
	c29.1,0.1,58.2,0.5,87.3-0.8c4.9-20.1,10.3-40,16.1-59.8c128,31.5,255.9,62.8,383.8,94.5c-4.3,14.7-8.4,29.5-12.6,44.3
	c-11.2,4.3-22.5,8.5-33.7,12.8c-4.5,346.8-7.4,693.7-11.3,1040.5c300.9-102.6,545.9-356.5,631.2-663.6
	c67.3-233.9,43.1-492.7-67.5-709.6c-108.6-216.2-299.7-389.2-525.3-476.5C1408.8,255.6,1147.1,254.5,917.9,342.2 M1158.2,1555.3
	c0,19.5,0,39,0.1,58.4c17.3,0.1,34.6,0.1,51.9,0.1c0.1,60.5,0.1,121,0,181.5c-17.3,0-34.7,0-52,0.1v55.2
	c34.1,0.1,68.2,0.1,102.3-0.1c-1.6-98.4-0.6-196.8-2.2-295.2C1224.9,1555.2,1191.5,1555.2,1158.2,1555.3L1158.2,1555.3z"/>
</svg>
