<?xml version="1.0" encoding="UTF-8" standalone="no"?>
<!DOCTYPE svg PUBLIC "-//W3C//DTD SVG 1.1//EN" "http://www.w3.org/Graphics/SVG/1.1/DTD/svg11.dtd">
<svg width="100%" height="100%" viewBox="0 0 2000 800" version="1.1" xmlns="http://www.w3.org/2000/svg" xmlns:xlink="http://www.w3.org/1999/xlink" xml:space="preserve" xmlns:serif="http://www.serif.com/" style="fill-rule:evenodd;clip-rule:evenodd;stroke-linejoin:round;stroke-miterlimit:2;">
    <g transform="matrix(1.66015,0,0,1.66015,-660.159,-1260.14)">
        <g>
            <g>
                <path d="M397.65,820.34C397.65,814.08 398.85,808.19 401.24,802.7C403.63,797.21 406.9,792.41 411.02,788.29C415.13,784.17 419.94,780.91 425.43,778.51C430.92,776.12 436.81,774.92 443.07,774.92L512.57,774.92L512.57,805.23L443.07,805.23C440.96,805.23 438.99,805.62 437.16,806.39C435.33,807.17 433.73,808.24 432.36,809.62C430.98,810.99 429.9,812.59 429.13,814.42C428.36,816.25 427.97,818.23 427.97,820.33C427.97,822.45 428.36,824.43 429.13,826.3C429.9,828.17 430.98,829.79 432.36,831.16C433.73,832.54 435.33,833.62 437.16,834.39C438.99,835.16 440.97,835.55 443.07,835.55L473.38,835.55C479.65,835.55 485.55,836.73 491.07,839.09C496.6,841.44 501.43,844.68 505.54,848.8C509.66,852.92 512.9,857.75 515.26,863.28C517.62,868.81 518.8,874.7 518.8,880.97C518.8,887.23 517.62,893.11 515.26,898.6C512.9,904.1 509.66,908.9 505.54,913.02C501.43,917.14 496.6,920.4 491.07,922.8C485.54,925.19 479.65,926.39 473.38,926.39L406.1,926.39L406.1,896.08L473.38,896.08C475.5,896.08 477.46,895.69 479.3,894.92C481.13,894.14 482.73,893.07 484.1,891.69C485.47,890.32 486.55,888.72 487.32,886.89C488.1,885.06 488.49,883.08 488.49,880.98C488.49,878.86 488.1,876.9 487.32,875.06C486.55,873.23 485.47,871.63 484.1,870.26C482.73,868.89 481.13,867.81 479.3,867.04C477.46,866.26 475.49,865.87 473.38,865.87L443.07,865.87C436.81,865.87 430.92,864.67 425.43,862.28C419.94,859.89 415.13,856.62 411.02,852.5C406.9,848.38 403.63,843.56 401.24,838.03C398.85,832.51 397.65,826.61 397.65,820.34Z" style="fill:white;fill-rule:nonzero;"/>
                <path d="M608.79,926.39L578.58,926.39L578.58,805.24L533.06,805.24L533.06,774.93L654.21,774.93L654.21,805.24L608.79,805.24L608.79,926.39Z" style="fill:white;fill-rule:nonzero;"/>
                <path d="M793.84,926.39L763.53,926.39L763.53,896.08L702.89,896.08L702.89,926.39L672.69,926.39L672.69,835.55C672.69,827.17 674.27,819.3 677.44,811.94C680.6,804.58 684.92,798.15 690.37,792.66C695.83,787.17 702.23,782.84 709.6,779.67C716.96,776.5 724.82,774.92 733.21,774.92C741.59,774.92 749.45,776.5 756.81,779.67C764.17,782.83 770.6,787.17 776.09,792.66C781.59,798.15 785.91,804.58 789.09,811.94C792.26,819.3 793.84,827.17 793.84,835.55L793.84,926.39ZM763.52,865.87L763.52,835.56C763.52,831.4 762.73,827.48 761.14,823.79C759.56,820.09 757.4,816.86 754.65,814.12C751.9,811.37 748.68,809.21 744.98,807.62C741.28,806.04 737.36,805.25 733.21,805.25C729.05,805.25 725.13,806.04 721.43,807.62C717.73,809.21 714.51,811.37 711.76,814.12C709.01,816.86 706.85,820.09 705.27,823.79C703.69,827.48 702.89,831.41 702.89,835.56L702.89,865.87L763.52,865.87Z" style="fill:white;fill-rule:nonzero;"/>
                <path d="M859.1,926.39L828.78,926.39L828.78,774.93L889.42,774.93C894.98,774.93 900.33,775.65 905.47,777.09C910.61,778.53 915.42,780.58 919.89,783.22C924.36,785.86 928.44,789.03 932.14,792.73C935.84,796.43 939.01,800.53 941.65,805.04C944.29,809.55 946.33,814.37 947.78,819.51C949.22,824.65 949.95,830 949.95,835.57C949.95,840.78 949.3,845.85 947.99,850.78C946.68,855.71 944.83,860.39 942.39,864.82C939.96,869.26 936.99,873.35 933.47,877.08C929.95,880.81 926,884.05 921.64,886.79L938.43,926.4L906.2,926.4L893,895.87L859.1,896.08L859.1,926.39ZM859.1,805.24L859.1,865.87L889.41,865.87C893.56,865.87 897.47,865.08 901.14,863.5C904.8,861.92 908,859.75 910.75,857C913.49,854.26 915.66,851.04 917.24,847.34C918.82,843.64 919.61,839.72 919.61,835.56C919.61,831.4 918.82,827.48 917.24,823.79C915.66,820.09 913.49,816.86 910.75,814.12C908,811.37 904.8,809.21 901.14,807.62C897.47,806.04 893.56,805.25 889.41,805.25L859.1,805.25L859.1,805.24Z" style="fill:white;fill-rule:nonzero;"/>
                <path d="M1099.4,910.87C1092.36,916.92 1084.46,921.58 1075.74,924.81C1067.01,928.05 1057.96,929.67 1048.59,929.67C1041.41,929.67 1034.49,928.73 1027.84,926.87C1021.18,925 1014.95,922.36 1009.14,918.94C1003.33,915.53 998.03,911.43 993.24,906.63C988.46,901.85 984.36,896.55 980.93,890.74C977.52,884.93 974.88,878.7 973.01,872.04C971.14,865.39 970.21,858.47 970.21,851.28C970.21,844.1 971.14,837.16 973.01,830.48C974.88,823.78 977.52,817.54 980.93,811.73C984.35,805.93 988.45,800.63 993.24,795.84C998.03,791.05 1003.33,786.95 1009.14,783.53C1014.94,780.12 1021.18,777.47 1027.84,775.6C1034.49,773.74 1041.41,772.8 1048.59,772.8C1057.96,772.8 1067.01,774.4 1075.74,777.61C1084.47,780.81 1092.36,785.47 1099.4,791.6L1083.34,818.01C1078.91,813.22 1073.66,809.54 1067.6,806.96C1061.54,804.39 1055.2,803.11 1048.58,803.11C1041.89,803.11 1035.63,804.38 1029.78,806.92C1023.93,809.45 1018.83,812.89 1014.47,817.21C1010.1,821.54 1006.65,826.66 1004.11,832.53C1001.58,838.41 1000.31,844.66 1000.31,851.27C1000.31,857.89 1001.58,864.11 1004.11,869.91C1006.65,875.72 1010.1,880.81 1014.47,885.18C1018.83,889.55 1023.93,893 1029.78,895.53C1035.63,898.07 1041.89,899.34 1048.58,899.34C1055.2,899.34 1061.54,898.05 1067.6,895.49C1073.65,892.91 1078.9,889.24 1083.34,884.45L1099.4,910.87Z" style="fill:white;fill-rule:nonzero;"/>
                <path d="M1155.89,926.39L1125.57,926.39L1125.57,774.93L1155.89,774.93L1155.89,835.56L1216.41,835.56L1216.41,774.93L1246.73,774.93L1246.73,926.39L1216.41,926.39L1216.41,865.86L1155.89,865.86L1155.89,926.39Z" style="fill:white;fill-rule:nonzero;"/>
                <rect x="1283.48" y="774.93" width="30.32" height="151.46" style="fill:white;fill-rule:nonzero;"/>
                <path d="M1456.59,926.39L1350.54,926.39L1350.54,774.93L1380.86,774.93L1380.86,896.08L1456.59,896.08L1456.59,926.39Z" style="fill:white;fill-rule:nonzero;"/>
                <path d="M1602.35,850.65C1602.35,857.62 1601.45,864.34 1599.66,870.77C1597.86,877.22 1595.31,883.23 1592,888.83C1588.69,894.43 1584.74,899.54 1580.17,904.14C1575.59,908.76 1570.49,912.72 1564.85,916.02C1559.22,919.33 1553.18,921.89 1546.74,923.68C1540.29,925.47 1533.59,926.37 1526.62,926.37L1480.98,926.37L1480.98,774.93L1526.62,774.93C1533.59,774.93 1540.3,775.82 1546.74,777.62C1553.18,779.41 1559.22,781.96 1564.85,785.27C1570.49,788.58 1575.59,792.54 1580.17,797.15C1584.74,801.77 1588.69,806.87 1592,812.47C1595.31,818.06 1597.86,824.09 1599.66,830.53C1601.45,836.98 1602.35,843.68 1602.35,850.65ZM1572.03,850.65C1572.03,844.39 1570.85,838.51 1568.5,833.01C1566.14,827.52 1562.9,822.72 1558.78,818.6C1554.66,814.48 1549.84,811.22 1544.31,808.82C1538.77,806.43 1532.88,805.23 1526.62,805.23L1511.52,805.23L1511.52,896.07L1526.62,896.07C1532.88,896.07 1538.78,894.89 1544.31,892.53C1549.84,890.18 1554.66,886.93 1558.78,882.82C1562.9,878.7 1566.14,873.87 1568.5,868.34C1570.85,862.82 1572.03,856.93 1572.03,850.65Z" style="fill:white;fill-rule:nonzero;"/>
            </g>
            <g>
                <path d="M397.65,1017.39C397.65,1009.81 399.1,1002.71 401.99,996.07C404.88,989.43 408.82,983.62 413.8,978.65C418.78,973.67 424.59,969.73 431.22,966.84C437.85,963.95 444.96,962.5 452.54,962.5L536.53,962.5L536.53,999.14L452.54,999.14C449.99,999.14 447.61,999.61 445.39,1000.54C443.17,1001.48 441.24,1002.77 439.58,1004.43C437.92,1006.09 436.63,1008.02 435.69,1010.24C434.75,1012.46 434.29,1014.84 434.29,1017.39C434.29,1019.94 434.75,1022.35 435.69,1024.6C436.63,1026.85 437.92,1028.81 439.58,1030.47C441.24,1032.13 443.17,1033.42 445.39,1034.36C447.61,1035.3 449.99,1035.76 452.54,1035.76L489.18,1035.76C496.76,1035.76 503.88,1037.18 510.56,1040.04C517.24,1042.89 523.07,1046.81 528.05,1051.78C533.03,1056.76 536.94,1062.58 539.79,1069.27C542.64,1075.95 544.07,1083.07 544.07,1090.65C544.07,1098.23 542.65,1105.33 539.79,1111.97C536.94,1118.61 533.02,1124.42 528.05,1129.39C523.07,1134.37 517.25,1138.31 510.56,1141.2C503.88,1144.09 496.76,1145.54 489.18,1145.54L407.87,1145.54L407.87,1108.9L489.18,1108.9C491.73,1108.9 494.11,1108.44 496.33,1107.5C498.55,1106.56 500.48,1105.27 502.14,1103.61C503.8,1101.95 505.09,1100.02 506.03,1097.8C506.97,1095.58 507.43,1093.2 507.43,1090.65C507.43,1088.1 506.97,1085.72 506.03,1083.5C505.09,1081.28 503.8,1079.35 502.14,1077.69C500.48,1076.03 498.55,1074.74 496.33,1073.8C494.11,1072.86 491.73,1072.4 489.18,1072.4L452.54,1072.4C444.96,1072.4 437.86,1070.95 431.22,1068.06C424.58,1065.17 418.77,1061.23 413.8,1056.25C408.82,1051.27 404.88,1045.45 401.99,1038.76C399.1,1032.07 397.65,1024.97 397.65,1017.39Z" style="fill:rgb(221,9,30);fill-rule:nonzero;"/>
                <path d="M660.86,1145.55L624.35,1145.55L624.35,1088.23C616.26,1086.19 608.84,1082.91 602.08,1078.4C595.31,1073.89 589.51,1068.51 584.66,1062.25C579.81,1055.99 576.04,1049.06 573.36,1041.44C570.68,1033.82 569.34,1025.8 569.34,1017.38L569.34,962.5L605.98,962.5L605.98,1017.39C605.98,1022.41 606.94,1027.16 608.85,1031.62C610.76,1036.09 613.38,1039.98 616.7,1043.3C620.02,1046.62 623.91,1049.24 628.38,1051.15C632.85,1053.06 637.59,1054.02 642.61,1054.02C647.63,1054.02 652.38,1053.06 656.84,1051.15C661.31,1049.24 665.2,1046.62 668.52,1043.3C671.84,1039.98 674.46,1036.09 676.37,1031.62C678.28,1027.15 679.24,1022.41 679.24,1017.39L679.24,962.5L715.75,962.5L715.75,1017.39C715.75,1025.81 714.41,1033.84 711.73,1041.45C709.05,1049.06 705.28,1056 700.43,1062.26C695.58,1068.52 689.79,1073.89 683.07,1078.41C676.35,1082.92 668.95,1086.2 660.86,1088.24L660.86,1145.55Z" style="fill:rgb(221,9,30);fill-rule:nonzero;"/>
                <path d="M740.37,1017.39C740.37,1009.81 741.82,1002.71 744.71,996.07C747.6,989.43 751.54,983.62 756.52,978.65C761.5,973.67 767.31,969.73 773.94,966.84C780.57,963.95 787.68,962.5 795.26,962.5L879.25,962.5L879.25,999.14L795.26,999.14C792.71,999.14 790.33,999.61 788.11,1000.54C785.89,1001.48 783.96,1002.77 782.3,1004.43C780.64,1006.09 779.35,1008.02 778.41,1010.24C777.47,1012.46 777.01,1014.84 777.01,1017.39C777.01,1019.94 777.47,1022.35 778.41,1024.6C779.35,1026.85 780.64,1028.81 782.3,1030.47C783.96,1032.13 785.89,1033.42 788.11,1034.36C790.33,1035.3 792.71,1035.76 795.26,1035.76L831.9,1035.76C839.48,1035.76 846.6,1037.18 853.28,1040.04C859.96,1042.9 865.79,1046.81 870.77,1051.78C875.75,1056.76 879.66,1062.58 882.51,1069.27C885.36,1075.95 886.79,1083.07 886.79,1090.65C886.79,1098.23 885.37,1105.33 882.51,1111.97C879.66,1118.61 875.74,1124.42 870.77,1129.39C865.79,1134.37 859.97,1138.31 853.28,1141.2C846.59,1144.09 839.48,1145.54 831.9,1145.54L750.59,1145.54L750.59,1108.9L831.9,1108.9C834.45,1108.9 836.83,1108.44 839.05,1107.5C841.27,1106.56 843.2,1105.27 844.86,1103.61C846.52,1101.95 847.81,1100.02 848.75,1097.8C849.69,1095.58 850.15,1093.2 850.15,1090.65C850.15,1088.1 849.68,1085.72 848.75,1083.5C847.81,1081.28 846.52,1079.35 844.86,1077.69C843.2,1076.03 841.27,1074.74 839.05,1073.8C836.83,1072.86 834.45,1072.4 831.9,1072.4L795.26,1072.4C787.68,1072.4 780.58,1070.95 773.94,1068.06C767.3,1065.17 761.49,1061.23 756.52,1056.25C751.54,1051.27 747.6,1045.45 744.71,1038.76C741.82,1032.09 740.37,1024.97 740.37,1017.39Z" style="fill:rgb(221,9,30);fill-rule:nonzero;"/>
                <path d="M995.54,1145.55L959.03,1145.55L959.03,999.14L904.01,999.14L904.01,962.5L1050.42,962.5L1050.42,999.14L995.53,999.14L995.53,1145.55L995.54,1145.55Z" style="fill:rgb(221,9,30);fill-rule:nonzero;"/>
                <path d="M1205.77,1145.55L1080.29,1145.55L1080.29,962.5L1205.77,962.5L1205.77,999.14L1116.93,999.14L1116.93,1035.78L1177.05,1035.78L1177.05,1072.42L1116.93,1072.42L1116.93,1108.93L1205.77,1108.93L1205.77,1145.55Z" style="fill:rgb(221,9,30);fill-rule:nonzero;"/>
                <path d="M1423.52,1145.55L1387.01,1145.55L1387.01,1014.84C1387.01,1012.29 1386.52,1009.91 1385.54,1007.69C1384.56,1005.47 1383.24,1003.54 1381.58,1001.88C1379.92,1000.22 1377.99,998.93 1375.77,997.99C1373.55,997.05 1371.17,996.59 1368.62,996.59C1366.07,996.59 1363.69,997.06 1361.47,997.99C1359.25,998.93 1357.32,1000.22 1355.66,1001.88C1354,1003.54 1352.71,1005.47 1351.77,1007.69C1350.83,1009.91 1350.37,1012.29 1350.37,1014.84L1350.37,1145.55L1313.73,1145.55L1313.73,1014.84C1313.73,1012.29 1313.26,1009.91 1312.33,1007.69C1311.39,1005.47 1310.1,1003.54 1308.44,1001.88C1306.78,1000.22 1304.85,998.93 1302.63,997.99C1300.41,997.05 1298.03,996.59 1295.48,996.59C1292.93,996.59 1290.55,997.06 1288.33,997.99C1286.11,998.93 1284.18,1000.22 1282.52,1001.88C1280.86,1003.54 1279.57,1005.47 1278.63,1007.69C1277.69,1009.91 1277.23,1012.29 1277.23,1014.84L1277.23,1145.55L1240.59,1145.55L1240.59,1014.84C1240.59,1007.26 1242.01,1000.14 1244.87,993.46C1247.72,986.78 1251.64,980.95 1256.61,975.97C1261.59,970.99 1267.41,967.08 1274.1,964.23C1280.78,961.38 1287.9,959.95 1295.48,959.95C1302.29,959.95 1308.84,961.16 1315.14,963.59C1321.44,966.02 1327.09,969.53 1332.12,974.12C1337.14,969.52 1342.78,966.01 1349.03,963.59C1355.28,961.17 1361.81,959.95 1368.62,959.95C1376.2,959.95 1383.32,961.37 1390,964.23C1396.68,967.08 1402.51,971 1407.49,975.97C1412.47,980.95 1416.38,986.77 1419.23,993.46C1422.08,1000.15 1423.51,1007.26 1423.51,1014.84L1423.51,1145.55L1423.52,1145.55Z" style="fill:rgb(221,9,30);fill-rule:nonzero;"/>
                <path d="M1455.94,1017.39C1455.94,1009.81 1457.39,1002.71 1460.28,996.07C1463.17,989.43 1467.11,983.62 1472.09,978.65C1477.07,973.67 1482.88,969.73 1489.51,966.84C1496.14,963.95 1503.25,962.5 1510.83,962.5L1594.82,962.5L1594.82,999.14L1510.83,999.14C1508.28,999.14 1505.9,999.61 1503.68,1000.54C1501.46,1001.48 1499.53,1002.77 1497.87,1004.43C1496.21,1006.09 1494.92,1008.02 1493.98,1010.24C1493.04,1012.46 1492.58,1014.84 1492.58,1017.39C1492.58,1019.94 1493.04,1022.35 1493.98,1024.6C1494.92,1026.85 1496.21,1028.81 1497.87,1030.47C1499.53,1032.13 1501.46,1033.42 1503.68,1034.36C1505.9,1035.3 1508.28,1035.76 1510.83,1035.76L1547.47,1035.76C1555.05,1035.76 1562.17,1037.18 1568.85,1040.04C1575.53,1042.89 1581.36,1046.81 1586.34,1051.78C1591.32,1056.76 1595.23,1062.58 1598.08,1069.27C1600.93,1075.96 1602.36,1083.07 1602.36,1090.65C1602.36,1098.23 1600.94,1105.33 1598.08,1111.97C1595.22,1118.61 1591.31,1124.42 1586.34,1129.39C1581.36,1134.37 1575.54,1138.31 1568.85,1141.2C1562.17,1144.09 1555.05,1145.54 1547.47,1145.54L1466.16,1145.54L1466.16,1108.9L1547.47,1108.9C1550.02,1108.9 1552.4,1108.44 1554.62,1107.5C1556.84,1106.56 1558.77,1105.27 1560.43,1103.61C1562.09,1101.95 1563.38,1100.02 1564.32,1097.8C1565.26,1095.58 1565.72,1093.2 1565.72,1090.65C1565.72,1088.1 1565.26,1085.72 1564.32,1083.5C1563.38,1081.28 1562.09,1079.35 1560.43,1077.69C1558.77,1076.03 1556.84,1074.74 1554.62,1073.8C1552.4,1072.86 1550.02,1072.4 1547.47,1072.4L1510.83,1072.4C1503.25,1072.4 1496.15,1070.95 1489.51,1068.06C1482.87,1065.17 1477.06,1061.23 1472.09,1056.25C1467.11,1051.27 1463.17,1045.45 1460.28,1038.76C1457.39,1032.07 1455.94,1024.97 1455.94,1017.39Z" style="fill:rgb(221,9,30);fill-rule:nonzero;"/>
            </g>
        </g>
        <path d="M1602.35,1200.58L1584.99,1192.98L1586.99,1174.13L1571.73,1185.37L1556.4,1174.22L1558.5,1193.05L1541.77,1200.48L1541.77,1201L1558.55,1208.34L1556.55,1227.19L1571.81,1215.95L1587.13,1227.11L1585.03,1208.27L1602.35,1200.58Z" style="fill:rgb(221,9,30);fill-rule:nonzero;"/>
        <path d="M1580.72,1200.64L407.21,1216.02L407.21,1185.25L1580.72,1200.64Z" style="fill:rgb(221,9,30);fill-rule:nonzero;"/>
    </g>
</svg>
